<svg id="svg" version="1.1" xmlns="http://www.w3.org/2000/svg" xmlns:xlink="http://www.w3.org/1999/xlink" width="400" height="400" viewBox="0, 0, 400,400"><g id="svgg"><path id="path0" d="M39.453 125.732 C 39.453 126.656,41.801 130.082,43.757 132.012 C 44.965 133.204,46.116 134.469,46.316 134.822 C 46.813 135.699,50.916 140.364,53.424 142.902 C 54.555 144.047,55.725 145.455,56.022 146.031 C 56.320 146.607,57.504 147.986,58.653 149.095 C 59.802 150.205,61.709 152.280,62.891 153.707 C 66.044 157.516,68.285 160.030,70.705 162.475 C 71.888 163.671,73.328 165.283,73.906 166.059 C 74.484 166.835,76.066 168.694,77.420 170.190 C 81.490 174.685,85.005 178.639,86.063 179.910 C 86.611 180.569,87.730 181.835,88.549 182.723 C 92.421 186.919,95.478 190.274,97.732 192.801 C 102.933 198.631,105.445 201.429,107.000 203.125 L 108.612 204.883 110.193 203.125 C 111.062 202.158,113.067 199.785,114.648 197.852 C 116.229 195.918,118.290 193.545,119.229 192.578 C 120.167 191.611,121.272 190.248,121.685 189.550 C 122.097 188.852,122.716 188.191,123.059 188.082 C 123.402 187.973,124.199 187.162,124.830 186.280 C 125.461 185.398,126.686 183.949,127.554 183.061 C 128.422 182.172,129.643 180.742,130.268 179.883 C 130.893 179.023,131.506 178.232,131.630 178.125 C 131.755 178.018,132.819 176.791,133.995 175.399 C 135.171 174.008,137.539 171.283,139.258 169.345 C 140.977 167.406,142.814 165.178,143.342 164.393 C 143.869 163.607,144.792 162.674,145.392 162.320 C 145.993 161.965,146.485 161.553,146.485 161.404 C 146.486 161.255,147.027 160.518,147.688 159.766 C 148.348 159.014,149.604 157.448,150.478 156.287 C 151.353 155.125,153.121 153.104,154.408 151.794 C 155.696 150.485,157.319 148.532,158.016 147.454 C 158.713 146.376,159.727 145.256,160.270 144.965 C 160.813 144.675,161.790 143.623,162.441 142.629 C 163.091 141.634,164.909 139.395,166.480 137.654 C 169.768 134.009,176.563 125.877,176.563 125.587 C 176.563 125.479,145.713 125.391,108.008 125.391 C 69.151 125.391,39.453 125.539,39.453 125.732 M183.868 128.305 C 182.416 129.907,180.598 132.060,179.827 133.090 C 179.056 134.119,177.512 135.928,176.394 137.109 C 175.277 138.291,173.850 139.961,173.224 140.820 C 172.597 141.680,171.202 143.365,170.124 144.565 C 165.647 149.551,163.457 152.094,163.126 152.689 C 162.933 153.036,161.878 154.313,160.782 155.527 C 159.686 156.741,158.262 158.391,157.617 159.194 C 156.973 159.998,155.326 161.844,153.958 163.297 C 152.591 164.751,151.184 166.370,150.833 166.895 C 149.596 168.747,144.807 174.204,143.894 174.803 C 143.385 175.136,142.969 175.625,142.969 175.890 C 142.969 176.155,142.310 177.087,141.504 177.962 C 138.978 180.706,137.367 182.551,135.738 184.570 C 134.871 185.645,133.550 187.147,132.803 187.908 C 131.127 189.618,130.078 190.931,130.078 191.319 C 130.078 191.481,129.062 192.681,127.821 193.986 C 126.579 195.291,125.230 196.870,124.823 197.496 C 124.416 198.121,123.088 199.688,121.872 200.977 C 120.656 202.266,119.407 203.699,119.097 204.163 C 118.786 204.626,117.176 206.483,115.518 208.290 C 113.860 210.097,112.019 212.204,111.428 212.974 C 109.919 214.934,103.436 222.499,101.455 224.609 C 100.547 225.576,99.278 227.070,98.634 227.930 C 97.991 228.789,96.760 230.217,95.900 231.104 C 95.040 231.990,93.281 234.010,91.992 235.593 C 90.703 237.175,88.496 239.702,87.087 241.208 C 85.678 242.713,84.244 244.385,83.900 244.922 C 83.366 245.758,80.895 248.653,77.567 252.344 C 77.083 252.881,75.742 254.463,74.588 255.859 C 73.434 257.256,71.009 260.068,69.198 262.109 C 67.388 264.150,65.637 266.260,65.308 266.797 C 64.979 267.334,64.168 268.327,63.507 269.004 C 62.846 269.681,61.698 270.868,60.956 271.641 L 59.608 273.047 70.780 273.047 L 81.952 273.047 83.327 271.582 C 85.249 269.535,88.864 265.365,91.406 262.262 C 92.588 260.820,94.917 258.187,96.582 256.411 C 98.247 254.635,99.609 253.019,99.609 252.819 C 99.609 252.619,100.935 251.068,102.555 249.372 C 104.175 247.676,105.784 245.762,106.130 245.117 C 106.477 244.473,106.975 243.770,107.238 243.555 C 107.912 243.002,112.992 237.106,113.779 235.962 C 114.518 234.887,119.099 229.762,120.938 227.951 C 121.605 227.295,122.308 226.468,122.501 226.113 C 122.897 225.385,125.361 222.531,128.450 219.223 C 129.595 217.996,130.783 216.516,131.088 215.934 C 131.394 215.352,132.039 214.464,132.521 213.962 C 136.134 210.197,138.281 207.670,138.281 207.181 C 138.281 206.850,138.571 206.655,138.965 206.721 C 139.437 206.800,139.896 206.321,140.449 205.169 C 140.889 204.252,142.122 202.670,143.187 201.653 C 144.253 200.637,145.650 199.108,146.293 198.257 C 146.935 197.406,148.228 195.911,149.165 194.937 C 150.102 193.962,151.268 192.549,151.755 191.797 C 152.242 191.045,153.497 189.534,154.543 188.439 C 155.589 187.344,157.676 184.990,159.180 183.208 C 160.684 181.426,162.184 179.686,162.515 179.340 C 162.845 178.994,163.577 178.096,164.141 177.344 C 164.705 176.592,165.709 175.361,166.373 174.609 C 167.036 173.857,168.326 172.374,169.238 171.313 C 170.151 170.251,171.646 168.648,172.559 167.750 C 173.472 166.852,174.219 165.906,174.219 165.648 C 174.219 165.389,175.625 163.744,177.344 161.990 C 179.063 160.236,180.469 158.677,180.469 158.524 C 180.469 158.189,184.761 153.039,185.355 152.662 C 185.587 152.515,186.987 150.889,188.467 149.049 C 189.947 147.209,191.266 145.703,191.397 145.703 C 191.529 145.703,192.291 144.845,193.091 143.795 C 193.892 142.746,195.786 140.592,197.301 139.010 C 198.817 137.428,200.485 135.474,201.010 134.668 C 201.534 133.862,202.113 133.203,202.297 133.203 C 202.480 133.203,203.073 132.544,203.613 131.738 C 204.154 130.933,205.494 129.307,206.592 128.125 C 207.690 126.943,208.590 125.845,208.591 125.684 C 208.593 125.522,203.624 125.391,197.550 125.391 L 186.507 125.391 183.868 128.305 M208.182 137.012 C 207.419 137.818,205.725 139.801,204.417 141.420 C 203.110 143.039,201.728 144.621,201.346 144.936 C 200.964 145.250,200.175 146.163,199.593 146.963 C 199.012 147.764,197.157 149.933,195.472 151.784 C 193.787 153.635,192.087 155.680,191.693 156.327 C 191.299 156.975,190.450 157.948,189.807 158.489 C 189.164 159.030,188.290 160.154,187.866 160.987 C 187.441 161.819,186.936 162.500,186.744 162.500 C 186.551 162.500,185.720 163.230,184.896 164.121 C 184.072 165.013,183.118 166.041,182.775 166.405 C 182.432 166.769,181.569 167.929,180.858 168.983 C 180.146 170.036,178.479 172.041,177.153 173.438 C 175.827 174.834,174.408 176.504,173.999 177.148 C 173.591 177.793,172.814 178.772,172.273 179.324 C 171.732 179.875,170.410 181.360,169.336 182.624 C 168.262 183.887,166.482 185.897,165.382 187.089 C 164.281 188.282,163.107 189.785,162.773 190.430 C 162.438 191.074,161.079 192.656,159.753 193.945 C 158.427 195.234,157.109 196.729,156.825 197.266 C 156.541 197.803,155.153 199.380,153.740 200.770 C 152.328 202.160,151.172 203.495,151.172 203.735 C 151.172 203.976,149.934 205.563,148.421 207.262 C 144.033 212.190,140.621 216.118,137.891 219.383 C 136.494 221.053,134.725 223.044,133.960 223.807 C 133.195 224.571,132.154 225.811,131.647 226.563 C 131.140 227.314,129.657 229.085,128.351 230.497 C 127.045 231.909,124.261 235.161,122.165 237.724 C 120.068 240.286,117.128 243.789,115.630 245.508 C 114.133 247.227,112.312 249.336,111.583 250.195 C 110.855 251.055,109.572 252.549,108.732 253.516 C 107.892 254.482,106.389 256.240,105.392 257.422 C 104.394 258.604,102.757 260.449,101.753 261.523 C 100.749 262.598,99.555 264.004,99.100 264.648 C 98.644 265.293,96.903 267.258,95.230 269.014 C 93.556 270.771,92.188 272.397,92.188 272.628 C 92.188 272.919,96.982 273.047,107.942 273.047 L 123.696 273.047 124.986 271.191 C 125.696 270.171,126.978 268.633,127.835 267.773 C 128.692 266.914,130.045 265.296,130.841 264.179 C 131.638 263.061,133.732 260.572,135.497 258.649 C 137.261 256.725,139.212 254.450,139.832 253.594 C 140.453 252.737,141.350 251.763,141.825 251.430 C 142.301 251.097,142.995 250.360,143.368 249.792 C 144.006 248.819,144.842 247.810,148.648 243.421 C 149.515 242.420,150.685 240.986,151.247 240.234 C 151.809 239.482,153.253 237.829,154.455 236.559 C 155.657 235.289,156.641 234.055,156.641 233.816 C 156.641 233.577,157.036 233.003,157.520 232.539 C 158.003 232.075,158.838 231.276,159.375 230.764 C 159.912 230.251,162.021 227.759,164.063 225.226 C 166.104 222.693,168.783 219.541,170.016 218.221 C 171.250 216.900,172.261 215.663,172.262 215.470 C 172.264 215.278,173.013 214.307,173.926 213.313 C 178.136 208.731,180.622 205.819,181.827 204.059 C 182.547 203.008,184.144 201.182,185.376 200.000 C 186.607 198.818,188.085 197.120,188.660 196.225 C 189.234 195.330,190.288 194.107,191.001 193.507 C 191.714 192.907,192.596 191.926,192.960 191.327 C 193.325 190.727,195.049 188.698,196.793 186.818 C 198.537 184.937,200.367 182.839,200.861 182.156 C 202.127 180.402,209.292 171.972,209.764 171.680 C 210.225 171.395,210.324 135.547,209.863 135.547 C 209.702 135.547,208.946 136.207,208.182 137.012 M231.836 163.134 C 226.500 164.511,223.199 169.374,224.784 173.524 C 226.055 176.854,228.327 178.436,234.570 180.339 C 238.636 181.579,239.887 183.373,238.120 185.427 C 236.134 187.735,228.459 186.101,227.530 183.173 C 227.184 182.085,226.777 182.234,225.423 183.943 C 223.668 186.159,223.785 186.709,226.742 190.151 C 231.128 195.256,244.938 191.501,245.923 184.935 C 246.695 179.783,244.712 177.210,238.086 174.769 C 237.162 174.429,237.448 174.521,234.716 173.689 C 231.770 172.792,231.142 172.082,231.837 170.437 C 232.887 167.949,237.856 168.103,238.215 170.635 C 238.428 172.144,245.703 170.142,245.703 168.574 C 245.703 167.852,242.860 165.445,241.072 164.655 C 240.289 164.308,239.339 163.855,238.962 163.648 C 238.165 163.210,232.986 162.837,231.836 163.134 M247.774 166.699 L 247.852 169.727 251.283 169.840 C 253.296 169.906,254.621 170.104,254.488 170.320 C 254.363 170.522,254.384 175.437,254.535 181.242 L 254.809 191.797 258.459 191.797 L 262.109 191.797 262.109 180.859 L 262.109 169.922 266.211 169.922 L 270.313 169.922 270.313 166.797 L 270.313 163.672 259.004 163.672 L 247.696 163.672 247.774 166.699 M277.620 165.149 C 273.576 173.533,266.406 190.369,266.406 191.481 C 266.406 191.655,267.984 191.797,269.913 191.797 C 273.857 191.797,273.795 191.839,275.241 188.175 L 275.977 186.311 280.631 186.417 L 285.286 186.523 286.133 189.063 L 286.979 191.602 290.950 191.713 C 294.272 191.806,294.922 191.728,294.922 191.237 C 294.922 190.507,291.235 181.491,290.261 179.841 C 289.868 179.173,288.978 177.064,288.285 175.153 C 287.591 173.243,286.744 171.240,286.402 170.703 C 286.059 170.166,285.118 168.364,284.310 166.699 L 282.841 163.672 280.580 163.685 C 278.363 163.697,278.307 163.725,277.620 165.149 M292.578 166.797 L 292.578 169.922 296.289 169.922 L 300.000 169.922 300.000 180.859 L 300.000 191.797 303.516 191.797 L 307.031 191.797 307.031 180.859 L 307.031 169.922 310.156 169.922 L 313.281 169.922 313.281 166.797 L 313.281 163.672 302.930 163.672 L 292.578 163.672 292.578 166.797 M316.568 173.340 C 316.646 178.657,316.729 185.076,316.753 187.605 L 316.797 192.201 326.270 192.097 L 335.742 191.992 335.857 189.160 L 335.972 186.328 329.900 186.328 L 323.828 186.328 323.828 183.594 L 323.828 180.859 329.297 180.859 L 334.766 180.859 334.766 178.125 L 334.766 175.391 329.297 175.391 L 323.828 175.391 323.828 172.627 L 323.828 169.864 329.489 169.991 C 335.962 170.135,335.547 170.383,335.547 166.374 L 335.547 163.672 325.986 163.672 L 316.426 163.672 316.568 173.340 M339.779 167.480 C 339.681 169.575,339.612 175.907,339.625 181.550 L 339.648 191.812 346.151 192.036 C 358.128 192.448,363.635 189.475,365.229 181.736 C 367.580 170.326,360.236 163.681,345.272 163.674 L 339.957 163.672 339.779 167.480 M352.126 170.161 C 353.711 170.435,356.250 171.721,356.250 172.250 C 356.250 172.413,356.701 173.211,357.251 174.023 C 361.015 179.568,356.831 186.328,349.635 186.328 L 346.875 186.328 346.875 178.152 C 346.875 168.505,346.433 169.177,352.126 170.161 M282.173 177.690 C 283.415 180.628,283.538 180.377,280.684 180.712 L 278.401 180.980 278.672 179.846 C 279.139 177.890,280.605 174.587,280.867 174.898 C 281.005 175.061,281.593 176.318,282.173 177.690 M208.882 183.579 C 208.587 184.001,207.436 185.322,206.325 186.516 C 205.214 187.710,204.005 189.167,203.638 189.754 C 203.272 190.340,202.083 191.793,200.998 192.982 C 199.912 194.171,198.067 196.324,196.899 197.767 C 195.731 199.210,194.659 200.391,194.518 200.391 C 194.377 200.391,193.423 201.533,192.398 202.930 C 191.372 204.326,190.412 205.469,190.264 205.469 C 190.116 205.469,189.187 206.567,188.201 207.910 C 187.214 209.253,185.730 210.986,184.903 211.762 C 184.075 212.538,182.959 213.837,182.422 214.648 C 181.885 215.460,180.637 217.022,179.648 218.120 C 178.660 219.219,177.693 220.408,177.500 220.763 C 177.307 221.118,175.956 222.728,174.498 224.341 C 173.040 225.954,171.470 227.773,171.009 228.383 C 170.548 228.993,169.104 230.675,167.800 232.120 C 164.268 236.035,162.355 238.319,161.329 239.844 C 160.823 240.596,159.518 242.194,158.428 243.395 C 155.164 246.992,151.829 250.855,150.196 252.930 C 148.561 255.006,146.160 257.765,143.698 260.394 C 142.872 261.277,141.303 263.123,140.211 264.496 C 139.119 265.869,136.977 268.311,135.450 269.922 L 132.674 272.852 143.388 272.961 L 154.102 273.071 155.193 271.789 C 155.794 271.084,157.212 269.541,158.344 268.359 C 159.477 267.178,161.447 264.908,162.721 263.314 C 166.913 258.075,167.733 257.100,171.688 252.649 C 173.841 250.225,177.262 246.221,179.290 243.750 C 181.318 241.279,183.641 238.555,184.452 237.695 C 185.263 236.836,186.646 235.166,187.526 233.984 C 188.405 232.803,189.983 230.957,191.032 229.883 C 193.733 227.116,196.427 224.007,198.452 221.320 C 199.411 220.048,201.162 217.921,202.344 216.593 C 203.525 215.265,205.195 213.246,206.055 212.106 C 206.914 210.965,208.188 209.380,208.887 208.582 L 210.156 207.132 210.156 194.972 C 210.156 182.929,210.044 181.921,208.882 183.579 M229.983 195.616 C 223.518 197.436,222.273 207.825,228.142 210.985 C 229.070 211.484,231.298 212.412,233.627 213.268 C 236.382 214.281,237.692 215.590,237.343 216.980 C 236.446 220.554,230.693 220.413,228.194 216.757 C 226.728 214.611,224.618 215.525,224.050 218.551 C 223.407 221.980,228.893 225.651,234.354 225.444 C 247.178 224.959,247.716 210.181,235.022 207.074 C 232.305 206.409,231.250 205.613,231.250 204.226 C 231.250 200.940,234.106 200.112,238.360 202.164 C 240.517 203.204,242.667 200.402,241.452 198.133 C 241.214 197.687,241.124 197.046,241.254 196.708 C 241.408 196.306,241.272 196.094,240.862 196.094 C 240.517 196.094,240.234 196.274,240.234 196.493 C 240.234 196.721,239.856 196.656,239.355 196.342 C 237.159 194.965,233.345 194.670,229.983 195.616 M295.486 195.667 C 290.927 197.713,288.818 203.889,291.257 208.051 C 292.224 209.701,294.382 211.728,295.154 211.711 C 296.039 211.692,303.923 215.893,304.119 216.489 C 305.156 219.630,296.565 220.257,294.908 217.161 C 294.556 216.504,290.266 216.390,289.515 217.018 C 289.138 217.332,290.722 221.436,291.492 222.144 C 298.633 228.704,310.759 224.532,310.054 215.757 C 309.784 212.389,306.136 208.516,302.401 207.632 C 299.147 206.862,295.579 204.274,296.258 203.176 C 297.182 201.680,302.357 201.068,304.943 202.148 C 307.029 203.020,307.075 202.968,306.951 199.902 L 306.836 197.070 304.297 196.240 C 300.504 195.000,297.421 194.799,295.486 195.667 M364.648 195.550 C 356.893 199.776,358.842 210.773,367.821 213.446 C 374.874 215.546,374.751 220.221,367.664 219.422 C 365.875 219.221,365.001 218.571,363.833 216.574 C 363.336 215.723,360.684 216.347,359.571 217.577 C 358.877 218.344,359.488 220.620,360.932 222.648 C 363.910 226.831,373.773 226.907,376.811 222.772 C 381.773 216.019,379.090 210.257,369.274 206.584 C 366.146 205.414,365.088 203.304,366.836 201.722 C 367.922 200.740,370.555 200.841,372.854 201.954 C 374.943 202.965,375.631 202.875,376.475 201.481 C 378.745 197.728,369.323 193.003,364.648 195.550 M243.914 196.230 C 243.803 196.520,243.764 197.970,243.828 199.453 L 243.945 202.148 247.943 202.260 L 251.941 202.371 252.045 213.588 L 252.148 224.805 255.566 224.918 L 258.984 225.030 258.984 213.687 L 258.984 202.344 262.305 202.344 L 265.625 202.344 265.625 199.023 L 265.625 195.703 254.871 195.703 C 246.206 195.703,244.077 195.806,243.914 196.230 M267.969 210.149 L 267.969 224.609 278.142 224.609 L 288.315 224.609 288.201 221.777 L 288.086 218.945 281.738 218.838 L 275.391 218.731 275.391 215.869 L 275.391 213.008 278.966 212.754 C 280.933 212.614,283.657 212.500,285.021 212.500 L 287.500 212.500 287.500 209.766 L 287.500 207.031 281.250 207.031 L 275.000 207.031 275.000 204.492 L 275.000 201.953 280.762 201.947 C 287.757 201.940,287.570 202.034,287.422 198.598 L 287.305 195.898 277.637 195.794 L 267.969 195.689 267.969 210.149 M310.445 195.936 C 310.286 196.094,310.156 197.507,310.156 199.075 L 310.156 201.926 314.160 202.037 L 318.164 202.148 318.268 213.379 L 318.371 224.609 321.881 224.609 L 325.391 224.609 325.391 213.296 L 325.391 201.984 328.809 201.871 L 332.227 201.758 332.342 199.144 C 332.438 196.949,332.344 196.474,331.756 196.181 C 330.907 195.758,310.853 195.527,310.445 195.936 M334.162 196.193 C 334.059 196.463,334.021 203.098,334.077 210.939 L 334.180 225.195 337.695 225.195 L 341.211 225.195 341.321 220.605 C 341.454 215.078,342.260 214.532,344.238 218.631 C 344.570 219.318,345.861 221.120,347.108 222.635 L 349.375 225.391 352.812 225.391 C 357.134 225.391,357.215 226.046,351.973 218.564 C 349.872 215.566,349.857 215.414,351.607 215.029 C 358.755 213.459,358.010 198.067,350.715 196.608 C 350.098 196.484,349.499 196.230,349.383 196.043 C 349.029 195.471,334.384 195.615,334.162 196.193 M379.461 196.230 C 379.350 196.520,379.311 197.970,379.375 199.453 L 379.492 202.148 382.617 202.041 C 387.834 201.862,387.305 200.540,387.305 213.752 L 387.305 225.195 390.820 225.195 L 394.336 225.195 394.439 213.770 L 394.543 202.344 397.272 202.344 L 400.000 202.344 400.000 199.023 L 400.000 195.703 389.831 195.703 C 381.658 195.703,379.623 195.807,379.461 196.230 M348.966 203.302 C 349.751 204.029,350.000 204.635,350.000 205.815 C 350.000 209.464,348.482 210.647,344.030 210.466 L 341.211 210.352 341.100 206.348 L 340.988 202.344 344.461 202.344 C 347.605 202.344,348.030 202.434,348.966 203.302 M250.933 228.292 C 250.816 228.599,250.777 229.258,250.848 229.757 C 251.024 231.001,252.490 231.007,252.667 229.764 C 252.877 228.278,251.415 227.037,250.933 228.292 M300.644 229.090 C 300.518 229.419,300.058 229.688,299.622 229.688 C 299.114 229.688,298.828 229.944,298.828 230.400 C 298.828 231.027,295.966 236.989,295.420 237.500 C 295.306 237.607,295.300 236.407,295.407 234.832 C 295.628 231.608,295.337 231.212,293.352 232.034 C 292.264 232.485,292.188 232.654,292.188 234.618 C 292.188 237.573,291.102 237.227,289.844 233.871 C 289.273 232.348,288.166 231.235,287.693 231.708 C 287.336 232.065,289.217 236.430,290.585 238.419 C 291.252 239.387,291.807 240.324,291.818 240.500 C 291.920 242.004,295.313 242.832,295.313 241.352 C 295.313 240.686,300.186 230.859,300.516 230.859 C 300.699 230.859,300.755 233.496,300.642 236.719 C 300.467 241.661,300.523 242.578,300.999 242.578 C 301.418 242.578,301.563 242.054,301.564 240.527 C 301.565 237.553,302.355 231.526,302.817 230.962 C 303.325 230.342,302.887 229.156,302.287 229.527 C 302.038 229.681,301.618 229.511,301.354 229.150 C 300.933 228.574,300.845 228.567,300.644 229.090 M310.156 234.893 C 310.156 241.965,310.332 242.316,314.106 242.777 C 318.521 243.317,319.565 242.005,319.449 236.061 L 319.368 231.836 319.241 235.580 L 319.114 239.324 317.609 240.170 C 315.751 241.214,314.999 241.226,313.379 240.239 L 312.109 239.465 312.109 236.139 C 312.109 233.744,312.246 232.809,312.598 232.801 C 312.869 232.794,312.782 232.612,312.402 232.391 C 311.934 232.118,311.719 231.507,311.719 230.449 C 311.719 229.167,311.587 228.906,310.938 228.906 C 310.190 228.906,310.156 229.167,310.156 234.893 M256.348 229.601 C 255.448 229.745,255.156 230.620,255.863 231.057 C 256.485 231.442,257.748 230.888,257.657 230.270 C 257.547 229.521,257.381 229.436,256.348 229.601 M227.780 230.079 C 222.517 231.322,223.255 241.290,228.684 242.287 C 229.842 242.499,230.013 242.452,232.372 241.268 C 233.580 240.661,233.728 240.659,234.149 241.235 C 234.776 242.092,239.076 242.590,240.522 241.973 C 242.803 241.001,243.004 240.415,242.884 235.112 L 242.773 230.273 239.479 230.159 C 237.667 230.096,235.312 230.231,234.245 230.460 C 232.643 230.804,232.192 230.773,231.650 230.282 C 230.943 229.642,229.871 229.586,227.780 230.079 M233.394 232.520 C 233.235 233.003,233.021 234.920,232.921 236.780 L 232.737 240.162 231.479 240.398 C 227.291 241.183,224.496 236.281,227.296 233.059 C 228.753 231.382,233.922 230.925,233.394 232.520 M239.593 231.981 C 241.736 232.824,241.775 238.443,239.650 240.065 C 236.891 242.169,234.546 239.889,234.866 235.415 C 235.118 231.891,236.609 230.808,239.593 231.981 M259.627 231.940 C 258.946 233.042,259.410 241.755,260.162 241.994 C 261.461 242.406,261.719 241.864,261.719 238.717 C 261.719 236.057,261.829 235.579,262.616 234.840 C 263.656 233.863,266.016 233.245,266.016 233.949 C 266.016 234.270,266.228 234.289,266.741 234.014 C 267.739 233.480,268.359 234.912,268.359 237.751 C 268.359 241.260,269.714 242.800,272.266 242.193 C 273.806 241.826,273.878 240.166,272.340 240.473 C 270.857 240.770,270.569 240.275,270.656 237.582 C 270.803 233.088,269.433 231.641,265.031 231.641 C 262.924 231.641,262.835 231.684,262.396 232.910 L 261.942 234.180 261.730 233.008 C 261.521 231.848,260.122 231.138,259.627 231.940 M280.469 231.901 C 278.209 232.257,277.824 232.481,276.637 234.135 C 273.514 238.484,278.021 244.051,282.986 241.976 C 284.295 241.429,286.301 239.389,286.360 238.544 C 286.378 238.292,286.475 237.581,286.575 236.963 C 286.905 234.943,283.630 231.367,281.751 231.694 C 281.583 231.723,281.006 231.816,280.469 231.901 M305.794 231.961 C 302.497 233.305,302.554 242.542,305.859 242.571 C 306.492 242.577,306.760 236.319,306.152 235.710 C 305.991 235.549,305.859 236.624,305.859 238.099 C 305.859 241.466,305.020 241.058,304.768 237.568 C 304.585 235.037,305.639 233.594,307.670 233.594 C 309.094 233.594,308.763 232.817,307.324 232.782 C 306.626 232.765,306.274 232.662,306.543 232.554 C 307.067 232.343,307.225 231.622,306.738 231.668 C 306.577 231.683,306.152 231.815,305.794 231.961 M323.369 232.607 C 321.714 233.731,321.496 234.184,321.906 235.638 C 322.102 236.332,321.997 237.244,321.605 238.239 C 320.617 240.756,322.583 242.773,325.879 242.624 C 327.506 242.550,327.734 242.636,327.734 243.326 C 327.734 244.769,325.473 245.169,322.924 244.178 C 321.451 243.605,321.411 243.618,321.555 244.619 C 321.749 245.968,323.281 246.555,325.977 246.312 C 329.994 245.952,330.842 244.021,329.438 238.433 C 328.807 235.920,328.885 234.967,329.952 232.186 C 330.360 231.124,325.052 231.463,323.369 232.607 M245.855 232.330 C 241.855 234.977,244.820 243.204,249.500 242.444 C 253.203 241.844,254.870 233.190,251.459 232.276 C 250.234 231.948,246.377 231.985,245.855 232.330 M255.938 232.500 C 255.628 232.809,255.469 234.470,255.469 237.383 L 255.469 241.797 256.491 241.797 C 257.360 241.797,257.478 241.666,257.277 240.918 C 257.148 240.435,257.040 238.237,257.037 236.035 C 257.031 232.096,256.868 231.570,255.938 232.500 M274.870 232.292 C 274.455 232.706,274.569 235.547,275.000 235.547 C 275.215 235.547,275.391 234.756,275.391 233.789 C 275.391 232.001,275.331 231.830,274.870 232.292 M326.953 234.570 C 326.953 235.877,326.892 235.938,325.560 235.938 C 323.646 235.938,323.668 233.951,325.586 233.544 C 326.230 233.407,326.802 233.275,326.855 233.249 C 326.909 233.224,326.953 233.818,326.953 234.570 M283.455 234.668 C 284.284 235.562,284.416 236.004,284.242 237.301 C 283.685 241.463,277.734 241.054,277.734 236.853 C 277.734 233.848,281.398 232.449,283.455 234.668 M250.796 234.863 C 252.234 236.392,250.962 240.625,249.065 240.625 C 247.068 240.625,245.639 238.192,246.238 235.808 C 246.687 234.018,249.460 233.443,250.796 234.863 M294.504 237.874 C 295.012 238.188,294.452 240.625,293.872 240.625 C 292.616 240.625,292.110 239.671,292.361 237.777 C 292.711 235.136,293.020 234.740,293.536 236.272 C 293.770 236.969,294.206 237.690,294.504 237.874 M327.357 238.697 C 327.996 239.891,327.188 240.669,325.502 240.483 C 322.483 240.151,322.416 237.891,325.425 237.891 C 326.541 237.891,327.036 238.097,327.357 238.697 M393.750 396.875 L 393.750 400.000 396.875 400.000 L 400.000 400.000 400.000 396.875 L 400.000 393.750 396.875 393.750 L 393.750 393.750 393.750 396.875 " stroke="none" fill="#000000" fill-rule="evenodd"></path></g></svg>