<svg id="svg" version="1.1" xmlns="http://www.w3.org/2000/svg" xmlns:xlink="http://www.w3.org/1999/xlink" width="400" height="400" viewBox="0, 0, 400,400"><g id="svgg"><path id="path0" d="M186.133 105.308 C 169.427 111.100,166.335 112.187,162.891 113.483 C 158.974 114.956,147.306 118.876,144.824 119.552 L 143.359 119.952 143.359 128.335 L 143.359 136.719 168.555 136.719 L 193.750 136.719 193.750 119.922 C 193.750 104.182,193.707 103.126,193.066 103.133 C 192.690 103.138,189.570 104.117,186.133 105.308 M205.078 119.963 L 205.078 136.719 229.883 136.719 L 254.688 136.719 254.692 133.887 C 254.694 132.329,254.808 128.550,254.945 125.488 C 255.181 120.196,255.157 119.922,254.452 119.919 C 254.044 119.917,248.789 118.238,242.773 116.188 C 231.985 112.511,229.898 111.786,216.406 107.033 C 212.646 105.708,208.560 104.305,207.324 103.915 L 205.078 103.207 205.078 119.963 M210.857 106.413 C 216.506 108.401,225.075 111.477,229.492 113.102 C 231.641 113.892,234.453 114.867,235.742 115.268 C 237.031 115.669,240.371 116.812,243.164 117.808 C 245.957 118.804,249.429 119.893,250.879 120.228 L 253.516 120.836 253.516 128.195 L 253.516 135.553 229.980 135.452 L 206.445 135.352 206.343 120.215 C 206.273 109.785,206.369 105.078,206.653 105.078 C 206.880 105.078,208.772 105.679,210.857 106.413 M143.359 161.719 L 143.359 172.266 158.496 172.266 L 173.633 172.266 173.531 220.703 L 173.428 269.141 183.589 269.141 L 193.750 269.141 193.750 210.156 L 193.750 151.172 168.555 151.172 L 143.359 151.172 143.359 161.719 M205.078 210.156 L 205.078 269.141 215.233 269.141 L 225.388 269.141 225.487 220.605 L 225.586 172.070 240.137 171.968 L 254.688 171.865 254.688 161.519 L 254.688 151.172 229.883 151.172 L 205.078 151.172 205.078 210.156 M192.576 209.961 L 192.574 267.578 183.748 267.578 L 174.922 267.578 175.076 219.336 C 175.214 176.058,175.167 171.089,174.626 171.047 C 174.295 171.022,167.476 171.039,159.473 171.086 L 144.922 171.172 144.922 161.758 L 144.922 152.344 168.750 152.344 L 192.577 152.344 192.576 209.961 M80.664 247.959 C 71.658 249.541,67.614 257.506,72.259 264.514 C 75.711 269.722,85.255 270.716,89.378 266.298 L 90.279 265.332 89.106 264.047 L 87.933 262.763 85.342 264.038 C 82.172 265.598,80.301 265.475,77.452 263.517 C 70.595 258.808,77.840 248.991,85.257 252.939 C 87.182 253.964,88.158 253.826,90.134 252.250 C 91.707 250.994,83.795 247.410,80.664 247.959 M125.781 258.467 L 125.781 269.141 132.227 269.141 L 138.672 269.141 138.672 267.201 L 138.672 265.261 134.473 265.150 L 130.273 265.039 130.273 262.891 L 130.273 260.742 133.887 260.630 L 137.500 260.518 137.500 258.579 L 137.500 256.641 133.770 256.641 L 130.039 256.641 130.156 254.395 L 130.273 252.148 134.277 252.037 L 138.281 251.926 138.281 249.986 L 138.281 248.047 134.668 248.007 C 132.681 247.985,129.868 247.928,128.418 247.880 L 125.781 247.793 125.781 258.467 M147.266 258.454 L 147.266 269.251 151.465 269.034 C 159.576 268.615,164.471 264.835,164.577 258.907 C 164.702 251.915,158.804 247.656,148.995 247.656 L 147.266 247.656 147.266 258.454 M238.941 248.053 C 231.493 250.289,232.859 261.328,240.584 261.328 C 244.078 261.328,245.809 264.210,243.164 265.625 C 241.919 266.291,239.165 265.165,238.636 263.772 C 238.195 262.612,233.594 263.035,233.594 264.235 C 233.594 269.005,244.782 271.055,248.061 266.885 C 250.912 263.261,248.270 258.442,242.545 256.827 C 238.475 255.678,237.449 254.648,238.588 252.856 C 239.502 251.420,244.200 251.806,244.799 253.367 C 245.124 254.215,245.852 254.006,247.095 252.707 L 248.242 251.509 246.631 250.005 C 244.399 247.921,241.679 247.231,238.941 248.053 M332.520 247.887 C 332.147 248.059,332.031 250.595,332.031 258.626 L 332.031 269.141 334.180 269.141 L 336.328 269.141 336.328 265.613 C 336.328 261.791,336.555 261.397,338.475 261.879 C 339.178 262.055,339.788 262.801,340.666 264.558 C 342.956 269.138,343.405 269.531,346.354 269.531 L 348.918 269.531 348.207 268.457 C 347.817 267.866,346.675 265.889,345.669 264.063 L 343.842 260.742 345.117 259.375 C 349.020 255.190,347.822 250.875,342.159 248.716 C 340.383 248.039,333.480 247.446,332.520 247.887 M24.219 258.546 L 24.219 269.141 29.226 269.141 C 35.460 269.141,37.803 268.543,39.308 266.571 C 41.335 263.913,40.552 260.675,37.500 259.103 C 36.748 258.715,36.058 258.352,35.966 258.296 C 35.874 258.240,36.357 257.648,37.040 256.980 C 38.067 255.977,38.281 255.466,38.281 254.030 C 38.281 249.904,35.922 248.437,28.809 248.141 L 24.219 247.951 24.219 258.546 M49.219 258.594 L 49.219 269.141 55.859 269.141 L 62.500 269.141 62.500 267.200 L 62.500 265.260 58.105 265.150 L 53.711 265.039 53.711 262.891 L 53.711 260.742 57.715 260.631 L 61.719 260.520 61.719 258.385 L 61.719 256.250 57.617 256.250 L 53.516 256.250 53.516 254.102 L 53.516 251.953 57.813 251.953 L 62.109 251.953 62.109 250.000 L 62.109 248.047 55.664 248.047 L 49.219 248.047 49.219 258.594 M98.438 258.594 L 98.438 269.141 100.586 269.141 L 102.734 269.141 102.734 265.039 L 102.734 260.938 106.836 260.938 L 110.938 260.938 110.938 265.039 L 110.938 269.141 113.086 269.141 L 115.234 269.141 115.230 260.059 C 115.224 248.057,115.223 248.047,113.035 248.047 L 111.328 248.047 111.328 252.161 L 111.328 256.276 106.934 256.165 L 102.539 256.055 102.428 252.051 L 102.316 248.047 100.377 248.047 L 98.438 248.047 98.438 258.594 M256.250 249.805 L 256.250 251.563 258.984 251.563 L 261.719 251.563 261.719 260.352 L 261.719 269.141 263.892 269.141 L 266.066 269.141 265.983 260.449 L 265.901 251.758 268.497 251.642 L 271.094 251.527 271.094 249.787 L 271.094 248.047 263.672 248.047 L 256.250 248.047 256.250 249.805 M282.745 252.454 C 281.741 254.864,279.927 259.385,278.714 262.500 C 277.500 265.615,276.410 268.393,276.290 268.672 C 276.122 269.065,276.627 269.154,278.515 269.063 L 280.957 268.945 281.592 267.318 C 282.429 265.170,282.295 265.249,285.388 265.068 C 290.081 264.793,290.786 265.030,291.817 267.230 L 292.712 269.141 294.966 269.141 L 297.221 269.141 296.115 266.504 C 293.711 260.775,292.452 257.892,291.211 255.273 C 290.498 253.770,289.469 251.528,288.924 250.293 C 287.937 248.055,287.927 248.047,286.252 248.059 L 284.570 248.072 282.745 252.454 M304.907 257.106 C 304.751 262.139,304.750 266.928,304.904 267.748 L 305.183 269.238 309.135 269.036 C 317.697 268.597,322.652 264.698,322.652 258.398 C 322.652 252.206,317.910 248.439,309.724 248.127 L 305.190 247.955 304.907 257.106 M355.469 249.787 L 355.469 251.527 358.105 251.642 L 360.742 251.758 360.777 259.570 C 360.824 270.239,360.582 269.141,362.883 269.141 L 364.829 269.141 364.934 260.449 L 365.039 251.758 367.871 251.643 L 370.703 251.528 370.703 249.788 L 370.703 248.047 363.086 248.047 L 355.469 248.047 355.469 249.787 M31.618 251.812 C 35.233 252.535,34.387 257.031,30.636 257.031 L 28.906 257.031 28.906 254.557 C 28.906 251.384,29.001 251.288,31.618 251.812 M311.467 251.953 C 312.741 251.953,316.963 254.593,317.709 255.856 C 319.714 259.250,317.058 263.555,312.166 264.840 C 309.330 265.585,309.375 265.691,309.375 258.174 C 309.375 252.229,309.444 251.505,309.993 251.716 C 310.333 251.846,310.996 251.953,311.467 251.953 M341.504 253.157 C 343.319 255.377,341.273 258.594,338.045 258.594 L 336.328 258.594 336.328 255.339 C 336.328 253.548,336.419 251.993,336.529 251.882 C 337.028 251.384,340.856 252.365,341.504 253.157 M156.790 253.148 C 162.410 256.999,160.328 264.476,153.511 264.924 L 151.758 265.039 151.650 258.445 L 151.543 251.852 153.494 252.039 C 154.647 252.150,155.995 252.603,156.790 253.148 M287.531 256.944 C 287.870 257.744,288.430 259.040,288.775 259.823 C 289.561 261.609,289.440 261.719,286.677 261.719 C 283.910 261.719,283.816 261.579,284.808 258.967 C 286.334 254.951,286.602 254.752,287.531 256.944 M33.140 261.195 C 37.409 261.707,35.830 265.402,31.334 265.421 L 29.102 265.430 28.984 263.184 C 28.851 260.628,28.765 260.669,33.140 261.195 M262.109 279.102 C 262.109 279.585,262.826 279.688,266.211 279.688 C 269.596 279.688,270.313 279.585,270.313 279.102 C 270.313 278.618,269.596 278.516,266.211 278.516 C 262.826 278.516,262.109 278.618,262.109 279.102 M103.289 279.375 C 101.032 280.409,100.399 284.677,102.246 286.406 C 105.250 289.219,109.545 287.506,109.551 283.494 C 109.554 280.767,105.735 278.255,103.289 279.375 M115.712 279.514 C 113.627 280.975,114.972 283.257,118.226 283.780 C 121.289 284.272,122.089 285.962,119.525 286.525 C 118.539 286.741,117.908 286.555,116.348 285.585 C 114.047 284.155,114.063 284.158,114.063 285.151 C 114.063 287.416,119.513 288.698,121.500 286.900 C 123.308 285.263,121.341 282.473,118.349 282.430 C 117.185 282.414,115.933 281.235,116.435 280.629 C 117.076 279.857,118.706 279.943,120.373 280.837 C 121.152 281.255,121.896 281.489,122.027 281.358 C 123.483 279.903,117.606 278.187,115.712 279.514 M131.134 282.848 C 128.949 287.536,128.953 287.507,130.566 287.473 C 132.431 287.432,133.828 286.783,132.129 286.746 C 131.431 286.731,130.859 286.564,130.859 286.376 C 130.859 284.881,136.367 285.051,137.058 286.567 C 137.343 287.192,137.809 287.500,138.468 287.500 C 139.470 287.500,139.783 286.969,139.048 286.514 C 138.825 286.377,137.853 284.609,136.889 282.585 C 134.389 277.342,133.684 277.374,131.134 282.848 M145.508 279.247 C 144.429 279.477,144.327 279.643,144.217 281.350 L 144.098 283.203 145.819 283.203 C 149.359 283.203,151.069 284.478,149.557 285.989 C 148.301 287.246,144.922 286.639,144.922 285.156 C 144.922 284.752,144.746 284.312,144.531 284.180 C 143.968 283.832,144.040 286.462,144.609 287.031 C 145.431 287.853,149.741 287.621,150.924 286.690 C 153.084 284.992,152.080 283.369,148.288 282.428 C 144.628 281.521,144.781 280.237,148.535 280.359 C 151.432 280.453,151.995 279.953,149.707 279.317 C 148.121 278.877,147.317 278.863,145.508 279.247 M157.936 279.300 C 156.995 279.679,156.250 280.822,156.250 281.887 C 156.250 282.390,156.616 282.175,157.617 281.082 C 159.035 279.534,159.191 279.506,162.012 280.310 C 162.531 280.458,162.891 280.389,162.891 280.142 C 162.891 279.275,159.449 278.690,157.936 279.300 M170.397 283.147 L 170.508 287.305 173.926 287.418 C 176.612 287.506,177.344 287.416,177.344 286.996 C 177.344 286.593,176.693 286.469,174.707 286.492 L 172.070 286.523 171.950 284.863 L 171.830 283.203 174.294 283.204 L 176.758 283.204 176.624 281.055 C 176.460 278.418,175.868 278.229,175.705 280.762 L 175.586 282.617 173.828 282.617 L 172.070 282.617 171.875 280.859 C 171.728 279.537,171.507 279.088,170.983 279.045 C 170.349 278.994,170.297 279.359,170.397 283.147 M183.105 279.176 C 181.751 279.529,182.463 280.040,184.473 280.155 L 186.523 280.273 186.635 284.082 C 186.724 287.114,186.864 287.891,187.319 287.891 C 187.977 287.891,187.962 287.978,188.033 283.594 L 188.086 280.273 189.746 280.153 C 190.876 280.072,191.406 279.853,191.406 279.470 C 191.406 278.915,184.973 278.687,183.105 279.176 M248.828 279.492 C 248.828 279.915,249.262 280.078,250.391 280.078 L 251.953 280.078 251.953 283.984 C 251.953 287.607,252.009 287.891,252.721 287.891 C 253.427 287.891,253.497 287.569,253.600 283.887 L 253.711 279.883 255.176 279.762 C 258.218 279.510,256.495 278.906,252.734 278.906 C 249.523 278.906,248.828 279.010,248.828 279.492 M276.953 283.008 L 276.953 287.109 280.306 287.109 C 284.394 287.109,284.886 286.207,280.903 286.016 L 278.469 285.899 278.590 284.649 C 278.709 283.415,278.741 283.397,280.983 283.281 C 283.977 283.125,283.793 282.271,280.731 282.109 C 279.195 282.028,278.516 281.831,278.516 281.468 C 278.516 281.179,278.237 280.836,277.897 280.706 C 276.305 280.095,277.751 279.483,281.281 279.274 L 284.961 279.056 280.957 278.981 L 276.953 278.906 276.953 283.008 M224.966 279.581 C 222.982 279.740,222.833 279.935,220.844 284.937 C 219.758 287.670,219.784 287.500,220.455 287.500 C 220.748 287.500,221.233 286.857,221.532 286.070 L 222.076 284.640 225.193 284.731 C 228.157 284.818,228.885 285.097,228.900 286.155 C 228.904 286.382,228.423 286.759,227.832 286.992 C 226.825 287.390,226.877 287.419,228.665 287.458 L 230.572 287.500 230.357 285.899 C 230.228 284.942,229.837 284.085,229.384 283.767 C 228.967 283.475,228.245 282.350,227.779 281.267 C 227.313 280.183,226.892 279.329,226.845 279.367 C 226.797 279.406,225.951 279.502,224.966 279.581 M236.328 283.343 C 236.328 287.240,236.377 287.500,237.109 287.500 C 237.760 287.500,237.891 287.240,237.891 285.938 C 237.891 283.782,239.360 283.834,240.191 286.020 C 240.470 286.752,241.023 287.182,242.049 287.466 C 244.003 288.005,244.085 287.790,242.580 286.075 C 241.339 284.661,241.327 284.617,242.138 284.317 C 242.792 284.075,242.969 283.683,242.969 282.479 C 242.969 280.524,241.905 279.768,238.677 279.431 L 236.328 279.186 236.328 283.343 M207.031 283.789 C 207.031 287.630,207.081 287.891,207.813 287.891 C 208.530 287.891,208.594 287.627,208.602 284.668 L 208.611 281.445 209.375 282.422 C 209.795 282.959,210.143 283.915,210.148 284.547 C 210.156 285.613,210.195 285.644,210.688 284.968 C 211.204 284.264,211.243 284.267,211.930 285.069 C 212.727 285.999,213.281 285.871,213.281 284.756 C 213.281 283.910,214.469 281.250,214.846 281.250 C 214.983 281.250,215.015 282.767,214.917 284.620 C 214.773 287.369,214.840 287.957,215.280 287.811 C 215.682 287.678,215.849 286.618,215.932 283.660 C 216.066 278.857,215.586 278.513,213.437 281.871 L 212.040 284.055 211.074 283.148 C 210.542 282.648,209.753 281.666,209.319 280.964 C 207.699 278.343,207.031 279.167,207.031 283.789 M135.719 283.496 C 136.057 284.593,134.280 284.764,133.152 283.743 C 132.482 283.136,132.487 283.045,133.267 281.515 L 134.081 279.919 134.764 281.268 C 135.140 282.010,135.570 283.013,135.719 283.496 M226.172 280.859 C 226.172 281.074,225.820 281.250,225.391 281.250 C 224.961 281.250,224.609 281.074,224.609 280.859 C 224.609 280.645,224.961 280.469,225.391 280.469 C 225.820 280.469,226.172 280.645,226.172 280.859 M241.387 281.156 C 242.791 282.293,242.086 283.203,239.802 283.203 L 237.891 283.203 237.891 281.836 C 237.891 280.230,239.788 279.861,241.387 281.156 M265.372 282.520 C 265.507 283.647,265.620 285.317,265.622 286.230 C 265.624 287.629,265.748 287.891,266.406 287.891 C 267.133 287.891,267.188 287.630,267.188 284.180 L 267.188 280.469 266.157 280.469 C 265.142 280.469,265.129 280.501,265.372 282.520 M107.089 282.028 C 108.794 283.734,107.781 286.328,105.408 286.328 C 102.970 286.328,101.927 283.585,103.693 281.818 C 104.947 280.564,105.669 280.609,107.089 282.028 M157.645 281.987 C 157.347 282.468,158.212 283.112,159.979 283.724 C 161.964 284.411,162.578 285.387,161.523 286.180 C 160.574 286.894,158.828 286.632,157.360 285.557 C 156.371 284.831,155.859 285.045,155.859 286.185 C 155.859 287.151,161.087 287.866,162.526 287.096 C 163.311 286.676,163.571 284.654,162.963 283.697 C 162.446 282.884,157.978 281.447,157.645 281.987 M226.875 282.109 C 227.873 283.108,227.387 283.594,225.391 283.594 C 224.048 283.594,223.438 283.435,223.438 283.086 C 223.438 282.274,224.293 281.641,225.391 281.641 C 225.949 281.641,226.617 281.852,226.875 282.109 M295.142 282.772 C 294.672 283.533,297.385 283.594,331.868 283.594 C 363.350 283.594,367.578 283.524,367.578 283.008 C 367.578 282.330,295.561 282.095,295.142 282.772 M23.047 283.400 C 23.047 284.206,94.946 284.106,95.215 283.301 C 95.344 282.913,87.971 282.813,59.212 282.813 C 27.270 282.813,23.047 282.881,23.047 283.400 M393.750 396.875 L 393.750 400.000 396.875 400.000 L 400.000 400.000 400.000 396.875 L 400.000 393.750 396.875 393.750 L 393.750 393.750 393.750 396.875 " stroke="none" fill="#0a0b09" fill-rule="evenodd"></path><path id="path1" d="M0.000 200.000 L 0.000 400.000 190.625 400.000 L 381.250 400.000 381.250 396.875 L 381.250 393.750 390.625 393.750 L 400.000 393.750 400.000 196.875 L 400.000 0.000 200.000 0.000 L 0.000 0.000 0.000 200.000 M193.750 119.922 L 193.750 137.109 168.359 137.109 L 142.969 137.109 142.969 128.320 C 142.969 119.893,143.000 119.531,143.724 119.531 C 144.467 119.531,156.394 115.640,162.891 113.279 C 164.717 112.615,169.199 111.041,172.852 109.781 C 176.504 108.521,181.250 106.841,183.398 106.047 C 186.859 104.769,192.655 102.883,193.457 102.774 C 193.618 102.752,193.750 110.469,193.750 119.922 M220.120 108.166 C 247.619 117.759,254.100 119.927,255.254 119.924 C 255.846 119.922,255.911 120.026,255.547 120.391 C 255.212 120.725,255.078 123.186,255.078 128.984 L 255.078 137.109 230.078 137.109 L 205.078 137.109 205.022 127.051 C 204.991 121.519,204.947 114.180,204.924 110.742 C 204.882 104.419,204.966 103.125,205.420 103.125 C 205.557 103.125,212.172 105.393,220.120 108.166 M255.078 161.328 L 255.078 171.875 240.431 171.875 L 225.784 171.875 225.685 220.605 L 225.586 269.336 215.332 269.440 L 205.078 269.544 205.078 210.163 L 205.078 150.781 230.078 150.781 L 255.078 150.781 255.078 161.328 M193.929 151.536 C 194.053 151.737,194.034 178.368,193.888 210.716 L 193.621 269.531 183.529 269.531 L 173.438 269.531 173.438 220.903 L 173.438 172.275 158.301 172.173 L 143.164 172.070 143.060 161.621 L 142.956 151.172 168.330 151.172 C 183.615 151.172,193.793 151.317,193.929 151.536 M34.356 248.705 C 38.458 250.079,40.003 254.496,37.278 257.057 C 36.100 258.163,36.090 258.449,37.218 258.732 C 39.944 259.417,41.328 263.106,39.905 265.896 C 38.545 268.562,36.510 269.278,29.785 269.456 L 24.219 269.605 24.219 258.577 L 24.219 247.550 28.399 247.830 C 30.698 247.984,33.379 248.378,34.356 248.705 M62.109 249.791 L 62.109 251.927 57.910 252.038 L 53.711 252.148 53.711 254.102 L 53.711 256.055 57.715 256.166 L 61.719 256.277 61.719 258.358 L 61.719 260.438 59.668 260.684 C 58.540 260.820,56.694 260.932,55.566 260.934 L 53.516 260.938 53.516 262.891 L 53.516 264.844 58.008 264.844 L 62.500 264.844 62.500 267.188 L 62.500 269.531 55.859 269.531 L 49.219 269.531 49.219 258.594 L 49.219 247.656 55.664 247.656 L 62.109 247.656 62.109 249.791 M85.369 248.411 C 87.348 249.106,90.625 251.276,90.625 251.891 C 90.625 252.685,86.999 254.319,86.379 253.805 C 82.385 250.489,75.558 252.920,75.087 257.826 C 74.550 263.412,80.264 266.595,85.637 263.704 C 88.353 262.243,87.980 262.227,89.225 263.860 C 92.855 268.618,79.713 271.323,74.319 266.927 C 64.753 259.132,73.616 244.280,85.369 248.411 M113.770 247.907 L 115.234 248.149 115.234 258.840 L 115.234 269.531 113.099 269.531 L 110.964 269.531 110.853 265.332 L 110.742 261.133 106.836 261.133 L 102.930 261.133 102.819 265.332 L 102.708 269.531 100.573 269.531 L 98.438 269.531 98.438 258.789 L 98.438 248.047 100.586 248.047 L 102.734 248.047 102.734 252.148 L 102.734 256.250 106.836 256.250 L 110.938 256.250 110.938 252.214 C 110.938 247.292,110.850 247.424,113.770 247.907 M138.672 249.805 L 138.672 251.953 134.570 251.953 L 130.469 251.953 130.469 254.297 L 130.469 256.641 133.984 256.641 L 137.500 256.641 137.500 258.789 L 137.500 260.938 133.984 260.938 L 130.469 260.938 130.469 263.086 L 130.469 265.234 134.570 265.234 L 138.672 265.234 138.672 267.383 L 138.672 269.531 132.031 269.531 L 125.391 269.531 125.391 262.756 C 125.391 259.030,125.505 254.108,125.645 251.819 L 125.900 247.656 132.286 247.656 L 138.672 247.656 138.672 249.805 M157.545 248.756 C 170.416 254.450,165.741 268.605,150.716 269.433 L 146.875 269.645 146.875 258.596 L 146.875 247.547 151.284 247.742 C 154.594 247.888,156.154 248.141,157.545 248.756 M244.743 248.390 C 247.300 249.552,248.610 251.370,247.752 252.566 C 246.763 253.942,245.585 254.131,244.232 253.130 C 241.934 251.432,239.101 251.747,238.503 253.767 C 238.082 255.188,239.173 255.833,244.025 257.035 C 252.141 259.047,250.420 269.514,241.971 269.528 C 236.935 269.535,230.416 263.844,234.658 263.143 C 237.248 262.715,238.672 262.835,238.672 263.482 C 238.672 264.895,242.613 266.215,243.672 265.156 C 245.141 263.687,243.682 261.925,240.722 261.594 C 234.022 260.845,231.130 253.475,236.024 249.625 C 238.729 247.497,241.814 247.060,244.743 248.390 M271.484 249.861 L 271.484 252.066 268.750 251.837 L 266.016 251.608 266.016 260.374 L 266.016 269.141 263.637 269.141 L 261.258 269.141 261.376 260.449 L 261.494 251.758 258.872 251.642 L 256.250 251.527 256.250 249.592 L 256.250 247.656 263.867 247.656 L 271.484 247.656 271.484 249.861 M289.109 250.293 C 289.752 251.743,290.776 253.984,291.386 255.273 C 292.855 258.381,297.266 268.607,297.266 268.906 C 297.266 269.035,296.200 269.141,294.897 269.141 L 292.528 269.141 291.674 267.197 L 290.820 265.253 286.707 265.244 L 282.594 265.234 281.836 267.188 L 281.078 269.141 278.486 269.141 L 275.893 269.141 277.994 263.770 C 279.150 260.815,280.878 256.553,281.835 254.297 C 282.792 252.041,283.772 249.624,284.013 248.926 C 284.420 247.749,284.578 247.656,286.196 247.656 L 287.940 247.656 289.109 250.293 M312.450 248.066 C 318.874 249.108,322.656 252.915,322.656 258.339 C 322.656 265.370,317.733 269.125,308.496 269.136 L 304.688 269.141 304.688 258.659 C 304.688 252.894,304.805 248.060,304.948 247.917 C 305.341 247.524,309.637 247.610,312.450 248.066 M342.598 248.690 C 347.960 251.122,349.196 255.360,345.634 259.104 L 344.080 260.738 345.546 263.475 C 346.353 264.980,347.421 266.867,347.921 267.668 C 349.126 269.603,349.191 269.531,346.248 269.531 C 343.265 269.531,342.981 269.296,340.625 264.872 C 339.415 262.601,339.111 262.291,337.988 262.182 L 336.719 262.060 336.719 265.796 L 336.719 269.531 334.375 269.531 L 332.031 269.531 332.031 258.552 L 332.031 247.572 336.426 247.728 C 339.785 247.847,341.239 248.074,342.598 248.690 M370.703 249.805 L 370.703 251.953 367.773 251.953 L 364.844 251.953 364.844 260.742 L 364.844 269.531 362.695 269.531 L 360.547 269.531 360.547 260.547 L 360.547 251.563 357.813 251.563 L 355.078 251.563 355.078 249.870 C 355.078 247.555,354.709 247.656,363.151 247.656 L 370.703 247.656 370.703 249.805 M28.985 254.395 L 29.102 256.836 30.821 256.798 C 34.872 256.708,34.574 251.953,30.517 251.953 L 28.869 251.953 28.985 254.395 M309.375 258.394 L 309.375 264.844 310.404 264.844 C 315.445 264.844,319.742 259.822,317.706 256.311 C 316.751 254.664,313.257 252.502,311.035 252.183 L 309.375 251.944 309.375 258.394 M336.719 255.272 L 336.719 258.697 338.379 258.474 C 343.121 257.838,343.278 252.715,338.574 252.092 L 336.719 251.847 336.719 255.272 M151.650 258.496 L 151.758 264.648 152.889 264.778 C 154.343 264.943,156.937 263.949,158.265 262.718 C 162.169 259.094,158.844 252.344,153.154 252.344 L 151.543 252.344 151.650 258.496 M285.429 257.922 C 284.040 261.391,284.017 261.328,286.719 261.328 C 289.449 261.328,289.391 261.511,287.758 258.015 L 286.483 255.288 285.429 257.922 M28.906 263.281 L 28.906 265.234 31.269 265.234 C 33.322 265.234,33.757 265.099,34.589 264.201 C 36.377 262.272,35.399 261.328,31.613 261.328 L 28.906 261.328 28.906 263.281 M34.375 263.518 C 34.375 263.930,34.163 264.065,33.757 263.909 C 33.417 263.779,32.275 263.672,31.218 263.672 C 30.161 263.672,29.297 263.496,29.297 263.281 C 29.297 263.061,30.404 262.891,31.836 262.891 C 33.908 262.891,34.375 263.006,34.375 263.518 M176.874 281.183 L 176.990 283.594 174.433 283.594 L 171.875 283.594 171.875 284.961 L 171.875 286.328 174.609 286.328 C 177.101 286.328,177.344 286.399,177.344 287.125 C 177.344 287.874,177.142 287.914,173.926 287.808 L 170.508 287.695 170.397 283.301 C 170.292 279.107,170.323 278.906,171.081 278.906 C 171.762 278.906,171.875 279.157,171.875 280.664 L 171.875 282.422 173.633 282.422 L 175.391 282.422 175.391 280.729 C 175.391 277.410,176.712 277.815,176.874 281.183 M256.953 279.371 C 257.053 279.894,256.730 280.056,255.395 280.152 L 253.711 280.273 253.599 284.082 C 253.498 287.544,253.419 287.891,252.734 287.891 C 252.050 287.891,251.971 287.544,251.870 284.082 L 251.758 280.273 250.293 280.152 C 249.136 280.056,248.828 279.869,248.828 279.260 C 248.828 278.168,256.744 278.276,256.953 279.371 M270.703 279.047 C 270.703 279.700,266.903 280.113,263.822 279.795 C 259.627 279.362,261.208 278.516,266.211 278.516 C 269.740 278.516,270.703 278.630,270.703 279.047 M285.061 279.199 C 285.182 279.567,284.298 279.688,281.478 279.688 C 279.243 279.688,277.734 279.845,277.734 280.078 C 277.734 280.293,277.890 280.469,278.079 280.469 C 278.269 280.469,278.514 280.811,278.623 281.229 C 278.787 281.855,279.228 282.011,281.107 282.108 C 284.704 282.295,284.684 283.594,281.083 283.594 C 278.618 283.594,278.516 283.632,278.516 284.552 C 278.516 285.454,278.658 285.516,280.957 285.626 C 283.054 285.726,283.414 285.852,283.510 286.523 C 283.614 287.249,283.387 287.308,280.288 287.350 L 276.953 287.395 276.953 283.168 L 276.953 278.940 279.785 278.797 C 283.953 278.586,284.883 278.657,285.061 279.199 M108.249 280.423 C 110.242 282.416,110.340 284.281,108.565 286.434 C 106.183 289.325,100.781 287.643,100.781 284.011 C 100.781 279.311,105.074 277.248,108.249 280.423 M120.868 279.556 C 121.618 279.914,122.324 280.448,122.437 280.743 C 122.712 281.458,121.617 281.846,120.931 281.277 C 119.496 280.086,116.406 279.920,116.406 281.034 C 116.406 281.533,117.150 281.906,119.897 282.784 C 122.718 283.686,123.377 285.237,121.627 286.860 C 119.678 288.667,116.684 288.453,114.681 286.362 C 112.835 284.435,113.956 283.744,116.322 285.352 C 117.908 286.429,119.966 286.631,120.674 285.777 C 121.297 285.027,119.804 283.984,118.107 283.984 C 116.686 283.984,114.453 282.345,114.453 281.302 C 114.453 279.026,117.829 278.107,120.868 279.556 M137.402 283.174 C 139.808 288.143,139.759 287.891,138.324 287.891 C 137.461 287.891,137.139 287.672,136.962 286.965 C 136.697 285.910,132.352 285.070,131.510 285.912 C 131.216 286.206,131.402 286.328,132.148 286.328 C 132.826 286.328,133.203 286.538,133.203 286.914 C 133.203 287.270,132.840 287.500,132.275 287.500 C 131.765 287.500,130.778 287.614,130.082 287.753 C 128.546 288.060,128.564 287.968,131.094 282.554 C 133.616 277.157,134.533 277.247,137.402 283.174 M150.416 279.311 C 152.175 280.252,151.286 280.824,148.438 280.585 C 144.537 280.258,144.666 281.527,148.615 282.331 C 151.278 282.873,152.051 283.470,152.051 284.985 C 152.051 288.410,144.464 289.038,144.216 285.634 C 144.122 284.350,144.230 283.984,144.704 283.984 C 145.085 283.984,145.313 284.333,145.313 284.919 C 145.313 286.359,148.575 286.989,149.605 285.747 C 150.699 284.429,148.569 283.210,145.162 283.205 L 143.644 283.203 143.889 281.413 C 144.024 280.428,144.234 279.462,144.356 279.264 C 144.659 278.774,149.482 278.811,150.416 279.311 M162.069 279.341 C 163.379 279.798,163.536 280.760,162.263 280.531 C 159.489 280.032,158.717 280.044,158.260 280.595 C 157.692 281.279,157.757 281.327,160.449 282.206 C 164.607 283.563,164.823 287.109,160.787 287.764 C 157.589 288.283,155.071 286.272,156.214 284.112 C 156.234 284.075,156.764 284.558,157.392 285.186 C 158.649 286.443,160.875 286.759,161.676 285.794 C 162.227 285.130,161.830 284.779,159.277 283.665 C 158.257 283.221,157.422 282.687,157.422 282.480 C 157.422 282.274,157.070 282.196,156.641 282.309 C 155.528 282.600,155.635 281.577,156.871 280.108 C 157.989 278.779,159.722 278.523,162.069 279.341 M191.797 279.688 C 191.797 280.353,191.536 280.469,190.039 280.469 L 188.281 280.469 188.281 284.180 C 188.281 287.878,188.278 287.891,187.305 287.891 C 186.332 287.891,186.328 287.878,186.328 284.180 L 186.328 280.469 184.398 280.469 C 182.499 280.469,181.752 280.066,182.227 279.297 C 182.753 278.445,191.797 278.815,191.797 279.688 M209.418 280.762 C 209.907 281.567,210.682 282.585,211.140 283.024 L 211.973 283.821 213.433 281.559 C 215.805 277.882,216.406 278.293,216.406 283.594 C 216.406 287.602,216.355 287.891,215.640 287.891 C 214.946 287.891,214.864 287.569,214.761 284.473 L 214.648 281.055 213.929 283.300 C 213.106 285.868,212.604 286.361,211.855 285.337 C 211.345 284.639,211.310 284.640,210.755 285.375 C 210.211 286.094,210.180 286.069,210.169 284.907 C 210.162 284.232,209.811 283.265,209.388 282.758 L 208.620 281.836 208.607 284.863 C 208.595 287.626,208.525 287.891,207.813 287.891 C 207.079 287.891,207.031 287.630,207.031 283.594 C 207.031 278.663,207.679 277.894,209.418 280.762 M228.076 281.452 C 228.586 282.630,229.241 283.594,229.533 283.594 C 229.825 283.594,230.154 284.033,230.266 284.570 C 230.378 285.107,230.560 285.986,230.672 286.523 C 230.868 287.468,230.807 287.500,228.816 287.488 C 226.921 287.476,226.818 287.430,227.516 286.902 C 227.933 286.586,228.423 286.328,228.604 286.328 C 228.785 286.328,228.746 285.977,228.516 285.547 C 228.154 284.872,227.698 284.766,225.150 284.766 L 222.203 284.766 221.589 286.328 C 221.251 287.188,220.716 287.891,220.400 287.891 C 219.580 287.891,219.979 286.247,221.722 282.433 L 223.156 279.297 225.152 279.304 L 227.148 279.310 228.076 281.452 M241.414 279.887 C 243.424 280.926,243.900 282.662,242.546 284.016 C 241.697 284.866,242.073 285.826,243.652 286.836 C 244.486 287.369,244.191 287.891,243.056 287.891 C 241.706 287.891,240.298 286.936,239.829 285.703 C 239.200 284.048,237.891 284.470,237.891 286.328 C 237.891 287.630,237.760 287.891,237.109 287.891 C 236.375 287.891,236.328 287.630,236.328 283.594 L 236.328 279.297 238.301 279.297 C 239.386 279.297,240.787 279.562,241.414 279.887 M133.418 281.602 C 132.567 283.249,132.866 283.984,134.389 283.984 C 135.697 283.984,135.727 283.529,134.570 281.274 L 134.081 280.321 133.418 281.602 M267.188 284.180 C 267.188 287.878,267.184 287.891,266.211 287.891 C 265.238 287.891,265.234 287.878,265.234 284.180 C 265.234 280.482,265.238 280.469,266.211 280.469 C 267.184 280.469,267.188 280.482,267.188 284.180 M237.962 281.934 C 238.121 283.314,241.474 283.616,241.732 282.273 C 241.917 281.313,241.167 280.873,239.330 280.865 C 237.932 280.860,237.847 280.927,237.962 281.934 M103.733 282.118 C 101.909 284.722,104.825 287.753,107.031 285.547 C 108.033 284.545,108.027 283.190,107.016 282.105 C 105.989 281.003,104.510 281.009,103.733 282.118 M223.828 282.813 C 223.828 283.481,224.089 283.594,225.628 283.594 C 227.108 283.594,227.385 283.484,227.190 282.976 C 227.060 282.636,226.953 282.284,226.953 282.195 C 226.953 282.105,226.250 282.031,225.391 282.031 C 224.089 282.031,223.828 282.161,223.828 282.813 M367.773 282.813 C 367.773 283.328,363.421 283.410,331.348 283.498 C 299.268 283.586,294.922 283.528,294.922 283.015 C 294.922 282.351,303.968 282.208,345.117 282.220 C 364.993 282.226,367.773 282.298,367.773 282.813 M95.313 283.364 C 95.313 284.197,93.581 284.240,56.738 284.321 C 23.138 284.395,23.047 284.393,23.047 283.604 C 23.047 282.815,23.152 282.813,59.180 282.813 C 90.027 282.813,95.313 282.893,95.313 283.364 M164.844 287.500 C 164.844 287.715,164.492 287.891,164.063 287.891 C 163.633 287.891,163.281 287.715,163.281 287.500 C 163.281 287.285,163.633 287.109,164.063 287.109 C 164.492 287.109,164.844 287.285,164.844 287.500 " stroke="none" fill="none" fill-rule="evenodd"></path><path id="path2" d="M206.343 120.215 L 206.445 135.352 229.980 135.452 L 253.516 135.553 253.516 128.195 L 253.516 120.836 250.879 120.228 C 249.429 119.893,245.957 118.804,243.164 117.808 C 240.371 116.812,237.031 115.669,235.742 115.268 C 234.453 114.867,231.641 113.892,229.492 113.102 C 218.585 109.090,207.166 105.078,206.653 105.078 C 206.369 105.078,206.273 109.785,206.343 120.215 M142.969 128.320 L 142.969 137.109 168.457 137.015 L 193.945 136.920 168.652 136.816 L 143.359 136.713 143.359 128.350 C 143.359 122.025,143.478 119.939,143.848 119.790 C 144.139 119.672,144.061 119.581,143.652 119.562 C 143.021 119.534,142.969 120.198,142.969 128.320 M254.688 132.419 L 254.688 136.713 229.785 136.816 L 204.883 136.920 229.980 137.015 L 255.078 137.109 255.078 132.617 C 255.078 130.146,254.990 128.125,254.883 128.125 C 254.775 128.125,254.688 130.057,254.688 132.419 M229.779 151.074 L 254.675 151.178 254.785 161.624 L 254.896 172.070 254.987 161.426 L 255.078 150.781 229.980 150.876 L 204.883 150.971 229.779 151.074 M143.140 161.523 C 143.140 167.324,143.194 169.752,143.261 166.918 C 143.327 164.084,143.327 159.338,143.261 156.371 C 143.194 153.404,143.140 155.723,143.140 161.523 M193.932 172.461 C 193.932 184.063,193.982 188.752,194.043 182.883 C 194.104 177.013,194.103 167.521,194.043 161.789 C 193.982 156.057,193.932 160.859,193.932 172.461 M144.922 161.758 L 144.922 171.172 159.473 171.086 C 167.476 171.039,174.295 171.022,174.626 171.047 C 175.167 171.089,175.214 176.058,175.076 219.336 L 174.922 267.578 183.748 267.578 L 192.574 267.578 192.576 209.961 L 192.577 152.344 168.750 152.344 L 144.922 152.344 144.922 161.758 M225.487 220.599 L 225.391 269.128 215.137 269.239 L 204.883 269.349 215.149 269.440 C 223.070 269.510,225.458 269.420,225.601 269.043 C 225.703 268.774,225.741 246.846,225.685 220.313 L 225.583 172.070 225.487 220.599 M25.293 247.939 C 25.991 248.025,27.134 248.025,27.832 247.939 C 28.530 247.852,27.959 247.781,26.563 247.781 C 25.166 247.781,24.595 247.852,25.293 247.939 M52.461 247.947 C 54.351 248.019,57.339 248.019,59.101 247.947 C 60.863 247.874,59.316 247.816,55.664 247.816 C 52.012 247.817,50.570 247.876,52.461 247.947 M111.106 248.172 C 110.997 248.456,110.965 250.434,111.036 252.567 L 111.165 256.445 111.246 252.272 L 111.328 248.099 112.402 247.936 L 113.477 247.773 112.390 247.715 C 111.793 247.683,111.214 247.888,111.106 248.172 M134.453 247.947 L 138.241 248.075 138.384 250.112 L 138.527 252.148 138.600 249.902 L 138.672 247.656 134.668 247.738 L 130.664 247.820 134.453 247.947 M146.966 258.496 L 146.875 269.531 149.902 269.454 L 152.930 269.376 150.104 269.241 L 147.278 269.107 147.168 258.284 L 147.057 247.461 146.966 258.496 M263.574 247.949 L 271.094 248.064 271.094 249.792 L 271.094 251.520 269.238 251.666 L 267.383 251.812 269.434 251.883 L 271.484 251.953 271.484 249.805 L 271.484 247.656 263.770 247.745 L 256.055 247.834 263.574 247.949 M284.766 247.874 C 286.217 248.190,288.209 248.246,288.035 247.965 C 287.930 247.795,287.020 247.677,286.012 247.702 C 285.004 247.726,284.443 247.804,284.766 247.874 M304.858 248.166 C 304.750 248.447,304.718 250.864,304.786 253.537 L 304.909 258.398 304.994 253.239 L 305.078 248.080 308.105 247.947 L 311.133 247.813 308.093 247.735 C 305.894 247.678,304.999 247.797,304.858 248.166 M355.235 248.201 C 355.120 248.501,355.096 249.424,355.182 250.252 C 355.330 251.689,355.340 251.673,355.403 249.911 L 355.469 248.063 363.184 247.949 L 370.898 247.834 363.171 247.745 C 356.862 247.673,355.406 247.756,355.235 248.201 M102.488 251.953 C 102.488 254.209,102.553 255.132,102.632 254.004 C 102.711 252.876,102.711 251.030,102.632 249.902 C 102.553 248.774,102.488 249.697,102.488 251.953 M245.703 248.950 C 245.703 249.018,246.274 249.589,246.973 250.220 L 248.242 251.367 247.095 250.098 C 246.025 248.914,245.703 248.649,245.703 248.950 M247.046 252.759 C 246.416 253.418,246.163 253.850,246.485 253.719 C 247.010 253.507,248.676 251.563,248.334 251.563 C 248.256 251.563,247.677 252.101,247.046 252.759 M336.494 252.085 C 336.383 252.373,336.347 253.999,336.412 255.699 L 336.531 258.789 336.723 255.175 C 336.913 251.580,336.877 251.087,336.494 252.085 M366.504 251.847 C 367.310 251.931,368.628 251.931,369.434 251.847 C 370.239 251.763,369.580 251.694,367.969 251.694 C 366.357 251.694,365.698 251.763,366.504 251.847 M81.152 252.229 C 81.636 252.322,82.427 252.322,82.910 252.229 C 83.394 252.136,82.998 252.060,82.031 252.060 C 81.064 252.060,80.669 252.136,81.152 252.229 M152.246 252.229 C 152.729 252.322,153.521 252.322,154.004 252.229 C 154.487 252.136,154.092 252.060,153.125 252.060 C 152.158 252.060,151.763 252.136,152.246 252.229 M360.700 257.031 C 360.700 259.932,360.761 261.118,360.837 259.668 C 360.912 258.218,360.912 255.845,360.837 254.395 C 360.761 252.944,360.700 254.131,360.700 257.031 M130.199 254.492 C 130.201 255.781,130.274 256.262,130.361 255.559 C 130.448 254.857,130.446 253.803,130.357 253.216 C 130.268 252.629,130.197 253.203,130.199 254.492 M125.480 261.230 L 125.391 269.531 132.129 269.444 L 138.867 269.356 132.332 269.239 L 125.797 269.122 125.683 261.026 L 125.569 252.930 125.480 261.230 M347.364 254.492 C 347.368 255.352,347.448 255.657,347.542 255.171 C 347.635 254.685,347.632 253.982,347.534 253.609 C 347.436 253.235,347.360 253.633,347.364 254.492 M261.492 261.523 C 261.492 265.820,261.549 267.631,261.619 265.548 C 261.689 263.465,261.689 259.949,261.620 257.736 C 261.550 255.522,261.493 257.227,261.492 261.523 M54.972 260.829 C 55.665 260.915,56.896 260.917,57.706 260.832 C 58.517 260.747,57.949 260.677,56.445 260.675 C 54.941 260.673,54.278 260.743,54.972 260.829 M130.237 261.088 C 130.122 261.386,130.097 262.397,130.181 263.334 C 130.332 265.032,130.333 265.030,130.401 263.003 L 130.469 260.967 134.082 260.838 L 137.695 260.709 134.070 260.628 C 131.284 260.566,130.396 260.672,130.237 261.088 M284.083 260.938 C 284.258 261.584,288.528 262.018,289.101 261.447 C 289.275 261.274,288.347 261.194,287.040 261.268 C 285.365 261.363,284.554 261.247,284.294 260.877 C 283.998 260.455,283.956 260.467,284.083 260.938 M29.791 261.218 C 30.384 261.308,31.263 261.305,31.744 261.212 C 32.224 261.120,31.738 261.046,30.664 261.049 C 29.590 261.052,29.197 261.128,29.791 261.218 M240.332 261.597 C 240.708 261.696,241.323 261.696,241.699 261.597 C 242.075 261.499,241.768 261.419,241.016 261.419 C 240.264 261.419,239.956 261.499,240.332 261.597 M248.940 263.086 C 248.943 264.160,249.019 264.553,249.108 263.959 C 249.198 263.366,249.196 262.487,249.103 262.006 C 249.010 261.526,248.937 262.012,248.940 263.086 M336.589 261.979 C 336.445 262.122,336.328 263.784,336.328 265.671 L 336.328 269.102 334.082 269.243 L 331.836 269.384 334.277 269.457 L 336.719 269.531 336.719 265.846 L 336.719 262.161 337.793 261.999 L 338.867 261.836 337.858 261.777 C 337.303 261.745,336.732 261.836,336.589 261.979 M29.297 263.281 C 29.297 263.496,30.161 263.672,31.218 263.672 C 32.275 263.672,33.373 263.731,33.659 263.803 C 33.946 263.875,34.028 263.854,33.843 263.756 C 33.657 263.658,33.745 263.425,34.038 263.240 C 34.368 263.031,33.567 262.900,31.934 262.897 C 30.432 262.893,29.297 263.059,29.297 263.281 M319.318 265.723 L 317.773 267.383 319.434 265.839 C 320.978 264.403,321.273 264.063,320.978 264.063 C 320.914 264.063,320.167 264.810,319.318 265.723 M55.957 265.132 C 57.192 265.210,59.214 265.210,60.449 265.132 C 61.685 265.055,60.674 264.991,58.203 264.991 C 55.732 264.991,54.722 265.055,55.957 265.132 M81.348 265.113 C 81.724 265.211,82.339 265.211,82.715 265.113 C 83.091 265.015,82.783 264.934,82.031 264.934 C 81.279 264.934,80.972 265.015,81.348 265.113 M287.207 265.113 C 287.583 265.211,288.198 265.211,288.574 265.113 C 288.950 265.015,288.643 264.934,287.891 264.934 C 287.139 264.934,286.831 265.015,287.207 265.113 M30.181 265.515 C 30.775 265.604,31.654 265.602,32.134 265.509 C 32.615 265.417,32.129 265.343,31.055 265.346 C 29.980 265.349,29.587 265.425,30.181 265.515 M360.600 268.457 C 360.548 269.518,360.574 269.530,362.793 269.459 L 365.039 269.387 363.013 269.244 C 361.293 269.123,360.962 268.972,360.820 268.242 C 360.682 267.529,360.644 267.566,360.600 268.457 M26.660 269.430 C 28.110 269.505,30.483 269.505,31.934 269.430 C 33.384 269.355,32.197 269.294,29.297 269.294 C 26.396 269.294,25.210 269.355,26.660 269.430 M52.441 269.431 C 54.321 269.503,57.397 269.503,59.277 269.431 C 61.157 269.360,59.619 269.301,55.859 269.301 C 52.100 269.301,50.562 269.360,52.441 269.431 M99.519 269.424 C 100.221 269.511,101.275 269.509,101.862 269.420 C 102.449 269.331,101.875 269.259,100.586 269.262 C 99.297 269.264,98.817 269.337,99.519 269.424 M112.019 269.424 C 112.721 269.511,113.775 269.509,114.362 269.420 C 114.949 269.331,114.375 269.259,113.086 269.262 C 111.797 269.264,111.317 269.337,112.019 269.424 M178.418 269.433 C 181.265 269.499,185.923 269.499,188.770 269.433 C 191.616 269.366,189.287 269.311,183.594 269.311 C 177.900 269.311,175.571 269.366,178.418 269.433 M175.659 278.768 C 175.511 278.916,175.391 279.788,175.391 280.707 L 175.391 282.377 173.730 282.540 L 172.070 282.703 173.828 282.660 L 175.586 282.617 175.705 280.762 C 175.862 278.319,176.481 278.383,176.674 280.862 L 176.826 282.817 176.792 280.795 C 176.760 278.924,176.310 278.118,175.659 278.768 M252.637 278.800 C 256.254 278.921,258.551 279.688,255.296 279.688 C 254.557 279.688,253.871 279.819,253.771 279.980 C 253.672 280.142,254.374 280.211,255.331 280.135 C 256.695 280.026,257.046 279.857,256.950 279.354 C 256.845 278.808,256.211 278.708,252.730 278.688 L 248.633 278.666 252.637 278.800 M283.691 278.802 C 284.650 279.018,284.051 279.138,281.250 279.290 C 277.863 279.475,276.007 280.289,278.037 280.700 C 278.311 280.755,278.355 280.711,278.135 280.602 C 276.949 280.014,278.144 279.688,281.478 279.688 C 285.151 279.688,286.827 278.863,283.661 278.613 L 282.422 278.516 283.691 278.802 M144.380 279.226 C 144.271 279.402,144.700 279.470,145.333 279.377 C 145.966 279.284,146.484 279.140,146.484 279.057 C 146.484 278.760,144.573 278.913,144.380 279.226 M182.227 279.297 C 181.752 280.064,182.497 280.469,184.384 280.469 L 186.300 280.469 186.434 284.181 L 186.568 287.892 186.546 284.083 L 186.523 280.273 184.473 280.155 C 182.463 280.040,181.751 279.529,183.105 279.176 C 183.722 279.014,183.724 278.992,183.129 278.952 C 182.765 278.927,182.359 279.082,182.227 279.297 M191.406 279.470 C 191.406 279.853,190.876 280.072,189.746 280.153 L 188.086 280.273 188.060 283.008 L 188.035 285.742 188.175 283.105 L 188.315 280.469 190.056 280.469 C 191.536 280.469,191.797 280.352,191.797 279.688 C 191.797 279.258,191.709 278.906,191.602 278.906 C 191.494 278.906,191.406 279.160,191.406 279.470 M107.031 279.419 C 107.031 279.486,107.603 280.058,108.301 280.689 L 109.570 281.836 108.423 280.566 C 107.354 279.383,107.031 279.117,107.031 279.419 M214.671 279.651 C 214.551 279.846,214.816 279.910,215.260 279.794 C 216.045 279.589,216.064 279.701,215.944 283.737 C 215.876 286.023,215.952 287.892,216.113 287.891 C 216.274 287.891,216.406 285.957,216.406 283.594 C 216.406 279.377,215.755 277.897,214.671 279.651 M223.931 279.577 C 224.525 279.667,225.404 279.665,225.884 279.572 C 226.365 279.479,225.879 279.406,224.805 279.409 C 223.730 279.412,223.337 279.487,223.931 279.577 M265.332 279.957 C 265.708 280.055,266.323 280.055,266.699 279.957 C 267.075 279.859,266.768 279.778,266.016 279.778 C 265.264 279.778,264.956 279.859,265.332 279.957 M146.777 280.354 C 147.261 280.447,148.052 280.447,148.535 280.354 C 149.019 280.261,148.623 280.185,147.656 280.185 C 146.689 280.185,146.294 280.261,146.777 280.354 M157.390 281.295 L 156.523 282.512 157.397 282.045 C 157.877 281.788,158.169 281.476,158.045 281.352 C 157.921 281.228,158.015 280.891,158.254 280.602 C 158.494 280.314,158.592 280.078,158.473 280.078 C 158.354 280.078,157.866 280.626,157.390 281.295 M224.609 280.859 C 224.609 281.074,224.961 281.250,225.391 281.250 C 225.820 281.250,226.172 281.074,226.172 280.859 C 226.172 280.645,225.820 280.469,225.391 280.469 C 224.961 280.469,224.609 280.645,224.609 280.859 M238.579 280.745 C 239.065 280.838,239.768 280.835,240.141 280.737 C 240.515 280.639,240.117 280.563,239.258 280.567 C 238.398 280.572,238.093 280.652,238.579 280.745 M143.841 282.031 C 143.841 282.783,143.921 283.091,144.019 282.715 C 144.118 282.339,144.118 281.724,144.019 281.348 C 143.921 280.972,143.841 281.279,143.841 282.031 M103.342 282.118 C 103.008 282.596,102.752 283.431,102.774 283.974 C 102.809 284.831,102.854 284.794,103.115 283.694 C 103.281 282.997,103.636 282.162,103.904 281.838 C 104.173 281.515,104.293 281.250,104.172 281.250 C 104.050 281.250,103.677 281.641,103.342 282.118 M224.707 281.910 C 225.083 282.008,225.698 282.008,226.074 281.910 C 226.450 281.812,226.143 281.731,225.391 281.731 C 224.639 281.731,224.331 281.812,224.707 281.910 M283.046 282.576 C 283.227 283.047,282.823 283.190,280.991 283.304 L 278.711 283.446 281.152 283.520 C 283.505 283.591,284.450 282.997,283.208 282.229 C 282.989 282.094,282.919 282.245,283.046 282.576 M344.705 282.323 C 362.190 282.404,367.419 282.539,367.684 282.913 C 367.937 283.270,367.986 283.243,367.868 282.813 C 367.729 282.300,364.839 282.226,344.889 282.222 L 322.070 282.217 344.705 282.323 M100.880 283.789 C 100.884 284.648,100.964 284.954,101.058 284.468 C 101.151 283.982,101.147 283.279,101.050 282.906 C 100.952 282.532,100.875 282.930,100.880 283.789 M172.941 283.485 C 173.634 283.571,174.864 283.573,175.675 283.488 C 176.485 283.404,175.918 283.333,174.414 283.331 C 172.910 283.330,172.247 283.399,172.941 283.485 M265.359 285.547 C 265.359 286.943,265.430 287.515,265.517 286.816 C 265.604 286.118,265.604 284.976,265.517 284.277 C 265.430 283.579,265.359 284.150,265.359 285.547 M134.570 283.984 L 133.398 284.283 134.668 284.329 C 135.366 284.354,135.938 284.199,135.938 283.984 C 135.938 283.770,135.894 283.615,135.840 283.640 C 135.786 283.665,135.215 283.820,134.570 283.984 M39.580 284.277 C 48.781 284.336,63.722 284.336,72.783 284.277 C 81.844 284.219,74.316 284.171,56.055 284.171 C 37.793 284.171,30.379 284.219,39.580 284.277 M144.879 285.033 C 145.034 285.610,145.374 286.124,145.637 286.176 C 145.899 286.227,145.933 286.180,145.713 286.071 C 145.493 285.962,145.313 285.448,145.313 284.928 C 145.313 284.409,145.152 283.984,144.956 283.984 C 144.759 283.984,144.725 284.456,144.879 285.033 M156.134 284.251 C 156.027 284.427,156.405 284.910,156.974 285.325 L 158.008 286.079 157.231 285.129 C 156.803 284.607,156.425 284.124,156.391 284.056 C 156.356 283.988,156.241 284.076,156.134 284.251 M131.328 285.625 C 130.550 286.403,130.793 286.721,132.129 286.673 L 133.398 286.626 132.227 286.342 L 131.055 286.058 132.031 285.632 C 132.593 285.387,132.750 285.195,132.402 285.181 C 132.069 285.167,131.586 285.367,131.328 285.625 M134.673 285.823 C 135.158 285.917,135.862 285.913,136.235 285.815 C 136.608 285.717,136.211 285.641,135.352 285.645 C 134.492 285.650,134.187 285.730,134.673 285.823 M279.102 285.779 C 280.931 286.073,283.505 286.110,283.338 285.840 C 283.239 285.679,282.069 285.571,280.739 285.600 C 279.409 285.629,278.672 285.710,279.102 285.779 M173.145 286.608 C 173.735 286.697,174.702 286.697,175.293 286.608 C 175.884 286.518,175.400 286.445,174.219 286.445 C 173.037 286.445,172.554 286.518,173.145 286.608 M137.109 287.568 C 137.109 287.745,137.637 287.891,138.281 287.891 C 138.926 287.891,139.453 287.823,139.453 287.740 C 139.453 287.657,138.926 287.511,138.281 287.417 C 137.637 287.322,137.109 287.390,137.109 287.568 M163.281 287.584 C 163.281 287.753,163.633 287.891,164.063 287.891 C 164.492 287.891,164.844 287.753,164.844 287.584 C 164.844 287.415,164.492 287.277,164.063 287.277 C 163.633 287.277,163.281 287.415,163.281 287.584 M170.660 287.614 C 170.831 287.785,172.449 287.871,174.255 287.807 L 177.539 287.689 173.943 287.497 C 171.966 287.391,170.488 287.444,170.660 287.614 M147.173 287.776 C 147.658 287.870,148.362 287.866,148.735 287.768 C 149.108 287.671,148.711 287.594,147.852 287.599 C 146.992 287.603,146.687 287.683,147.173 287.776 M159.282 287.776 C 159.768 287.870,160.471 287.866,160.844 287.768 C 161.218 287.671,160.820 287.594,159.961 287.599 C 159.102 287.603,158.796 287.683,159.282 287.776 M381.250 396.875 L 381.250 400.000 387.500 400.000 L 393.750 400.000 393.750 396.875 L 393.750 393.750 387.500 393.750 L 381.250 393.750 381.250 396.875 " stroke="none" fill="#72a508" fill-rule="evenodd"></path></g></svg>