<svg id="svg" version="1.1" xmlns="http://www.w3.org/2000/svg" xmlns:xlink="http://www.w3.org/1999/xlink" width="400" height="400" viewBox="0, 0, 400,400"><g id="svgg"><path id="path0" d="M290.625 88.107 C 286.148 88.926,285.599 89.014,282.031 89.484 C 280.205 89.724,277.393 90.174,275.781 90.483 C 269.296 91.729,266.313 92.233,259.961 93.158 C 256.309 93.689,251.563 94.398,249.414 94.733 C 247.266 95.068,242.806 95.690,239.504 96.114 C 236.202 96.539,233.363 96.971,233.195 97.075 C 232.635 97.421,226.852 98.437,217.578 99.818 C 212.529 100.570,205.410 101.696,201.758 102.319 C 198.105 102.943,193.359 103.660,191.211 103.913 C 189.063 104.165,187.202 104.435,187.077 104.513 C 186.952 104.590,184.139 105.006,180.827 105.437 C 177.515 105.869,172.695 106.588,170.117 107.036 C 167.539 107.483,162.705 108.272,159.375 108.789 C 156.045 109.305,151.826 110.003,150.000 110.339 C 148.174 110.675,144.834 111.219,142.578 111.547 C 140.322 111.876,136.895 112.400,134.961 112.712 C 133.027 113.024,130.098 113.392,128.450 113.530 C 123.742 113.924,123.752 114.019,129.708 125.781 C 131.176 128.682,133.370 133.140,134.583 135.689 L 136.789 140.323 138.414 140.089 C 144.863 139.158,148.437 138.449,148.434 138.102 C 148.432 137.878,147.447 135.674,146.245 133.203 C 143.392 127.339,142.036 123.773,142.541 123.461 C 142.757 123.327,146.238 122.720,150.276 122.112 C 154.314 121.504,160.254 120.576,163.477 120.048 C 166.699 119.521,172.061 118.671,175.391 118.160 C 188.398 116.163,189.699 115.953,191.211 115.609 C 192.070 115.413,193.169 115.249,193.652 115.244 L 194.531 115.234 194.537 169.043 C 194.540 198.638,194.648 223.249,194.779 223.735 L 195.015 224.618 210.301 224.516 L 225.586 224.414 225.586 181.952 L 225.586 139.491 228.125 139.078 C 231.446 138.537,240.670 137.265,245.117 136.733 C 251.358 135.988,261.740 134.460,268.750 133.256 C 272.510 132.611,277.168 131.876,279.102 131.623 C 283.709 131.020,283.543 131.163,284.984 126.605 L 286.233 122.656 284.936 122.656 C 284.223 122.656,277.432 123.538,269.847 124.615 C 262.261 125.692,253.418 126.922,250.195 127.348 C 246.973 127.774,243.984 128.189,243.555 128.270 C 243.125 128.351,241.719 128.537,240.430 128.684 C 239.141 128.830,233.660 129.644,228.250 130.491 C 222.840 131.338,218.314 132.031,218.191 132.031 C 218.069 132.031,217.969 151.455,217.969 175.195 L 217.969 218.359 210.938 218.359 L 203.906 218.359 203.881 168.848 C 203.868 141.616,203.848 118.545,203.838 117.578 C 203.797 113.577,203.719 113.744,205.762 113.481 C 208.600 113.116,219.689 111.276,219.923 111.132 C 220.037 111.062,221.445 110.815,223.053 110.583 C 226.788 110.045,239.367 108.052,243.945 107.274 C 249.304 106.362,249.694 106.304,257.227 105.279 C 267.618 103.866,274.302 102.857,278.906 102.008 C 281.162 101.592,284.678 101.033,286.719 100.766 C 290.941 100.213,291.196 100.080,291.823 98.113 C 292.074 97.325,292.515 96.152,292.804 95.508 C 293.390 94.196,294.922 88.764,294.922 87.996 C 294.922 87.399,294.421 87.412,290.625 88.107 M180.664 138.684 C 178.301 139.082,174.521 139.670,172.266 139.990 C 167.475 140.670,152.845 143.081,148.047 143.981 C 146.221 144.323,143.584 144.816,142.188 145.075 C 139.908 145.498,139.658 145.636,139.744 146.421 C 139.868 147.551,142.922 153.125,143.418 153.125 C 143.626 153.125,148.840 152.324,155.004 151.345 C 161.168 150.365,168.320 149.309,170.898 148.998 C 175.481 148.444,179.392 147.854,181.152 147.452 L 182.031 147.251 182.031 190.813 L 182.031 234.375 211.328 234.375 L 240.625 234.375 240.625 217.056 C 240.625 207.531,240.741 192.882,240.883 184.503 L 241.140 169.268 245.863 168.793 C 248.461 168.531,253.311 167.990,256.641 167.590 C 259.971 167.190,265.332 166.648,268.555 166.386 C 275.612 165.811,274.747 166.568,276.743 159.212 C 278.392 153.134,278.393 153.125,277.518 153.125 C 277.036 153.125,273.328 153.555,269.278 154.080 C 265.228 154.605,257.871 155.560,252.930 156.201 C 244.099 157.348,236.983 158.126,233.675 158.307 L 231.999 158.398 231.917 193.555 L 231.836 228.711 210.156 228.604 C 198.232 228.545,188.257 228.418,187.988 228.323 C 187.601 228.186,187.500 218.771,187.500 183.020 L 187.500 137.891 186.230 137.925 C 185.532 137.944,183.027 138.286,180.664 138.684 M148.926 156.947 C 146.724 157.008,144.932 157.184,144.945 157.338 C 144.958 157.492,145.355 158.408,145.829 159.375 L 146.690 161.133 158.318 161.236 L 169.945 161.340 169.836 202.154 L 169.727 242.969 208.887 242.969 L 248.047 242.969 248.047 213.477 L 248.047 183.984 245.703 183.984 L 243.359 183.984 243.359 198.926 C 243.358 207.144,243.242 219.272,243.100 225.879 L 242.843 237.891 208.923 237.891 L 175.004 237.891 174.904 197.363 L 174.805 156.836 163.867 156.836 C 157.852 156.836,151.128 156.886,148.926 156.947 M192.893 253.687 C 188.703 255.294,186.785 258.864,188.311 262.213 C 189.058 263.853,193.674 265.724,198.628 266.393 C 202.379 266.900,203.065 267.400,202.355 269.112 C 201.416 271.379,196.906 271.662,192.855 269.708 C 191.673 269.138,190.175 268.750,189.154 268.750 L 187.438 268.750 187.710 270.020 C 188.152 272.077,188.555 272.544,190.799 273.606 C 198.542 277.269,207.670 274.522,207.912 268.457 C 208.067 264.578,206.743 263.605,199.610 262.359 C 193.102 261.221,191.927 260.571,192.983 258.688 C 194.529 255.934,200.436 256.734,202.231 259.940 C 202.939 261.207,204.542 260.418,205.633 258.265 L 206.585 256.387 203.585 254.879 C 200.115 253.135,195.634 252.636,192.893 253.687 M331.641 253.376 C 318.916 255.673,319.557 273.729,332.406 274.895 C 340.859 275.661,346.545 268.940,344.534 260.558 C 343.465 256.104,336.872 252.431,331.641 253.376 M51.172 263.960 L 51.172 274.522 57.910 274.451 C 65.330 274.373,66.185 274.155,68.118 271.859 C 70.255 269.319,69.680 264.437,67.166 263.779 C 66.482 263.600,66.489 263.528,67.304 262.425 C 68.555 260.731,68.485 257.438,67.167 256.027 C 65.370 254.104,64.400 253.861,57.578 253.622 L 51.172 253.398 51.172 263.960 M99.512 253.807 L 95.313 253.933 95.313 264.271 L 95.313 274.609 100.142 274.609 C 110.447 274.609,114.860 271.584,114.951 264.460 C 115.020 259.041,109.316 253.104,104.516 253.599 C 104.073 253.644,101.821 253.738,99.512 253.807 M74.479 254.167 C 74.336 254.310,74.219 258.880,74.219 264.323 L 74.219 274.219 81.445 274.262 C 85.420 274.286,89.023 274.306,89.453 274.306 C 91.287 274.306,91.315 274.274,91.262 272.267 L 91.211 270.316 84.863 270.314 L 78.516 270.313 78.516 268.164 L 78.516 266.016 83.203 266.016 L 87.891 266.016 87.891 264.258 L 87.891 262.500 83.203 262.500 L 78.516 262.500 78.516 260.156 L 78.516 257.813 84.132 257.813 C 90.371 257.813,90.648 257.708,90.900 255.248 L 91.038 253.906 82.889 253.906 C 78.407 253.906,74.622 254.023,74.479 254.167 M120.137 254.395 C 120.054 254.663,119.893 259.233,119.780 264.551 L 119.573 274.219 128.146 274.219 L 136.719 274.219 136.719 272.275 L 136.719 270.332 130.371 270.225 L 124.023 270.117 123.906 268.078 L 123.788 266.039 128.789 265.930 L 133.789 265.820 133.910 264.355 L 134.032 262.891 129.125 262.891 L 124.219 262.891 124.219 260.362 L 124.219 257.833 130.176 257.725 L 136.133 257.617 136.252 255.762 L 136.371 253.906 128.329 253.906 C 122.237 253.906,120.251 254.025,120.137 254.395 M141.699 254.129 C 141.538 254.293,141.406 258.880,141.406 264.323 L 141.406 274.219 147.318 274.219 C 154.648 274.219,155.740 273.918,158.610 271.107 C 163.998 265.828,162.219 258.338,154.779 254.974 C 152.858 254.105,142.386 253.429,141.699 254.129 M167.188 264.277 L 167.188 274.648 169.434 274.531 L 171.680 274.414 171.791 270.410 L 171.902 266.406 177.162 266.406 L 182.422 266.406 182.422 264.844 L 182.422 263.281 177.148 263.281 L 171.875 263.281 171.875 260.547 L 171.875 257.813 177.539 257.813 L 183.203 257.813 183.203 255.859 L 183.203 253.906 175.195 253.906 L 167.188 253.906 167.188 264.277 M211.514 255.364 C 211.897 257.418,212.368 257.837,214.215 257.771 C 215.098 257.740,216.304 257.737,216.895 257.763 L 217.969 257.813 217.969 266.230 L 217.969 274.648 220.215 274.531 L 222.461 274.414 222.566 265.918 L 222.671 257.422 226.007 257.422 L 229.342 257.422 229.222 255.762 L 229.102 254.102 220.170 253.996 L 211.238 253.891 211.514 255.364 M233.328 254.535 C 233.195 254.881,233.199 258.264,233.336 262.054 C 233.473 265.844,233.587 270.220,233.590 271.777 L 233.594 274.609 235.742 274.609 L 237.891 274.609 237.891 271.289 L 237.891 267.969 240.741 267.969 C 243.937 267.969,244.815 268.579,247.619 272.754 L 248.866 274.609 251.629 274.609 C 254.807 274.609,254.897 275.171,250.883 269.997 L 248.447 266.855 249.712 266.072 C 254.194 263.296,253.251 256.381,248.096 254.227 C 246.602 253.602,233.582 253.874,233.328 254.535 M265.683 257.520 C 263.461 261.637,257.813 273.621,257.813 274.215 C 257.813 275.292,262.867 274.646,263.134 273.535 C 263.276 272.944,263.725 271.796,264.132 270.983 L 264.873 269.506 269.250 269.616 L 273.627 269.727 274.482 271.875 L 275.336 274.023 277.934 274.140 C 281.207 274.286,281.720 276.013,273.285 258.496 L 271.074 253.906 269.353 253.906 L 267.631 253.906 265.683 257.520 M281.641 255.859 L 281.641 257.813 285.156 257.813 L 288.672 257.813 288.672 266.016 L 288.672 274.219 290.820 274.219 L 292.969 274.219 292.969 266.032 L 292.969 257.845 295.996 257.731 L 299.023 257.617 299.142 255.762 L 299.262 253.906 290.451 253.906 L 281.641 253.906 281.641 255.859 M301.248 255.762 L 301.367 257.617 304.199 257.732 C 305.757 257.795,307.056 257.971,307.085 258.123 C 307.149 258.445,307.365 267.751,307.399 271.582 L 307.422 274.219 309.766 274.219 L 312.109 274.219 312.109 266.016 L 312.109 257.813 315.234 257.813 L 318.359 257.813 318.359 255.859 L 318.359 253.906 309.744 253.906 L 301.129 253.906 301.248 255.762 M350.482 264.160 L 350.586 274.414 352.539 274.414 L 354.492 274.414 354.605 270.996 L 354.718 267.578 357.632 267.578 L 360.545 267.578 361.711 269.434 C 362.352 270.454,363.187 272.053,363.567 272.987 L 364.258 274.686 366.584 274.450 C 369.803 274.123,369.849 273.948,367.604 270.510 C 365.298 266.977,365.269 266.816,366.737 265.731 C 370.164 263.198,369.794 257.320,366.050 254.797 C 364.793 253.950,364.375 253.906,357.553 253.906 L 350.378 253.906 350.482 264.160 M61.262 257.783 C 63.211 258.159,63.521 258.403,63.873 259.829 C 64.351 261.762,63.054 262.500,59.180 262.500 L 55.859 262.500 55.859 259.961 L 55.859 257.422 57.715 257.439 C 58.735 257.448,60.332 257.603,61.262 257.783 M337.285 258.624 C 339.710 260.265,340.972 264.240,339.796 266.530 C 336.451 273.041,327.344 271.527,327.344 264.460 C 327.344 258.724,332.747 255.552,337.285 258.624 M105.107 258.209 C 108.675 258.885,110.436 261.409,110.061 265.309 C 109.710 268.960,107.836 270.251,102.832 270.290 L 100.000 270.313 100.000 264.063 L 100.000 257.813 101.509 257.813 C 102.339 257.813,103.958 257.991,105.107 258.209 M154.218 259.130 C 156.310 260.451,157.031 261.897,157.031 264.772 C 157.031 268.682,154.295 270.495,148.783 270.235 L 146.289 270.117 146.181 263.909 L 146.073 257.701 149.336 257.905 C 151.960 258.068,152.917 258.308,154.218 259.130 M246.639 258.356 C 248.118 258.974,248.654 260.316,248.055 261.894 C 247.516 263.309,246.235 263.672,241.771 263.672 L 237.891 263.672 237.891 260.742 L 237.891 257.813 241.614 257.813 C 243.912 257.813,245.836 258.021,246.639 258.356 M363.642 258.824 C 366.609 261.321,364.483 263.281,358.807 263.281 L 354.688 263.281 354.688 260.547 L 354.688 257.813 358.564 257.813 C 362.164 257.813,362.526 257.885,363.642 258.824 M270.547 262.510 L 271.759 265.625 269.245 265.625 C 267.388 265.625,266.784 265.497,266.932 265.137 C 267.042 264.868,267.530 263.462,268.018 262.012 C 269.117 258.741,269.078 258.734,270.547 262.510 M125.442 260.290 C 124.954 260.878,125.235 261.328,126.089 261.328 C 126.521 261.328,126.553 261.202,126.223 260.804 C 125.984 260.516,125.904 260.164,126.045 260.023 C 126.186 259.881,126.206 259.766,126.089 259.766 C 125.973 259.766,125.681 260.002,125.442 260.290 M63.071 266.010 C 66.816 267.434,64.070 270.313,58.966 270.313 L 55.859 270.313 55.859 267.969 L 55.859 265.625 58.959 265.625 C 60.664 265.625,62.514 265.798,63.071 266.010 M393.750 396.875 L 393.750 400.000 396.875 400.000 L 400.000 400.000 400.000 396.875 L 400.000 393.750 396.875 393.750 L 393.750 393.750 393.750 396.875 " stroke="none" fill="#000000" fill-rule="evenodd"></path></g></svg>