<svg id="svg" version="1.1" xmlns="http://www.w3.org/2000/svg" xmlns:xlink="http://www.w3.org/1999/xlink" width="400" height="400" viewBox="0, 0, 400,400"><g id="svgg"><path id="path0" d="M137.936 106.348 C 137.970 107.012,138.025 107.059,138.160 106.541 C 138.322 105.920,138.418 105.911,139.178 106.443 C 139.640 106.767,140.198 107.031,140.419 107.030 C 140.640 107.029,140.245 106.677,139.541 106.249 C 137.940 105.272,137.881 105.276,137.936 106.348 M129.688 109.122 C 120.296 114.755,114.801 117.970,114.552 117.977 C 114.390 117.982,113.043 118.773,111.557 119.735 C 110.072 120.697,108.712 121.484,108.534 121.484 C 108.357 121.484,106.625 122.471,104.685 123.677 L 101.157 125.869 101.262 134.487 L 101.367 143.106 107.813 144.221 C 124.562 147.120,130.196 148.047,131.077 148.047 L 132.031 148.047 132.031 127.930 C 132.031 116.865,131.987 107.817,131.934 107.823 C 131.880 107.829,130.869 108.413,129.688 109.122 M148.633 112.420 C 152.023 114.555,154.688 116.075,154.688 115.875 C 154.688 115.655,146.905 110.936,146.551 110.941 C 146.407 110.943,147.344 111.609,148.633 112.420 M155.859 116.763 C 156.970 117.690,159.375 119.193,159.375 118.960 C 159.375 118.797,156.473 116.791,155.469 116.258 C 155.146 116.088,155.322 116.315,155.859 116.763 M138.063 128.516 C 138.063 134.639,138.117 137.144,138.183 134.082 C 138.249 131.021,138.249 126.011,138.183 122.949 C 138.117 119.888,138.063 122.393,138.063 128.516 M160.592 119.850 C 161.104 120.240,162.183 120.957,162.988 121.444 L 164.453 122.329 164.453 131.081 L 164.453 139.833 151.172 139.944 L 137.890 140.055 151.269 140.047 L 164.648 140.039 164.753 131.170 L 164.858 122.301 162.480 120.721 C 160.034 119.096,158.937 118.590,160.592 119.850 M212.891 144.949 C 208.486 145.337,200.485 145.925,195.109 146.256 C 189.733 146.588,184.811 146.948,184.171 147.057 C 183.059 147.247,175.575 147.687,150.586 149.030 C 144.355 149.365,139.038 149.715,138.770 149.807 C 138.390 149.938,138.281 153.379,138.281 165.240 L 138.281 180.504 139.551 180.294 C 140.249 180.179,143.105 179.819,145.898 179.495 C 148.691 179.171,152.207 178.727,153.711 178.509 C 155.215 178.290,158.994 177.852,162.109 177.535 C 170.038 176.727,177.485 175.834,195.117 173.576 C 200.918 172.834,207.861 171.960,210.547 171.636 C 217.296 170.820,217.680 170.701,218.000 169.316 C 218.147 168.683,218.908 164.561,219.691 160.156 C 220.475 155.752,221.462 150.477,221.886 148.433 C 222.310 146.390,222.656 144.589,222.656 144.430 C 222.656 144.082,222.885 144.070,212.891 144.949 M68.555 144.922 C 68.984 145.107,69.688 145.252,70.117 145.246 C 70.745 145.237,70.707 145.173,69.922 144.922 C 68.586 144.494,67.559 144.494,68.555 144.922 M84.570 148.438 C 85.000 148.622,85.703 148.768,86.133 148.762 C 86.761 148.753,86.723 148.689,85.938 148.438 C 84.602 148.010,83.575 148.010,84.570 148.438 M98.047 151.172 C 98.584 151.344,99.375 151.485,99.805 151.485 C 100.423 151.485,100.383 151.420,99.609 151.172 C 99.072 151.000,98.281 150.859,97.852 150.859 C 97.233 150.859,97.274 150.924,98.047 151.172 M101.758 151.953 C 102.188 152.138,102.891 152.284,103.320 152.277 C 103.948 152.268,103.910 152.205,103.125 151.953 C 101.789 151.525,100.762 151.525,101.758 151.953 M131.543 157.681 C 132.173 157.935,132.259 179.119,131.631 179.430 C 131.411 179.540,131.455 179.584,131.729 179.528 C 132.626 179.347,132.642 157.413,131.744 157.453 C 131.336 157.471,131.254 157.564,131.543 157.681 M253.125 160.955 C 252.697 161.245,252.855 161.281,253.711 161.090 C 255.147 160.768,255.459 160.545,254.460 160.553 C 254.048 160.556,253.447 160.737,253.125 160.955 M291.895 160.827 C 292.485 160.916,293.452 160.916,294.043 160.827 C 294.634 160.737,294.150 160.664,292.969 160.664 C 291.787 160.664,291.304 160.737,291.895 160.827 M259.408 161.083 C 259.810 161.443,262.109 162.500,262.109 162.325 C 262.109 162.100,259.944 160.938,259.525 160.938 C 259.371 160.938,259.318 161.003,259.408 161.083 M289.071 161.373 C 287.868 161.853,286.715 162.872,286.731 163.439 C 286.737 163.675,286.930 163.545,287.158 163.152 C 287.387 162.758,288.305 162.112,289.197 161.715 C 290.879 160.966,290.777 160.692,289.071 161.373 M271.094 162.500 C 271.094 163.857,272.007 164.103,272.643 162.916 C 273.274 161.736,273.127 161.328,272.070 161.328 C 271.246 161.328,271.094 161.510,271.094 162.500 M277.345 162.043 C 277.344 162.433,277.901 162.526,279.564 162.413 C 282.679 162.202,282.814 161.338,279.716 161.443 C 278.046 161.500,277.347 161.677,277.345 162.043 M302.890 161.877 C 302.096 163.945,302.853 165.035,305.168 165.156 L 307.406 165.273 307.512 173.554 L 307.617 181.836 309.766 181.836 L 311.914 181.836 312.019 173.554 L 312.125 165.271 314.558 165.155 L 316.992 165.039 317.111 163.184 L 317.230 161.328 310.165 161.328 C 304.459 161.328,303.060 161.434,302.890 161.877 M316.797 163.263 L 316.797 164.806 314.355 164.923 L 311.914 165.039 311.809 173.340 L 311.703 181.641 309.758 181.641 L 307.813 181.641 307.813 173.242 L 307.813 164.844 305.469 164.844 L 303.125 164.844 303.125 163.281 L 303.125 161.719 309.961 161.719 L 316.797 161.719 316.797 163.263 M305.173 162.979 C 305.394 163.642,309.838 163.650,310.058 162.988 C 310.178 162.630,309.527 162.500,307.617 162.500 C 305.734 162.500,305.057 162.633,305.173 162.979 M250.902 165.430 C 250.904 166.719,250.977 167.199,251.064 166.497 C 251.151 165.795,251.149 164.740,251.060 164.153 C 250.971 163.566,250.900 164.141,250.902 165.430 M277.096 163.756 C 276.992 163.925,277.401 164.065,278.004 164.068 C 278.856 164.073,278.971 164.159,278.516 164.453 C 278.102 164.720,278.562 164.818,280.078 164.785 C 281.260 164.759,281.831 164.661,281.348 164.568 C 280.864 164.475,280.469 164.254,280.469 164.076 C 280.469 163.655,277.342 163.358,277.096 163.756 M299.219 164.167 C 299.219 164.549,298.801 164.855,298.145 164.955 L 297.070 165.117 298.157 165.176 C 299.193 165.232,300.024 164.347,299.462 163.785 C 299.328 163.651,299.219 163.823,299.219 164.167 M255.696 164.577 C 254.447 165.490,256.485 168.381,258.359 168.353 C 258.595 168.349,258.086 167.949,257.227 167.463 C 256.279 166.928,255.616 166.244,255.541 165.726 C 255.416 164.859,255.680 164.720,258.203 164.323 C 258.911 164.211,258.798 164.154,257.790 164.116 C 257.025 164.086,256.083 164.294,255.696 164.577 M262.500 164.439 C 262.500 164.810,262.057 164.887,260.860 164.727 C 259.793 164.584,259.418 164.632,259.786 164.865 C 260.992 165.627,263.582 165.014,262.734 164.167 C 262.605 164.038,262.500 164.161,262.500 164.439 M286.175 164.680 C 285.256 167.075,287.562 172.334,288.930 170.966 C 289.035 170.861,288.755 170.658,288.306 170.516 C 287.029 170.110,286.213 168.133,286.423 165.951 C 286.615 163.953,286.560 163.675,286.175 164.680 M271.770 164.728 C 272.635 164.895,272.642 164.956,272.754 173.366 L 272.868 181.836 272.957 173.145 L 273.047 164.453 271.973 164.506 C 271.063 164.551,271.032 164.585,271.770 164.728 M290.220 165.261 C 289.817 166.014,290.554 167.969,291.242 167.969 C 291.357 167.969,291.177 167.578,290.842 167.101 C 290.085 166.019,290.086 165.830,290.848 165.067 C 291.186 164.729,291.280 164.453,291.057 164.453 C 290.835 164.453,290.458 164.816,290.220 165.261 M277.510 173.242 C 277.511 177.969,277.567 179.849,277.636 177.420 C 277.704 174.991,277.704 171.124,277.635 168.826 C 277.566 166.528,277.510 168.516,277.510 173.242 M66.504 168.238 C 66.880 168.336,67.495 168.336,67.871 168.238 C 68.247 168.140,67.939 168.059,67.188 168.059 C 66.436 168.059,66.128 168.140,66.504 168.238 M70.508 168.750 C 72.160 169.170,73.579 169.170,72.266 168.750 C 71.729 168.578,70.850 168.441,70.313 168.445 C 69.435 168.451,69.455 168.482,70.508 168.750 M252.043 168.686 C 251.683 168.915,251.817 169.145,252.532 169.527 C 253.073 169.817,253.516 170.170,253.516 170.311 C 253.516 170.452,254.009 170.495,254.612 170.407 C 255.303 170.305,255.901 170.478,256.230 170.874 C 256.682 171.419,256.653 171.471,256.012 171.269 C 255.361 171.062,255.351 171.085,255.923 171.456 C 256.981 172.140,257.775 171.595,257.456 170.404 C 257.102 169.082,253.314 167.880,252.043 168.686 M261.328 169.249 C 261.328 169.323,261.899 169.803,262.598 170.314 C 263.383 170.889,263.656 170.983,263.313 170.561 C 262.793 169.921,261.328 168.952,261.328 169.249 M78.125 170.313 C 79.461 170.740,80.488 170.740,79.492 170.313 C 79.063 170.128,78.359 169.982,77.930 169.988 C 77.302 169.997,77.340 170.061,78.125 170.313 M297.870 170.955 C 298.397 171.524,298.842 172.271,298.859 172.616 C 298.878 173.011,298.962 173.064,299.085 172.760 C 299.299 172.231,297.812 169.922,297.258 169.922 C 297.068 169.922,297.343 170.387,297.870 170.955 M258.466 171.644 C 258.319 172.028,258.014 172.195,257.755 172.035 C 257.505 171.880,258.031 172.485,258.924 173.377 C 261.486 175.939,260.719 177.951,257.285 177.678 C 256.327 177.601,255.625 177.671,255.724 177.832 C 256.155 178.529,259.346 178.123,260.141 177.270 C 261.139 176.199,261.142 175.603,260.153 174.215 C 259.668 173.533,259.533 173.059,259.798 172.971 C 260.060 172.884,259.936 172.470,259.475 171.901 C 258.806 171.076,258.695 171.047,258.466 171.644 M292.949 172.823 C 293.475 173.114,294.034 173.680,294.191 174.079 C 294.437 174.705,294.480 174.714,294.504 174.143 C 294.531 173.479,293.144 172.254,292.394 172.279 C 292.173 172.287,292.423 172.532,292.949 172.823 M299.336 175.781 C 299.336 176.963,299.409 177.446,299.499 176.855 C 299.588 176.265,299.588 175.298,299.499 174.707 C 299.409 174.116,299.336 174.600,299.336 175.781 M250.558 174.737 C 250.440 175.044,250.411 176.151,250.492 177.198 L 250.640 179.102 250.711 176.855 L 250.781 174.609 252.905 174.609 C 254.923 174.609,255.037 174.663,255.187 175.684 C 255.337 176.697,255.344 176.692,255.310 175.586 C 255.268 174.235,251.040 173.480,250.558 174.737 M256.045 174.624 C 255.948 174.782,256.119 175.120,256.426 175.375 C 257.063 175.903,258.965 175.780,259.094 175.202 C 259.195 174.750,256.306 174.203,256.045 174.624 M264.146 177.599 C 263.905 178.384,263.863 178.867,264.053 178.673 C 264.435 178.282,265.029 176.172,264.756 176.172 C 264.662 176.172,264.387 176.814,264.146 177.599 M285.196 177.057 C 285.169 177.786,285.568 178.552,286.426 179.418 C 287.124 180.123,287.281 180.223,286.774 179.639 C 286.267 179.056,285.713 177.993,285.544 177.278 C 285.252 176.044,285.234 176.033,285.196 177.057 M122.329 177.710 C 123.330 177.897,124.560 178.163,125.063 178.302 C 125.838 178.515,125.873 178.488,125.295 178.126 C 124.921 177.890,123.690 177.624,122.561 177.534 L 120.508 177.370 122.329 177.710 M298.416 179.198 C 297.533 180.958,297.546 181.132,298.457 179.769 C 298.930 179.062,299.235 178.402,299.136 178.302 C 299.036 178.203,298.712 178.606,298.416 179.198 M262.381 180.286 C 261.778 180.816,261.440 181.250,261.629 181.250 C 261.818 181.250,262.386 180.811,262.891 180.273 C 264.058 179.031,263.800 179.037,262.381 180.286 M89.063 181.623 C 89.385 181.841,89.985 182.022,90.397 182.025 C 91.397 182.033,91.085 181.810,89.648 181.488 C 88.793 181.297,88.635 181.333,89.063 181.623 M197.201 183.007 C 197.094 183.114,193.593 183.459,189.421 183.772 C 185.249 184.085,179.902 184.523,177.539 184.745 C 175.176 184.967,170.781 185.326,167.773 185.543 C 164.766 185.760,160.371 186.105,158.008 186.309 C 155.645 186.513,150.898 186.867,147.461 187.095 C 144.023 187.324,140.552 187.612,139.746 187.735 L 138.281 187.959 138.281 197.105 L 138.281 206.250 139.941 206.245 C 140.854 206.242,145.028 206.066,149.215 205.855 C 157.295 205.447,169.987 204.900,185.318 204.301 C 190.455 204.100,194.798 203.796,194.969 203.625 C 195.293 203.301,198.352 191.586,199.562 186.035 L 200.265 182.813 198.830 182.813 C 198.041 182.813,197.308 182.900,197.201 183.007 M70.379 184.375 C 70.399 185.390,71.014 187.057,71.027 186.133 C 71.034 185.703,70.888 185.000,70.703 184.570 C 70.497 184.092,70.372 184.016,70.379 184.375 M106.836 184.755 C 107.582 185.086,110.072 185.309,109.733 185.015 C 109.644 184.938,108.779 184.770,107.813 184.642 C 106.639 184.487,106.314 184.524,106.836 184.755 M335.063 185.042 C 335.549 185.135,336.252 185.132,336.626 185.034 C 336.999 184.936,336.602 184.860,335.742 184.864 C 334.883 184.868,334.577 184.948,335.063 185.042 M338.965 185.041 C 339.448 185.134,340.239 185.134,340.723 185.041 C 341.206 184.948,340.811 184.872,339.844 184.872 C 338.877 184.872,338.481 184.948,338.965 185.041 M330.710 187.111 C 329.440 188.516,329.076 189.063,329.409 189.063 C 329.471 189.063,330.183 188.271,330.991 187.305 C 332.813 185.126,332.622 184.994,330.710 187.111 M261.568 189.153 C 262.188 189.632,262.746 190.135,262.807 190.269 C 262.869 190.404,263.186 190.847,263.512 191.253 C 264.064 191.940,264.073 191.924,263.643 191.016 C 263.165 190.006,261.395 188.320,260.787 188.295 C 260.597 188.288,260.949 188.674,261.568 189.153 M313.836 188.808 C 313.725 189.098,313.696 190.548,313.771 192.031 L 313.909 194.727 313.986 191.720 L 314.063 188.713 316.113 188.569 L 318.164 188.426 316.101 188.354 C 314.676 188.304,313.975 188.444,313.836 188.808 M334.766 190.234 C 334.024 190.976,333.989 191.476,334.068 200.098 L 334.152 209.180 334.361 199.934 C 334.476 194.849,334.658 190.612,334.766 190.519 C 334.873 190.426,335.313 190.153,335.742 189.913 C 336.172 189.673,336.304 189.472,336.035 189.465 C 335.767 189.458,335.195 189.805,334.766 190.234 M372.820 196.875 C 372.820 201.064,372.877 202.778,372.947 200.684 C 373.018 198.589,373.018 195.161,372.947 193.066 C 372.877 190.972,372.820 192.686,372.820 196.875 M254.303 192.480 C 254.306 193.071,254.477 193.818,254.682 194.141 C 254.939 194.543,254.982 194.267,254.821 193.262 L 254.585 191.797 256.567 191.797 C 258.173 191.797,258.665 191.962,259.158 192.665 C 259.492 193.143,259.766 193.346,259.766 193.116 C 259.766 192.135,258.296 191.406,256.317 191.406 C 254.372 191.406,254.297 191.446,254.303 192.480 M264.153 193.750 C 264.153 194.502,264.234 194.810,264.332 194.434 C 264.430 194.058,264.430 193.442,264.332 193.066 C 264.234 192.690,264.153 192.998,264.153 193.750 M329.853 200.977 C 329.853 205.488,329.910 207.280,329.979 204.959 C 330.048 202.638,330.048 198.947,329.979 196.756 C 329.909 194.566,329.853 196.465,329.853 200.977 M251.793 194.979 C 252.047 195.389,253.907 195.425,253.905 195.020 C 253.905 194.858,253.383 194.708,252.745 194.686 C 252.108 194.663,251.679 194.795,251.793 194.979 M258.951 195.427 C 258.544 195.961,257.676 196.330,256.412 196.505 L 254.492 196.771 256.131 196.823 C 257.662 196.872,260.361 195.371,259.766 194.801 C 259.658 194.698,259.292 194.980,258.951 195.427 M321.465 196.202 C 321.655 197.811,321.664 197.819,321.796 196.532 C 321.871 195.807,321.783 195.064,321.601 194.882 C 321.419 194.700,321.358 195.294,321.465 196.202 M311.419 196.094 C 311.419 196.846,311.499 197.153,311.597 196.777 C 311.696 196.401,311.696 195.786,311.597 195.410 C 311.499 195.034,311.419 195.342,311.419 196.094 M263.703 195.753 C 263.686 196.103,263.408 196.608,263.086 196.875 C 262.764 197.142,262.500 197.539,262.500 197.757 C 262.500 197.974,262.866 197.687,263.313 197.119 C 263.759 196.551,264.037 195.868,263.929 195.602 C 263.806 195.298,263.722 195.354,263.703 195.753 M277.454 196.450 C 276.590 197.075,275.487 198.174,275.001 198.891 C 274.245 200.008,274.336 199.959,275.633 198.555 C 276.467 197.653,277.764 196.555,278.516 196.115 C 279.268 195.675,279.689 195.315,279.453 195.314 C 279.217 195.313,278.317 195.824,277.454 196.450 M305.334 196.488 C 305.657 197.135,306.096 197.556,306.310 197.424 C 306.536 197.284,306.330 196.790,305.821 196.248 C 304.685 195.039,304.626 195.068,305.334 196.488 M361.666 195.914 C 362.389 196.228,363.092 196.478,363.228 196.471 C 363.737 196.442,361.500 195.340,360.938 195.342 C 360.615 195.342,360.943 195.600,361.666 195.914 M379.004 196.089 C 378.306 196.515,377.734 196.976,377.734 197.112 C 377.734 197.249,377.966 197.169,378.250 196.934 C 378.533 196.699,379.368 196.244,380.105 195.925 C 380.842 195.605,381.182 195.337,380.859 195.329 C 380.537 195.322,379.702 195.664,379.004 196.089 M285.121 196.191 C 285.334 196.460,286.106 197.383,286.838 198.242 C 287.569 199.102,288.267 200.068,288.389 200.391 C 288.579 200.893,288.615 200.889,288.641 200.361 C 288.658 200.023,288.216 199.319,287.658 198.799 C 287.101 198.278,286.393 197.368,286.086 196.777 C 285.778 196.187,285.349 195.703,285.131 195.703 C 284.868 195.703,284.865 195.868,285.121 196.191 M296.903 196.732 C 295.167 198.939,296.218 201.994,299.277 203.630 C 300.519 204.295,300.536 204.295,299.609 203.634 C 296.356 201.314,295.559 198.938,297.294 196.732 C 297.739 196.166,298.016 195.703,297.908 195.703 C 297.801 195.703,297.349 196.166,296.903 196.732 M343.862 196.602 C 344.337 197.096,344.799 197.449,344.887 197.385 C 345.115 197.222,343.694 195.703,343.313 195.703 C 343.139 195.703,343.386 196.108,343.862 196.602 M385.683 196.875 C 386.417 197.520,387.132 198.047,387.272 198.047 C 387.412 198.047,386.927 197.520,386.192 196.875 C 385.458 196.230,384.743 195.703,384.603 195.703 C 384.463 195.703,384.948 196.230,385.683 196.875 M363.688 196.617 C 363.679 196.797,364.018 197.237,364.441 197.594 C 364.865 197.950,365.479 198.770,365.806 199.414 C 366.134 200.059,366.403 200.308,366.404 199.967 C 366.406 199.337,363.718 196.020,363.688 196.617 M300.293 197.688 C 299.917 197.907,299.612 198.297,299.615 198.555 C 299.619 198.875,299.727 198.857,299.955 198.496 C 300.139 198.206,300.884 197.829,301.610 197.657 C 302.682 197.404,302.746 197.340,301.953 197.317 C 301.416 197.302,300.669 197.469,300.293 197.688 M312.390 197.938 L 313.647 198.095 313.771 202.661 L 313.895 207.227 313.979 202.441 L 314.063 197.656 312.598 197.719 C 311.173 197.780,311.167 197.786,312.390 197.938 M318.848 197.926 C 319.224 198.024,319.839 198.024,320.215 197.926 C 320.591 197.827,320.283 197.747,319.531 197.747 C 318.779 197.747,318.472 197.827,318.848 197.926 M356.490 199.400 C 355.583 200.785,355.577 200.781,358.789 200.781 C 361.987 200.781,362.466 200.363,360.840 198.986 C 359.962 198.243,359.962 198.243,360.645 199.054 C 361.681 200.285,361.533 200.391,358.780 200.391 L 356.232 200.391 356.872 199.414 C 357.224 198.877,357.424 198.438,357.316 198.438 C 357.209 198.438,356.837 198.871,356.490 199.400 M378.993 199.436 C 378.516 199.771,378.125 200.244,378.125 200.487 C 378.125 200.731,378.345 200.655,378.613 200.319 C 378.882 199.982,379.453 199.514,379.883 199.279 C 380.313 199.044,380.483 198.847,380.263 198.840 C 380.042 198.833,379.471 199.102,378.993 199.436 M299.831 199.732 C 300.106 200.450,301.606 200.984,302.425 200.655 C 302.702 200.543,302.504 200.438,301.984 200.421 C 301.464 200.405,300.709 200.093,300.307 199.729 C 299.620 199.107,299.591 199.107,299.831 199.732 M254.355 202.637 L 254.297 205.469 256.152 205.401 L 258.008 205.332 256.348 205.183 C 254.718 205.036,253.625 202.747,255.176 202.728 C 255.535 202.724,255.544 202.646,255.211 202.434 C 254.962 202.276,254.681 201.619,254.586 200.975 C 254.491 200.331,254.388 201.079,254.355 202.637 M279.004 200.660 C 279.380 200.758,279.995 200.758,280.371 200.660 C 280.747 200.562,280.439 200.481,279.688 200.481 C 278.936 200.481,278.628 200.562,279.004 200.660 M288.672 202.512 C 288.672 203.591,288.501 203.885,287.793 204.021 C 287.039 204.166,287.067 204.198,287.988 204.244 C 288.990 204.293,289.063 204.191,289.063 202.734 C 289.063 201.875,288.975 201.172,288.867 201.172 C 288.760 201.172,288.672 201.775,288.672 202.512 M366.406 201.758 C 366.406 202.251,365.538 202.344,360.938 202.344 L 355.469 202.344 355.522 203.418 C 355.568 204.339,355.599 204.367,355.744 203.613 C 355.910 202.752,356.023 202.734,361.355 202.734 C 366.536 202.734,366.797 202.697,366.797 201.953 C 366.797 201.523,366.709 201.172,366.602 201.172 C 366.494 201.172,366.406 201.436,366.406 201.758 M272.722 202.344 C 272.699 202.881,272.939 203.662,273.255 204.079 C 273.570 204.496,273.828 204.663,273.828 204.450 C 273.828 204.237,273.667 203.896,273.471 203.691 C 273.274 203.487,273.034 202.881,272.938 202.344 L 272.763 201.367 272.722 202.344 M388.813 205.469 C 388.813 207.510,388.879 208.345,388.959 207.324 C 389.039 206.304,389.039 204.634,388.959 203.613 C 388.879 202.593,388.813 203.428,388.813 205.469 M264.466 204.004 C 264.472 204.487,264.760 205.234,265.104 205.664 C 265.654 206.351,265.700 206.359,265.482 205.730 C 265.346 205.336,265.234 204.589,265.234 204.070 C 265.234 203.550,265.059 203.125,264.844 203.125 C 264.629 203.125,264.459 203.521,264.466 204.004 M306.512 204.492 C 306.808 206.423,307.033 206.752,307.025 205.241 C 307.022 204.614,306.851 203.838,306.646 203.516 C 306.391 203.117,306.349 203.428,306.512 204.492 M260.156 204.102 C 259.889 204.424,259.399 204.688,259.067 204.688 C 258.735 204.688,258.567 204.791,258.695 204.918 C 259.065 205.289,260.454 204.711,260.694 204.087 C 260.975 203.354,260.772 203.360,260.156 204.102 M278.364 204.226 C 278.255 204.402,278.684 204.470,279.318 204.377 C 279.951 204.284,280.469 204.140,280.469 204.057 C 280.469 203.760,278.558 203.913,278.364 204.226 M276.563 204.644 C 276.563 204.835,276.925 205.407,277.369 205.914 C 277.812 206.421,278.076 206.572,277.955 206.250 C 277.834 205.928,277.626 205.356,277.494 204.980 C 277.245 204.275,276.563 204.029,276.563 204.644 M351.173 204.702 C 351.174 205.016,351.524 205.846,351.951 206.547 C 352.750 207.857,354.835 209.371,355.844 209.374 C 356.159 209.374,355.631 208.979,354.673 208.496 C 353.399 207.854,352.693 207.148,352.051 205.874 C 351.567 204.916,351.173 204.388,351.173 204.702 M274.261 205.859 C 274.837 207.114,275.761 208.165,276.753 208.696 C 277.186 208.927,276.924 208.514,276.172 207.778 C 275.420 207.041,274.581 206.089,274.308 205.661 C 273.881 204.991,273.875 205.019,274.261 205.859 M278.528 205.385 C 278.551 205.906,279.636 207.114,279.956 206.974 C 280.130 206.898,279.878 206.447,279.395 205.971 C 278.911 205.495,278.521 205.232,278.528 205.385 M297.138 205.363 C 298.034 205.444,298.978 205.765,299.236 206.076 C 299.494 206.386,299.883 206.641,300.101 206.641 C 300.318 206.641,300.049 206.289,299.503 205.859 C 298.847 205.344,297.999 205.101,297.009 205.146 L 295.508 205.215 297.138 205.363 M319.997 205.742 C 321.759 205.894,321.837 205.953,321.991 207.250 C 322.151 208.588,322.152 208.587,322.111 207.132 L 322.070 205.664 320.117 205.624 L 318.164 205.584 319.997 205.742 M357.308 206.202 C 358.459 207.308,360.675 207.302,362.048 206.189 C 362.809 205.571,362.878 205.426,362.305 205.646 C 360.780 206.231,358.312 206.336,357.381 205.856 L 356.445 205.372 357.308 206.202 M262.554 206.663 C 261.831 207.104,261.317 207.541,261.412 207.636 C 261.607 207.831,264.844 206.331,264.844 206.046 C 264.844 205.626,263.788 205.911,262.554 206.663 M284.180 206.459 C 283.535 206.755,283.271 206.998,283.594 207.000 C 283.916 207.002,284.619 206.752,285.156 206.445 C 286.391 205.739,285.732 205.749,284.180 206.459 M125.300 206.924 C 126.002 207.011,127.057 207.009,127.644 206.920 C 128.231 206.831,127.656 206.759,126.367 206.762 C 125.078 206.764,124.598 206.837,125.300 206.924 M277.173 207.325 C 278.816 208.901,283.092 209.721,283.789 208.594 C 283.940 208.350,283.151 208.203,281.692 208.203 C 280.234 208.203,279.151 208.002,278.818 207.669 C 278.524 207.375,277.853 207.003,277.326 206.843 L 276.367 206.552 277.173 207.325 M117.487 207.314 C 118.190 207.401,119.244 207.399,119.831 207.310 C 120.418 207.221,119.844 207.150,118.555 207.152 C 117.266 207.154,116.785 207.227,117.487 207.314 M364.884 208.041 C 364.154 208.560,363.748 208.984,363.983 208.984 C 364.218 208.984,364.903 208.550,365.506 208.020 C 366.886 206.806,366.609 206.815,364.884 208.041 M107.520 207.691 C 107.896 207.789,108.511 207.789,108.887 207.691 C 109.263 207.593,108.955 207.513,108.203 207.513 C 107.451 207.513,107.144 207.593,107.520 207.691 M264.097 207.966 C 263.849 208.265,263.119 208.728,262.475 208.995 C 261.830 209.262,261.380 209.557,261.475 209.652 C 261.726 209.903,263.841 208.746,264.432 208.034 C 264.711 207.697,264.852 207.422,264.744 207.422 C 264.637 207.422,264.346 207.667,264.097 207.966 M287.144 207.966 C 286.896 208.265,286.166 208.728,285.521 208.995 C 284.877 209.262,284.427 209.557,284.521 209.652 C 284.773 209.903,286.888 208.746,287.479 208.034 C 287.758 207.697,287.898 207.422,287.791 207.422 C 287.684 207.422,287.393 207.667,287.144 207.966 M297.351 208.691 C 297.955 209.282,298.667 209.760,298.932 209.754 C 299.197 209.747,299.063 209.547,298.633 209.310 C 298.203 209.072,297.492 208.594,297.051 208.247 C 296.611 207.901,296.746 208.101,297.351 208.691 M100.298 208.089 C 100.783 208.182,101.487 208.179,101.860 208.081 C 102.233 207.983,101.836 207.907,100.977 207.911 C 100.117 207.915,99.812 207.995,100.298 208.089 M88.965 208.486 C 89.663 208.572,90.806 208.572,91.504 208.486 C 92.202 208.399,91.631 208.328,90.234 208.328 C 88.838 208.328,88.267 208.399,88.965 208.486 M79.191 208.876 C 79.884 208.962,81.114 208.963,81.925 208.879 C 82.735 208.794,82.168 208.724,80.664 208.722 C 79.160 208.720,78.497 208.789,79.191 208.876 M252.815 210.055 C 254.256 210.130,256.717 210.130,258.284 210.056 C 259.851 209.982,258.672 209.920,255.664 209.920 C 252.656 209.919,251.374 209.980,252.815 210.055 M280.371 210.048 C 281.069 210.135,282.212 210.135,282.910 210.048 C 283.608 209.962,283.037 209.891,281.641 209.891 C 280.244 209.891,279.673 209.962,280.371 210.048 M300.688 210.042 C 301.174 210.135,301.877 210.132,302.251 210.034 C 302.624 209.936,302.227 209.860,301.367 209.864 C 300.508 209.868,300.202 209.948,300.688 210.042 M157.910 213.566 C 158.716 213.650,160.034 213.650,160.840 213.566 C 161.646 213.482,160.986 213.413,159.375 213.413 C 157.764 213.413,157.104 213.482,157.910 213.566 M164.451 236.105 L 164.258 259.125 162.223 260.324 C 161.103 260.984,159.961 261.755,159.684 262.038 C 159.406 262.320,160.234 261.919,161.523 261.145 C 162.812 260.371,164.088 259.517,164.358 259.247 C 164.745 258.860,164.828 253.863,164.748 235.920 L 164.645 213.086 164.451 236.105 M149.322 213.952 C 149.916 214.042,150.794 214.040,151.275 213.947 C 151.755 213.854,151.270 213.781,150.195 213.784 C 149.121 213.787,148.728 213.862,149.322 213.952 M141.699 214.338 C 142.183 214.431,142.974 214.431,143.457 214.338 C 143.940 214.245,143.545 214.169,142.578 214.169 C 141.611 214.169,141.216 214.245,141.699 214.338 M138.045 219.727 C 138.045 222.734,138.107 223.913,138.181 222.346 C 138.255 220.779,138.255 218.318,138.180 216.877 C 138.105 215.437,138.044 216.719,138.045 219.727 M125.977 215.103 C 124.902 215.168,121.299 215.401,117.969 215.620 C 114.639 215.840,110.068 216.114,107.813 216.230 C 105.557 216.346,103.154 216.527,102.473 216.631 L 101.236 216.820 101.097 256.555 C 101.021 278.409,101.017 296.421,101.088 296.582 C 101.277 297.007,102.771 296.146,105.562 294.006 C 106.907 292.974,110.645 290.395,113.867 288.275 C 117.090 286.154,120.869 283.611,122.266 282.623 C 124.839 280.803,126.603 279.635,129.571 277.782 C 132.120 276.192,132.031 277.383,132.031 244.668 L 132.031 214.844 129.980 214.914 C 128.853 214.953,127.051 215.038,125.977 215.103 M351.020 215.554 C 350.911 215.730,351.341 215.798,351.974 215.705 C 352.607 215.612,353.125 215.468,353.125 215.385 C 353.125 215.088,351.214 215.241,351.020 215.554 M250.901 218.912 C 250.298 219.431,249.893 219.918,250.000 219.994 C 250.107 220.070,250.701 219.646,251.319 219.051 C 252.701 217.720,252.401 217.620,250.901 218.912 M260.287 219.245 C 260.967 219.948,261.599 220.473,261.690 220.413 C 261.913 220.268,259.698 217.969,259.335 217.969 C 259.179 217.969,259.608 218.543,260.287 219.245 M267.145 221.582 L 266.987 223.438 269.032 223.438 L 271.078 223.438 271.184 231.738 L 271.289 240.039 273.633 240.067 L 275.977 240.095 273.730 239.951 L 271.484 239.806 271.484 231.427 C 271.484 223.429,271.450 223.047,270.736 223.047 C 270.324 223.047,269.906 222.827,269.808 222.559 C 269.665 222.168,269.525 222.168,269.111 222.559 C 268.827 222.827,268.482 223.047,268.346 223.047 C 268.210 223.047,268.083 222.827,268.064 222.559 C 267.912 220.449,267.298 219.796,267.145 221.582 M279.005 221.289 C 279.009 222.148,279.089 222.454,279.183 221.968 C 279.276 221.482,279.272 220.779,279.175 220.406 C 279.077 220.032,279.000 220.430,279.005 221.289 M249.716 222.266 C 249.716 223.232,249.792 223.628,249.885 223.145 C 249.978 222.661,249.978 221.870,249.885 221.387 C 249.792 220.903,249.716 221.299,249.716 222.266 M254.345 222.121 C 253.694 223.548,253.978 223.628,254.774 222.240 C 255.136 221.610,255.293 221.094,255.123 221.094 C 254.952 221.094,254.602 221.556,254.345 222.121 M258.517 222.863 C 258.404 222.976,257.540 223.221,256.597 223.406 L 254.883 223.743 257.117 223.785 C 258.952 223.820,259.310 223.724,259.126 223.242 C 258.878 222.596,258.820 222.560,258.517 222.863 M277.056 223.327 C 277.650 223.417,278.529 223.415,279.009 223.322 C 279.490 223.229,279.004 223.156,277.930 223.159 C 276.855 223.162,276.462 223.237,277.056 223.327 M253.195 224.667 C 253.328 225.561,253.514 225.693,256.250 226.842 C 259.044 228.015,260.634 229.001,262.100 230.469 C 263.086 231.456,263.293 231.564,262.844 230.859 C 262.084 229.667,259.759 227.963,257.495 226.940 C 255.482 226.030,254.692 225.304,254.674 224.344 C 254.662 223.766,254.548 223.816,254.063 224.609 C 253.498 225.535,253.476 225.540,253.650 224.707 C 253.751 224.224,253.662 223.828,253.452 223.828 C 253.242 223.828,253.127 224.206,253.195 224.667 M259.180 224.208 C 258.750 224.388,257.783 224.710,257.031 224.923 C 255.806 225.271,255.968 225.314,258.594 225.345 C 260.205 225.363,261.767 225.224,262.064 225.036 C 262.395 224.827,261.864 224.773,260.697 224.899 C 258.400 225.146,258.586 224.721,260.981 224.250 C 262.627 223.927,262.641 223.913,261.328 223.897 C 260.576 223.888,259.609 224.028,259.180 224.208 M342.079 225.421 C 341.276 226.083,340.423 227.005,340.182 227.472 C 339.941 227.939,340.338 227.663,341.063 226.861 C 341.789 226.058,342.910 225.136,343.555 224.812 C 344.199 224.488,344.459 224.222,344.132 224.221 C 343.805 224.220,342.881 224.760,342.079 225.421 M295.612 224.892 C 296.315 224.979,297.369 224.978,297.956 224.888 C 298.543 224.799,297.969 224.728,296.680 224.730 C 295.391 224.733,294.910 224.806,295.612 224.892 M305.358 224.888 L 307.787 225.037 307.918 229.316 L 308.048 233.595 308.028 229.200 L 308.008 224.805 305.469 224.772 L 302.930 224.739 305.358 224.888 M315.144 224.892 C 315.846 224.979,316.900 224.978,317.487 224.888 C 318.074 224.799,317.500 224.728,316.211 224.730 C 314.922 224.733,314.442 224.806,315.144 224.892 M324.698 232.520 L 324.787 240.430 324.902 232.736 L 325.016 225.042 326.864 224.896 L 328.711 224.750 326.660 224.680 L 324.609 224.609 324.698 232.520 M329.748 225.821 C 329.029 226.474,328.514 227.081,328.603 227.170 C 328.692 227.259,329.358 226.719,330.084 225.971 C 331.705 224.298,331.516 224.213,329.748 225.821 M332.582 226.893 C 331.020 229.052,330.123 230.468,330.565 230.078 C 331.078 229.624,334.418 224.914,334.304 224.804 C 334.236 224.738,333.461 225.678,332.582 226.893 M137.981 226.953 C 137.981 227.705,138.062 228.013,138.160 227.637 C 138.258 227.261,138.258 226.646,138.160 226.270 C 138.062 225.894,137.981 226.201,137.981 226.953 M292.183 228.726 C 291.660 230.394,290.966 232.025,290.642 232.349 C 290.131 232.860,290.129 232.913,290.632 232.749 C 291.209 232.561,293.488 226.752,293.256 226.058 C 293.189 225.856,292.706 227.057,292.183 228.726 M251.172 228.575 C 252.060 229.497,256.641 231.865,256.641 231.402 C 256.641 231.295,255.630 230.753,254.395 230.198 C 253.159 229.643,251.709 228.823,251.172 228.375 L 250.195 227.561 251.172 228.575 M345.145 228.348 C 344.807 228.686,344.531 229.155,344.531 229.390 C 344.531 229.625,344.577 229.744,344.633 229.655 C 344.689 229.565,345.068 229.097,345.475 228.613 C 346.317 227.614,346.074 227.419,345.145 228.348 M348.940 228.633 C 349.415 229.127,349.877 229.480,349.965 229.417 C 350.193 229.253,348.772 227.734,348.391 227.734 C 348.217 227.734,348.464 228.139,348.940 228.633 M283.995 228.654 C 283.981 229.106,286.793 234.431,286.959 234.265 C 287.031 234.193,286.396 232.826,285.548 231.227 C 284.699 229.628,284.000 228.470,283.995 228.654 M138.033 232.617 C 138.034 234.766,138.100 235.595,138.179 234.460 C 138.258 233.324,138.257 231.567,138.177 230.553 C 138.097 229.540,138.032 230.469,138.033 232.617 M296.072 230.720 C 295.856 231.288,295.570 231.931,295.436 232.148 C 295.302 232.365,295.377 232.428,295.604 232.288 C 296.034 232.022,296.973 229.688,296.650 229.688 C 296.548 229.688,296.288 230.152,296.072 230.720 M344.247 232.031 C 344.247 232.998,344.323 233.394,344.416 232.910 C 344.509 232.427,344.509 231.636,344.416 231.152 C 344.323 230.669,344.247 231.064,344.247 232.031 M339.169 232.422 C 339.169 233.389,339.245 233.784,339.338 233.301 C 339.431 232.817,339.431 232.026,339.338 231.543 C 339.245 231.060,339.169 231.455,339.169 232.422 M257.910 232.502 C 258.501 233.011,258.984 233.811,258.984 234.280 C 258.984 234.807,258.575 235.353,257.910 235.714 C 257.319 236.035,257.017 236.304,257.237 236.312 C 259.369 236.396,259.979 233.656,258.105 232.416 L 256.836 231.576 257.910 232.502 M313.206 233.516 C 312.925 233.902,312.261 234.518,311.729 234.883 C 311.198 235.248,310.953 235.547,311.184 235.547 C 311.415 235.547,312.070 235.116,312.638 234.589 C 313.986 233.340,313.976 233.819,312.626 235.228 C 311.428 236.479,311.562 236.907,312.982 236.368 C 314.023 235.972,314.863 233.926,314.090 233.668 C 313.857 233.590,313.766 233.366,313.888 233.170 C 314.293 232.513,313.723 232.803,313.206 233.516 M250.014 233.959 C 249.791 234.374,249.623 234.946,249.640 235.228 C 249.657 235.511,249.848 235.258,250.064 234.666 C 250.286 234.059,250.640 233.702,250.875 233.847 C 251.122 234.000,251.179 233.921,251.014 233.654 C 250.632 233.037,250.483 233.082,250.014 233.959 M350.000 233.671 C 350.000 234.810,348.438 236.328,347.266 236.328 C 346.526 236.328,345.878 235.981,345.341 235.299 C 344.896 234.733,344.531 234.462,344.531 234.698 C 344.531 235.489,346.231 236.719,347.324 236.719 C 348.831 236.719,351.045 234.118,350.231 233.304 C 350.104 233.177,350.000 233.342,350.000 233.671 M294.120 234.624 C 293.904 235.191,293.801 235.728,293.889 235.816 C 293.978 235.905,294.237 235.441,294.466 234.786 C 294.974 233.328,294.667 233.186,294.120 234.624 M303.747 235.156 C 303.885 235.693,304.220 236.396,304.491 236.719 C 304.762 237.041,305.273 237.876,305.627 238.574 C 305.981 239.272,306.485 239.841,306.748 239.838 C 307.085 239.834,307.099 239.747,306.793 239.545 C 306.554 239.387,306.027 238.664,305.621 237.939 C 303.514 234.174,303.481 234.125,303.747 235.156 M318.428 237.766 C 318.368 239.527,318.246 239.811,317.480 239.959 L 316.602 240.128 317.493 240.181 C 318.590 240.247,318.843 239.646,318.648 237.447 L 318.496 235.742 318.428 237.766 M138.069 252.148 C 138.069 260.742,138.120 264.202,138.183 259.837 C 138.246 255.472,138.246 248.441,138.183 244.212 C 138.120 239.983,138.069 243.555,138.069 252.148 M261.523 238.389 C 260.067 239.886,260.047 239.935,261.231 239.111 C 261.930 238.625,262.683 237.888,262.905 237.473 C 263.452 236.452,263.331 236.532,261.523 238.389 M249.219 238.272 C 249.219 238.786,251.132 240.014,251.444 239.701 C 251.581 239.565,251.488 239.453,251.237 239.453 C 250.986 239.453,250.430 239.102,250.000 238.672 C 249.570 238.242,249.219 238.062,249.219 238.272 M354.688 239.296 C 354.688 239.800,354.322 239.893,352.771 239.784 C 351.717 239.709,350.936 239.780,351.036 239.941 C 351.497 240.685,355.078 240.252,355.078 239.453 C 355.078 239.023,354.990 238.672,354.883 238.672 C 354.775 238.672,354.688 238.953,354.688 239.296 M312.695 239.663 C 312.051 239.958,311.787 240.204,312.109 240.211 C 312.432 240.217,312.954 240.059,313.271 239.858 C 313.651 239.618,313.948 239.654,314.144 239.962 C 314.345 240.279,314.443 240.209,314.447 239.746 C 314.454 238.949,314.272 238.941,312.695 239.663 M345.117 240.234 C 345.547 240.419,346.250 240.565,346.680 240.559 C 347.308 240.549,347.269 240.486,346.484 240.234 C 345.149 239.807,344.122 239.807,345.117 240.234 M254.985 240.511 C 255.471 240.604,256.174 240.601,256.548 240.503 C 256.921 240.405,256.523 240.329,255.664 240.333 C 254.805 240.337,254.499 240.417,254.985 240.511 M151.250 248.711 C 150.830 250.080,150.898 250.795,151.401 250.291 C 151.780 249.913,152.284 247.266,151.978 247.266 C 151.821 247.266,151.494 247.916,151.250 248.711 M155.218 264.814 C 154.544 265.225,153.872 265.755,153.726 265.991 C 153.507 266.345,156.031 264.803,156.598 264.235 C 156.979 263.854,156.380 264.105,155.218 264.814 M152.562 266.760 C 152.442 266.954,151.377 267.659,150.195 268.325 C 149.014 268.992,148.047 269.632,148.047 269.746 C 148.047 270.058,151.640 267.957,152.528 267.127 C 152.952 266.730,153.182 266.406,153.040 266.406 C 152.897 266.406,152.682 266.565,152.562 266.760 M144.238 271.920 C 143.540 272.367,142.969 272.882,142.969 273.063 C 142.969 273.245,142.009 273.968,140.837 274.669 C 139.664 275.370,138.769 276.008,138.847 276.086 C 139.058 276.297,142.235 274.255,143.359 273.185 C 143.896 272.674,144.688 272.000,145.117 271.687 C 146.291 270.833,145.686 270.993,144.238 271.920 M381.250 396.875 L 381.250 400.000 384.375 400.000 L 387.500 400.000 387.500 396.875 L 387.500 393.750 384.375 393.750 L 381.250 393.750 381.250 396.875 M393.750 396.875 L 393.750 400.000 396.875 400.000 L 400.000 400.000 400.000 396.875 L 400.000 393.750 396.875 393.750 L 393.750 393.750 393.750 396.875 " stroke="none" fill="#062035" fill-rule="evenodd"></path><path id="path1" d="M138.201 106.598 C 138.157 106.944,138.113 114.565,138.103 123.533 L 138.086 139.840 151.270 139.842 L 164.453 139.844 164.453 131.109 L 164.453 122.374 161.816 120.694 C 160.366 119.770,158.389 118.489,157.422 117.847 C 156.455 117.205,153.643 115.459,151.172 113.967 C 148.701 112.474,146.592 111.132,146.484 110.984 C 145.399 109.491,138.311 105.738,138.201 106.598 M45.065 140.489 C 45.261 141.127,46.020 144.395,48.821 156.641 C 49.238 158.467,49.815 161.089,50.103 162.468 L 50.626 164.975 54.317 165.687 C 56.347 166.079,59.238 166.666,60.742 166.993 C 62.246 167.319,65.498 167.849,67.969 168.170 C 70.439 168.491,74.043 169.114,75.977 169.554 C 79.258 170.301,83.812 171.135,91.797 172.450 C 98.565 173.565,107.694 175.024,110.156 175.386 C 111.553 175.590,114.365 176.112,116.406 176.545 C 118.447 176.977,120.770 177.334,121.568 177.338 C 122.367 177.341,123.773 177.592,124.693 177.895 C 125.614 178.198,127.158 178.559,128.125 178.697 C 129.092 178.835,130.366 179.041,130.957 179.154 L 132.031 179.359 132.031 168.593 L 132.031 157.827 131.152 157.645 C 127.086 156.799,114.504 154.351,108.789 153.294 C 104.922 152.579,100.088 151.625,98.047 151.174 C 96.006 150.724,92.490 150.003,90.234 149.572 C 86.009 148.765,82.081 147.912,79.688 147.283 C 78.936 147.085,76.123 146.474,73.438 145.926 C 70.752 145.377,67.324 144.652,65.820 144.314 C 64.316 143.976,62.207 143.543,61.133 143.352 C 58.785 142.934,46.588 140.297,45.567 139.987 C 45.003 139.815,44.893 139.925,45.065 140.489 M253.906 161.000 C 250.979 161.818,249.583 169.221,252.482 168.551 C 254.182 168.158,257.155 169.280,257.463 170.430 C 257.651 171.132,257.593 171.486,257.290 171.490 C 257.033 171.494,257.089 171.660,257.422 171.874 C 257.833 172.138,258.138 172.077,258.445 171.668 C 258.897 171.065,259.159 171.230,259.964 172.625 C 260.204 173.040,260.118 173.116,259.620 172.924 C 259.121 172.733,259.203 172.995,259.946 173.969 C 261.697 176.265,260.654 178.125,257.616 178.125 C 255.727 178.125,255.078 177.483,255.078 175.612 C 255.078 174.657,254.976 174.609,252.930 174.609 L 250.781 174.609 250.781 177.299 C 250.781 180.554,251.247 180.997,255.391 181.681 C 265.241 183.308,268.688 171.563,259.234 168.589 C 254.487 167.096,253.427 163.449,257.955 164.187 C 258.628 164.297,259.927 164.513,260.840 164.667 C 261.930 164.851,262.500 164.804,262.500 164.530 C 262.500 161.720,257.976 159.862,253.906 161.000 M289.144 161.737 C 284.550 163.777,285.322 169.293,290.504 171.461 C 292.182 172.162,293.774 172.916,294.043 173.135 C 294.775 173.732,294.675 176.815,293.913 177.107 C 292.592 177.614,290.283 177.301,288.445 176.367 C 286.186 175.218,285.547 175.338,285.547 176.911 C 285.547 181.980,295.794 183.917,298.369 179.335 C 300.570 175.419,299.175 171.033,295.267 169.583 C 291.641 168.237,290.973 167.877,290.349 166.924 C 289.137 165.075,291.412 163.688,294.816 164.201 C 295.626 164.323,296.925 164.534,297.702 164.670 C 298.968 164.891,300.302 163.442,299.531 162.684 C 297.934 161.112,291.808 160.554,289.144 161.737 M268.359 163.136 L 268.359 164.945 270.703 164.679 L 273.047 164.414 273.047 173.027 L 273.047 181.641 275.195 181.641 L 277.344 181.641 277.344 173.302 C 277.344 165.040,277.352 164.959,278.223 164.539 C 279.081 164.125,279.076 164.115,278.004 164.089 C 277.401 164.074,276.992 163.925,277.096 163.756 C 277.352 163.342,280.469 163.663,280.469 164.104 C 280.469 164.296,280.820 164.453,281.250 164.453 C 281.849 164.453,282.031 164.193,282.031 163.336 L 282.031 162.220 279.688 162.398 C 277.726 162.548,277.344 162.475,277.344 161.953 C 277.344 160.630,273.299 161.115,272.776 162.500 C 272.533 163.145,272.055 163.672,271.714 163.672 C 271.285 163.672,271.094 163.310,271.094 162.500 C 271.094 161.421,270.985 161.328,269.727 161.328 C 268.361 161.328,268.359 161.330,268.359 163.136 M303.125 163.281 L 303.125 164.844 305.469 164.844 L 307.813 164.844 307.813 173.242 L 307.813 181.641 309.758 181.641 L 311.703 181.641 311.809 173.340 L 311.914 165.039 314.355 164.923 L 316.797 164.806 316.797 163.263 L 316.797 161.719 309.961 161.719 L 303.125 161.719 303.125 163.281 M310.058 162.988 C 309.838 163.650,305.394 163.642,305.173 162.979 C 305.057 162.633,305.734 162.500,307.617 162.500 C 309.527 162.500,310.178 162.630,310.058 162.988 M253.939 170.450 C 254.620 171.025,256.684 171.422,256.246 170.893 C 255.981 170.574,255.316 170.313,254.770 170.313 C 254.223 170.313,253.849 170.374,253.939 170.450 M69.562 180.055 C 69.730 181.117,70.142 182.919,70.477 184.059 C 70.812 185.200,71.325 187.100,71.617 188.281 C 71.908 189.463,72.959 193.594,73.953 197.461 C 74.946 201.328,75.953 205.507,76.190 206.748 L 76.622 209.003 78.448 208.802 C 79.452 208.691,86.250 208.406,93.555 208.169 C 100.859 207.932,106.924 207.685,107.031 207.620 C 107.139 207.555,110.654 207.375,114.844 207.222 C 119.033 207.068,124.570 206.830,127.148 206.693 L 131.836 206.445 131.836 197.659 L 131.836 188.873 128.320 188.419 C 123.918 187.850,118.268 186.918,114.453 186.132 C 111.386 185.501,110.420 185.334,102.148 184.006 C 99.355 183.558,96.769 183.096,96.401 182.980 C 96.033 182.864,94.275 182.526,92.495 182.229 C 85.568 181.073,78.090 179.686,73.360 178.681 C 69.197 177.796,69.205 177.793,69.562 180.055 M334.961 185.214 C 331.124 185.716,326.767 191.782,329.492 192.827 C 329.987 193.017,330.078 194.298,330.078 201.018 L 330.078 208.984 332.031 208.984 L 333.984 208.984 333.984 200.075 C 333.984 189.312,333.822 189.731,338.112 189.453 L 341.133 189.258 341.684 187.361 C 341.987 186.318,342.181 185.419,342.114 185.363 C 341.739 185.051,336.965 184.952,334.961 185.214 M249.615 197.911 C 249.622 211.147,248.932 209.766,255.534 209.766 C 262.622 209.766,264.340 209.017,265.393 205.470 C 266.192 202.780,265.678 200.558,263.873 198.904 C 262.509 197.654,262.471 197.554,263.102 196.858 C 264.111 195.742,264.309 192.807,263.478 191.265 C 262.068 188.646,260.646 188.102,254.815 187.950 L 249.609 187.814 249.615 197.911 M372.841 198.242 L 372.829 208.591 374.048 208.820 C 374.719 208.945,375.778 208.990,376.403 208.919 L 377.539 208.789 377.734 204.555 C 377.951 199.858,378.517 198.828,380.881 198.828 C 383.654 198.828,384.198 200.217,384.747 208.691 C 384.757 208.853,385.664 208.984,386.761 208.984 L 388.756 208.984 388.589 204.590 C 388.306 197.180,384.630 193.734,379.641 196.203 L 377.734 197.146 377.734 192.518 L 377.734 187.891 375.293 187.891 L 372.852 187.892 372.841 198.242 M314.063 191.602 L 314.063 194.531 312.793 194.531 C 311.572 194.531,311.523 194.591,311.523 196.094 C 311.523 197.596,311.572 197.656,312.793 197.656 L 314.063 197.656 314.063 202.465 C 314.063 208.838,315.423 210.299,320.133 208.980 C 322.828 208.225,322.816 205.859,320.117 205.859 L 318.359 205.859 318.359 201.758 L 318.359 197.656 319.945 197.656 L 321.532 197.656 321.410 196.191 C 321.296 194.806,321.210 194.720,319.824 194.605 L 318.359 194.484 318.359 191.578 L 318.359 188.672 316.211 188.672 L 314.063 188.672 314.063 191.602 M259.051 192.053 C 260.988 193.806,259.171 196.875,256.197 196.875 C 254.871 196.875,254.688 196.763,254.688 195.953 C 254.688 195.446,254.576 194.215,254.439 193.219 L 254.191 191.406 256.264 191.406 C 257.645 191.406,258.575 191.622,259.051 192.053 M253.906 194.922 C 253.906 195.137,253.477 195.313,252.953 195.313 C 252.428 195.313,251.891 195.137,251.758 194.922 C 251.617 194.694,252.014 194.531,252.711 194.531 C 253.369 194.531,253.906 194.707,253.906 194.922 M298.560 195.684 C 294.845 197.949,297.056 204.297,301.561 204.297 C 303.702 204.297,304.843 206.321,302.968 206.791 C 301.739 207.100,299.744 206.687,299.180 206.008 C 298.356 205.015,295.600 205.302,295.918 206.348 C 297.421 211.279,306.901 210.789,306.705 205.791 C 306.566 202.255,305.857 201.601,301.080 200.602 C 299.684 200.310,299.146 198.570,300.212 197.791 C 301.191 197.075,302.231 197.143,304.239 198.054 C 306.012 198.859,306.641 198.794,306.641 197.805 C 306.641 197.483,306.465 197.328,306.249 197.461 C 306.034 197.594,305.691 197.264,305.487 196.727 C 304.752 194.794,300.957 194.222,298.560 195.684 M278.104 196.415 C 276.400 197.497,274.219 199.933,274.219 200.755 C 274.219 200.984,273.955 201.172,273.633 201.172 C 271.753 201.172,274.343 206.574,277.144 208.496 C 280.056 210.494,284.553 210.227,287.207 207.900 C 288.663 206.624,287.057 205.462,285.179 206.433 C 282.933 207.595,279.497 207.243,278.787 205.778 C 277.936 204.020,278.130 203.917,281.785 204.175 C 283.571 204.301,285.872 204.278,286.899 204.124 L 288.765 203.844 288.582 201.937 C 288.438 200.435,288.096 199.694,286.973 198.451 C 286.189 197.583,285.547 196.706,285.547 196.502 C 285.547 195.092,280.285 195.031,278.104 196.415 M356.399 195.823 C 350.928 197.916,349.445 205.433,353.961 208.179 C 357.637 210.415,365.219 209.563,366.281 206.794 C 366.824 205.379,363.628 204.972,362.003 206.250 C 360.826 207.176,358.403 207.287,357.570 206.454 C 357.252 206.136,356.732 205.731,356.414 205.553 C 356.095 205.374,355.729 204.579,355.601 203.786 L 355.367 202.344 360.886 202.344 C 366.084 202.344,366.406 202.300,366.406 201.588 C 366.406 197.499,360.664 194.191,356.399 195.823 M341.038 196.228 C 340.783 196.483,340.625 199.006,340.625 202.833 L 340.625 209.025 342.676 208.907 L 344.727 208.789 344.835 203.279 C 344.929 198.469,344.854 197.659,344.245 196.907 C 343.478 195.960,341.686 195.580,341.038 196.228 M360.690 198.856 C 362.531 200.305,362.060 200.781,358.789 200.781 C 355.585 200.781,355.394 200.617,356.817 199.080 C 357.969 197.838,359.297 197.761,360.690 198.856 M284.791 199.232 C 286.649 200.227,285.660 200.781,282.031 200.781 C 279.220 200.781,278.516 200.668,278.516 200.215 C 278.516 198.955,282.971 198.258,284.791 199.232 M259.757 200.582 C 262.997 202.257,261.310 204.927,256.743 205.353 L 254.297 205.582 254.297 202.791 L 254.297 200.000 256.465 200.000 C 257.657 200.000,259.139 200.262,259.757 200.582 M265.234 204.320 C 265.234 205.017,265.072 205.414,264.844 205.273 C 264.629 205.141,264.453 204.603,264.453 204.079 C 264.453 203.554,264.629 203.125,264.844 203.125 C 265.059 203.125,265.234 203.663,265.234 204.320 M277.494 204.980 C 277.626 205.356,277.834 205.928,277.955 206.250 C 278.076 206.572,277.812 206.421,277.369 205.914 C 276.517 204.940,276.334 204.297,276.908 204.297 C 277.097 204.297,277.361 204.604,277.494 204.980 M264.844 206.046 C 264.844 206.331,261.607 207.831,261.412 207.636 C 261.181 207.405,263.739 205.863,264.355 205.861 C 264.624 205.860,264.844 205.943,264.844 206.046 M278.818 207.669 C 279.151 208.002,280.234 208.203,281.692 208.203 C 283.151 208.203,283.940 208.350,283.789 208.594 C 283.092 209.721,278.816 208.901,277.173 207.325 L 276.367 206.552 277.326 206.843 C 277.853 207.003,278.524 207.375,278.818 207.669 M156.055 213.680 C 152.617 213.831,147.212 214.088,144.043 214.251 L 138.281 214.548 138.285 219.871 C 138.287 222.800,138.243 236.665,138.187 250.684 C 138.130 264.702,138.149 276.172,138.229 276.172 C 138.666 276.172,142.969 273.326,142.969 273.037 C 142.969 272.848,143.979 272.093,145.215 271.358 C 149.816 268.621,152.006 267.240,153.617 266.057 C 155.144 264.936,160.851 261.176,163.379 259.625 L 164.453 258.966 164.453 236.124 L 164.453 213.281 163.379 213.344 C 162.788 213.379,159.492 213.530,156.055 213.680 M352.148 215.577 L 350.977 215.827 350.866 220.255 C 350.766 224.257,350.690 224.657,350.085 224.419 C 348.217 223.683,345.494 223.808,343.780 224.709 C 335.744 228.934,339.701 241.868,348.438 239.930 C 349.404 239.716,351.182 239.629,352.388 239.736 C 355.189 239.986,355.018 240.825,355.057 226.660 L 355.088 215.234 354.204 215.281 C 353.718 215.306,352.793 215.439,352.148 215.577 M253.499 217.850 C 248.222 218.673,248.441 227.527,253.797 229.902 C 258.922 232.175,260.605 234.332,258.386 235.786 C 256.667 236.912,254.547 236.628,252.443 234.988 L 250.586 233.541 250.115 234.642 C 248.565 238.265,250.377 240.208,255.322 240.226 C 258.883 240.239,260.010 239.895,261.662 238.291 C 265.680 234.392,263.563 229.913,256.250 226.842 C 253.514 225.693,253.328 225.561,253.195 224.667 C 253.061 223.765,253.691 223.513,254.073 224.316 C 254.201 224.585,254.228 224.391,254.132 223.886 C 253.705 221.622,256.558 219.767,257.227 221.875 C 257.363 222.305,257.795 222.656,258.188 222.656 C 258.580 222.656,259.002 222.920,259.126 223.242 C 259.273 223.625,259.881 223.828,260.884 223.828 L 262.418 223.828 262.094 222.394 C 261.250 218.652,258.313 217.099,253.499 217.850 M268.100 219.424 C 267.340 219.561,267.294 219.702,267.646 220.824 C 267.861 221.509,268.051 222.290,268.068 222.559 C 268.085 222.827,268.210 223.047,268.346 223.047 C 268.482 223.047,268.827 222.827,269.111 222.559 C 269.525 222.168,269.665 222.168,269.808 222.559 C 269.906 222.827,270.324 223.047,270.736 223.047 C 271.450 223.047,271.484 223.429,271.484 231.445 L 271.484 239.844 273.828 239.844 L 276.172 239.844 276.172 231.445 L 276.172 223.047 277.655 223.047 L 279.137 223.047 278.924 221.191 L 278.711 219.336 273.828 219.303 C 271.143 219.286,268.565 219.340,268.100 219.424 M259.673 224.886 C 260.158 224.979,260.862 224.976,261.235 224.878 C 261.608 224.780,261.211 224.704,260.352 224.708 C 259.492 224.712,259.187 224.792,259.673 224.886 M282.813 225.058 C 282.813 225.304,283.974 227.897,285.393 230.819 C 286.812 233.742,288.172 236.968,288.415 237.988 L 288.857 239.844 290.646 239.844 L 292.435 239.844 293.141 237.598 C 293.729 235.727,297.154 228.040,298.434 225.717 C 298.748 225.149,298.497 225.051,296.428 224.936 C 293.701 224.784,293.934 224.545,292.396 229.079 C 290.673 234.159,290.705 234.182,288.215 226.074 L 287.766 224.609 285.289 224.609 C 283.686 224.609,282.813 224.767,282.813 225.058 M329.974 226.068 L 328.516 227.526 328.516 226.263 C 328.516 225.027,328.479 225.000,326.758 225.000 L 325.000 225.000 325.000 232.617 L 325.000 240.234 327.105 240.234 L 329.211 240.234 329.269 235.934 C 329.333 231.274,329.470 230.917,332.883 226.506 C 334.853 223.960,332.444 223.597,329.974 226.068 M303.198 229.395 C 303.309 232.853,303.503 234.087,304.111 235.189 C 304.535 235.959,305.220 237.226,305.631 238.005 C 306.781 240.181,309.809 240.880,312.756 239.648 C 313.527 239.326,314.224 239.063,314.306 239.063 C 314.387 239.063,314.453 239.326,314.453 239.648 C 314.453 240.280,315.209 240.376,317.139 239.990 L 318.359 239.746 318.359 232.373 L 318.359 225.000 316.211 225.000 L 314.063 225.000 314.063 229.072 C 314.063 233.833,313.075 235.547,310.332 235.547 C 308.331 235.547,307.813 234.224,307.813 229.121 L 307.813 225.000 305.435 225.000 L 303.058 225.000 303.198 229.395 M349.410 228.512 C 350.805 230.053,350.695 234.263,349.219 235.848 C 346.666 238.587,343.546 235.144,344.337 230.461 C 344.795 227.751,347.709 226.632,349.410 228.512 M314.448 233.887 C 314.427 235.009,313.810 236.053,312.978 236.369 C 311.544 236.914,311.476 236.526,312.742 235.003 C 313.832 233.693,314.459 233.282,314.448 233.887 M151.946 248.664 C 151.621 250.106,151.307 250.656,150.989 250.338 C 150.730 250.079,151.635 247.266,151.978 247.266 C 152.134 247.266,152.120 247.895,151.946 248.664 " stroke="none" fill="#000000" fill-rule="evenodd"></path><path id="path2" d="M0.000 200.000 L 0.000 400.000 190.625 400.000 L 381.250 400.000 381.250 396.875 L 381.250 393.750 384.375 393.750 L 387.500 393.750 387.500 396.875 L 387.500 400.000 390.625 400.000 L 393.750 400.000 393.750 396.875 L 393.750 393.750 396.875 393.750 L 400.000 393.750 400.000 196.875 L 400.000 0.000 200.000 0.000 L 0.000 0.000 0.000 200.000 M140.676 106.865 C 142.034 107.632,144.204 109.009,145.498 109.923 C 146.793 110.838,149.697 112.704,151.953 114.070 C 154.209 115.436,156.888 117.136,157.906 117.847 C 158.924 118.559,159.835 119.141,159.929 119.141 C 160.024 119.141,161.171 119.852,162.480 120.721 L 164.858 122.301 164.753 131.170 L 164.648 140.039 151.270 140.142 L 137.891 140.245 137.891 122.857 C 137.891 113.293,137.962 105.469,138.048 105.469 C 138.135 105.469,139.317 106.097,140.676 106.865 M132.031 127.930 L 132.031 148.047 131.077 148.047 C 130.196 148.047,124.562 147.120,107.813 144.221 L 101.367 143.106 101.262 134.487 L 101.157 125.869 104.685 123.677 C 106.625 122.471,108.357 121.484,108.534 121.484 C 108.712 121.484,110.072 120.697,111.557 119.735 C 113.043 118.773,114.390 117.982,114.552 117.977 C 114.801 117.970,120.296 114.755,129.688 109.122 C 130.869 108.413,131.880 107.829,131.934 107.823 C 131.987 107.817,132.031 116.865,132.031 127.930 M48.438 140.417 C 50.049 140.732,52.598 141.266,54.102 141.603 C 55.605 141.940,59.473 142.744,62.695 143.390 C 65.918 144.036,69.170 144.728,69.922 144.927 C 73.154 145.783,100.184 151.412,108.594 152.980 C 111.494 153.521,115.801 154.374,118.164 154.877 C 120.527 155.379,124.702 156.193,127.441 156.685 L 132.422 157.579 132.422 168.415 C 132.422 174.375,132.290 179.332,132.129 179.430 C 131.968 179.529,130.078 179.265,127.930 178.845 C 125.781 178.424,122.617 177.844,120.898 177.555 C 107.301 175.267,100.373 174.101,94.141 173.051 C 90.166 172.381,85.353 171.580,83.445 171.271 C 81.538 170.963,77.846 170.260,75.242 169.709 C 72.638 169.158,69.102 168.533,67.383 168.320 C 64.168 167.922,50.759 165.342,50.486 165.070 C 50.403 164.986,49.573 161.429,48.643 157.166 C 47.713 152.902,46.495 147.447,45.937 145.043 C 44.837 140.304,44.773 139.844,45.215 139.844 C 45.376 139.844,46.826 140.102,48.438 140.417 M222.656 144.430 C 222.656 144.589,222.310 146.390,221.886 148.433 C 221.462 150.477,220.475 155.752,219.691 160.156 C 218.908 164.561,218.147 168.683,218.000 169.316 C 217.680 170.701,217.296 170.820,210.547 171.636 C 207.861 171.960,200.918 172.834,195.117 173.576 C 177.485 175.834,170.038 176.727,162.109 177.535 C 158.994 177.852,155.215 178.290,153.711 178.509 C 152.207 178.727,148.691 179.171,145.898 179.495 C 143.105 179.819,140.249 180.179,139.551 180.294 L 138.281 180.504 138.281 165.240 C 138.281 153.379,138.390 149.938,138.770 149.807 C 139.038 149.715,144.355 149.365,150.586 149.030 C 175.575 147.687,183.059 147.247,184.171 147.057 C 184.811 146.948,189.733 146.588,195.109 146.256 C 200.485 145.925,208.486 145.337,212.891 144.949 C 222.885 144.070,222.656 144.082,222.656 144.430 M260.299 161.241 C 261.373 161.667,261.969 162.222,262.362 163.164 C 263.271 165.339,262.913 165.482,258.696 164.623 C 255.213 163.914,254.304 165.937,257.422 167.460 C 258.389 167.932,260.059 168.723,261.133 169.218 C 263.852 170.470,264.922 172.371,264.746 175.637 C 264.499 180.220,261.871 182.216,256.445 181.938 C 251.252 181.672,250.017 180.400,250.457 175.771 L 250.586 174.414 252.930 174.414 L 255.273 174.414 255.469 175.977 C 255.660 177.507,255.699 177.542,257.364 177.661 C 262.231 178.011,260.862 173.224,255.559 171.347 C 254.435 170.950,253.516 170.496,253.516 170.339 C 253.516 170.182,253.096 169.829,252.582 169.554 C 249.911 168.125,250.211 162.109,253.009 161.008 C 255.357 160.085,257.561 160.155,260.299 161.241 M297.266 161.476 C 298.662 161.970,299.787 162.578,299.766 162.828 C 299.744 163.077,299.700 163.638,299.668 164.075 C 299.580 165.266,298.627 165.416,296.065 164.640 C 289.630 162.691,288.192 166.762,294.534 168.970 C 299.317 170.635,301.016 174.582,298.864 179.028 C 296.927 183.029,289.479 183.203,286.214 179.322 C 284.174 176.897,285.480 174.134,287.891 175.777 C 291.511 178.246,295.144 177.528,294.282 174.515 C 293.959 173.389,293.537 173.079,290.612 171.827 C 280.735 167.597,287.002 157.848,297.266 161.476 M282.031 163.086 L 282.031 164.844 279.883 164.844 L 277.734 164.844 277.734 173.242 L 277.734 181.641 275.195 181.641 L 272.656 181.641 272.656 173.242 L 272.656 164.844 270.508 164.844 L 268.359 164.844 268.359 163.086 L 268.359 161.328 275.195 161.328 L 282.031 161.328 282.031 163.086 M317.111 163.184 L 316.992 165.039 314.558 165.155 L 312.125 165.271 312.019 173.554 L 311.914 181.836 309.766 181.836 L 307.617 181.836 307.512 173.554 L 307.406 165.273 305.168 165.156 C 302.942 165.040,302.929 165.032,302.805 163.732 C 302.569 161.279,302.419 161.328,310.165 161.328 L 317.230 161.328 317.111 163.184 M259.094 175.202 C 258.965 175.780,257.063 175.903,256.426 175.375 C 256.119 175.120,255.948 174.782,256.045 174.624 C 256.306 174.203,259.195 174.750,259.094 175.202 M72.579 178.302 C 74.018 178.615,77.217 179.239,79.688 179.690 C 90.727 181.705,92.630 182.053,96.680 182.798 C 99.043 183.232,102.207 183.760,103.711 183.970 C 105.215 184.179,108.818 184.807,111.719 185.364 C 118.209 186.610,124.552 187.701,128.809 188.305 L 132.031 188.762 132.031 197.651 L 132.031 206.540 129.004 206.785 C 127.339 206.921,121.055 207.207,115.039 207.423 C 109.023 207.639,103.223 207.900,102.148 208.004 C 101.074 208.107,97.734 208.278,94.727 208.382 C 91.719 208.487,86.333 208.688,82.758 208.829 L 76.259 209.085 75.997 207.179 C 75.726 205.208,75.085 202.593,71.345 188.193 C 69.125 179.646,68.797 177.734,69.552 177.734 C 69.778 177.734,71.140 177.990,72.579 178.302 M199.562 186.035 C 198.352 191.586,195.293 203.301,194.969 203.625 C 194.798 203.796,190.455 204.100,185.318 204.301 C 169.987 204.900,157.295 205.447,149.215 205.855 C 145.028 206.066,140.854 206.242,139.941 206.245 L 138.281 206.250 138.281 197.105 L 138.281 187.959 139.746 187.735 C 140.552 187.612,144.023 187.324,147.461 187.095 C 150.898 186.867,155.645 186.513,158.008 186.309 C 160.371 186.105,164.766 185.760,167.773 185.543 C 170.781 185.326,175.176 184.967,177.539 184.745 C 179.902 184.523,185.249 184.085,189.421 183.772 C 193.593 183.459,197.094 183.114,197.201 183.007 C 197.308 182.900,198.041 182.813,198.830 182.813 L 200.265 182.813 199.562 186.035 M342.347 185.184 C 342.469 185.307,342.261 186.362,341.885 187.528 L 341.200 189.648 338.991 189.520 C 336.864 189.396,335.292 189.855,334.674 190.781 C 334.516 191.018,334.384 195.210,334.381 200.098 L 334.375 208.984 332.031 208.984 L 329.688 208.984 329.688 201.018 C 329.688 194.057,329.608 193.022,329.059 192.811 C 327.061 192.045,330.324 186.336,333.398 185.218 C 334.572 184.791,341.928 184.764,342.347 185.184 M262.006 189.034 C 264.367 190.805,265.106 195.053,263.386 196.969 C 262.827 197.593,262.862 197.717,263.818 198.468 C 267.261 201.177,266.529 207.253,262.515 209.277 C 260.775 210.155,252.031 210.611,250.227 209.919 C 249.684 209.711,249.609 208.359,249.609 198.758 L 249.609 187.833 255.176 187.959 C 260.358 188.077,260.829 188.151,262.006 189.034 M377.808 192.383 L 377.687 196.877 379.092 196.047 C 384.112 193.086,388.631 197.082,388.975 204.785 L 389.163 208.984 386.816 208.984 L 384.468 208.984 384.308 205.330 C 383.916 196.350,377.734 196.497,377.734 205.487 L 377.734 208.984 375.208 208.984 L 372.681 208.984 372.571 198.437 L 372.461 187.890 375.195 187.890 L 377.930 187.889 377.808 192.383 M318.359 191.406 L 318.555 194.336 320.117 194.531 C 323.226 194.920,322.449 198.022,319.238 198.042 C 318.389 198.047,318.359 198.172,318.359 201.736 L 318.359 205.426 320.215 205.545 C 322.702 205.705,323.310 208.153,321.056 208.939 C 315.723 210.798,313.672 208.962,313.672 202.325 L 313.672 198.047 312.500 198.047 C 311.372 198.047,311.328 197.982,311.328 196.289 C 311.328 194.596,311.372 194.531,312.500 194.531 L 313.672 194.531 313.672 191.667 C 313.672 188.245,313.695 188.215,316.196 188.361 L 318.164 188.477 318.359 191.406 M254.766 194.141 L 254.766 196.484 256.307 196.484 C 257.893 196.484,259.766 195.167,259.766 194.050 C 259.766 192.664,258.569 191.797,256.658 191.797 L 254.766 191.797 254.766 194.141 M305.439 195.933 C 307.754 197.881,306.918 199.394,304.162 198.242 C 302.345 197.483,300.994 197.499,300.205 198.289 C 299.313 199.180,300.296 200.213,302.349 200.541 C 305.667 201.072,307.031 202.681,307.031 206.062 C 307.031 210.096,299.606 211.609,296.708 208.166 C 294.538 205.587,296.792 203.727,299.503 205.859 C 300.567 206.697,303.286 206.937,303.722 206.233 C 304.125 205.580,303.121 204.688,301.982 204.688 C 298.392 204.688,294.994 200.050,296.509 197.219 C 297.808 194.792,303.166 194.021,305.439 195.933 M362.956 196.127 C 364.850 197.094,366.255 199.004,366.594 201.074 L 366.866 202.734 361.362 202.734 L 355.859 202.734 355.859 203.683 C 355.859 205.486,357.851 206.571,360.259 206.079 C 363.447 205.428,366.797 205.366,366.797 205.958 C 366.797 209.119,358.183 211.036,354.272 208.746 C 345.965 203.882,354.331 191.727,362.956 196.127 M285.723 196.296 C 285.949 196.688,286.716 197.672,287.428 198.483 C 288.454 199.649,288.771 200.410,288.948 202.127 L 289.172 204.297 283.844 204.297 C 278.156 204.297,277.831 204.429,279.474 206.072 C 280.650 207.248,282.099 207.301,284.727 206.265 C 286.575 205.537,286.711 205.533,287.505 206.175 L 288.340 206.851 287.525 207.887 C 285.506 210.454,280.128 210.900,276.947 208.764 C 273.906 206.722,271.908 202.328,273.368 200.894 C 273.760 200.510,274.486 199.608,274.982 198.891 C 277.348 195.470,284.286 193.794,285.723 196.296 M344.208 196.350 C 344.840 196.922,344.922 197.679,344.922 202.990 L 344.922 208.984 342.773 208.984 L 340.625 208.984 340.625 202.604 C 340.625 199.095,340.742 196.107,340.885 195.964 C 341.386 195.463,343.499 195.709,344.208 196.350 M356.872 199.414 L 356.232 200.391 358.780 200.391 C 361.454 200.391,361.792 200.150,360.614 199.084 C 359.512 198.087,357.633 198.253,356.872 199.414 M279.825 199.197 C 277.766 200.075,279.468 200.781,283.648 200.781 C 285.066 200.781,285.751 200.023,284.841 199.461 C 284.166 199.044,280.621 198.857,279.825 199.197 M254.688 201.091 C 254.688 201.744,254.907 202.367,255.176 202.476 C 255.566 202.633,255.566 202.679,255.176 202.704 C 254.896 202.721,254.688 203.255,254.688 203.953 L 254.688 205.172 257.017 205.004 C 262.478 204.609,262.298 200.534,256.800 200.078 L 254.688 199.903 254.688 201.091 M164.844 236.115 L 164.844 258.948 163.965 259.568 C 163.481 259.908,161.152 261.419,158.789 262.925 C 156.426 264.431,153.877 266.141,153.125 266.726 C 152.373 267.310,149.868 268.917,147.559 270.297 C 145.249 271.676,143.359 272.949,143.359 273.126 C 143.359 273.467,139.726 275.868,138.574 276.289 C 137.927 276.525,137.891 274.897,137.891 245.551 L 137.891 214.564 140.332 214.309 C 141.675 214.168,145.850 213.944,149.609 213.810 C 153.369 213.677,156.519 213.503,156.608 213.424 C 156.698 213.346,158.587 213.281,160.807 213.281 L 164.844 213.281 164.844 236.115 M132.031 244.668 C 132.031 277.383,132.120 276.192,129.571 277.782 C 126.603 279.635,124.839 280.803,122.266 282.623 C 120.869 283.611,117.090 286.154,113.867 288.275 C 110.645 290.395,106.907 292.974,105.562 294.006 C 102.771 296.146,101.277 297.007,101.088 296.582 C 101.017 296.421,101.021 278.409,101.097 256.555 L 101.236 216.820 102.473 216.631 C 103.154 216.527,105.557 216.346,107.813 216.230 C 110.068 216.114,114.639 215.840,117.969 215.620 C 126.199 215.078,127.603 214.996,129.980 214.914 L 132.031 214.844 132.031 244.668 M355.078 227.734 L 355.078 240.234 353.148 240.234 C 352.087 240.234,351.124 240.083,351.010 239.898 C 350.896 239.713,349.875 239.807,348.741 240.107 C 340.417 242.307,335.419 230.479,342.417 225.143 C 343.778 224.106,344.140 224.024,347.334 224.025 L 350.781 224.026 350.781 219.891 C 350.781 215.112,350.718 215.234,353.190 215.234 L 355.078 215.234 355.078 227.734 M260.467 218.869 C 261.534 219.891,262.500 222.129,262.500 223.580 C 262.500 224.030,262.124 224.234,261.230 224.270 L 259.961 224.322 261.328 224.569 C 263.446 224.951,261.808 225.398,258.464 225.351 C 255.921 225.315,255.790 225.275,257.031 224.923 C 259.960 224.093,260.034 223.883,257.422 223.812 L 254.883 223.743 256.597 223.406 C 258.422 223.047,259.174 222.656,258.038 222.656 C 257.661 222.656,257.016 222.261,256.606 221.777 L 255.859 220.898 255.061 221.842 C 253.640 223.521,254.566 225.671,257.182 226.764 C 264.233 229.710,266.041 236.178,260.731 239.460 C 257.937 241.187,249.295 240.358,249.453 238.379 C 249.475 238.110,249.519 237.133,249.551 236.207 C 249.651 233.335,250.272 232.961,252.289 234.564 C 254.399 236.242,256.117 236.619,257.765 235.767 C 260.304 234.454,259.368 233.082,254.150 230.469 C 250.480 228.631,249.838 227.684,249.694 223.899 C 249.503 218.869,251.014 217.447,256.324 217.658 C 258.996 217.764,259.453 217.897,260.467 218.869 M279.073 220.020 C 279.746 223.277,279.689 223.438,277.862 223.438 L 276.172 223.438 276.172 231.855 L 276.172 240.272 273.730 240.155 L 271.289 240.039 271.184 231.738 L 271.078 223.438 269.035 223.438 L 266.992 223.439 267.126 221.290 L 267.260 219.141 273.076 219.141 C 278.793 219.141,278.894 219.156,279.073 220.020 M289.250 228.613 C 289.895 230.708,290.537 232.422,290.676 232.422 C 290.816 232.422,291.521 230.708,292.242 228.613 L 293.555 224.805 296.191 224.689 C 297.642 224.626,298.828 224.736,298.828 224.934 C 298.828 225.356,297.413 228.624,295.331 233.008 C 294.515 234.727,293.611 236.968,293.322 237.988 L 292.798 239.844 290.763 239.844 L 288.727 239.844 288.127 237.780 C 287.797 236.645,286.891 234.517,286.114 233.052 C 284.961 230.880,282.428 225.142,282.423 224.690 C 282.422 224.627,283.694 224.627,285.249 224.690 L 288.077 224.805 289.250 228.613 M308.203 229.623 C 308.440 235.457,309.220 236.620,311.729 234.875 C 313.841 233.407,314.036 232.882,314.050 228.613 L 314.063 224.609 316.211 224.609 L 318.359 224.609 318.442 230.273 C 318.487 233.389,318.531 236.860,318.540 237.988 L 318.555 240.039 316.309 240.156 C 314.882 240.231,314.063 240.119,314.063 239.850 C 314.063 239.551,313.816 239.557,313.232 239.870 C 311.867 240.601,306.612 240.178,306.091 239.296 C 305.856 238.900,305.298 238.018,304.851 237.336 C 303.455 235.209,303.125 233.619,303.125 229.025 L 303.125 224.572 305.566 224.688 L 308.008 224.805 308.203 229.623 M328.516 225.586 C 328.516 226.123,328.661 226.563,328.838 226.563 C 329.016 226.563,329.574 226.123,330.078 225.586 C 331.546 224.024,335.219 224.185,333.827 225.750 C 333.525 226.090,332.383 227.673,331.288 229.269 L 329.297 232.170 329.297 236.202 L 329.297 240.234 326.953 240.234 L 324.609 240.234 324.609 232.422 L 324.609 224.609 326.563 224.609 C 328.385 224.609,328.516 224.674,328.516 225.586 M345.341 228.764 C 343.414 231.213,344.715 236.328,347.266 236.328 C 349.399 236.328,350.787 233.391,350.013 230.516 C 349.276 227.781,346.834 226.865,345.341 228.764 " stroke="none" fill="none" fill-rule="evenodd"></path></g></svg>