<svg xmlns="http://www.w3.org/2000/svg" xmlns:v="https://vecta.io/nano" width="400" height="528.474"><path d="M8.049 30.391l-.114 376.841-.05.589.442-.001c.586-.002.764-.11.359-.219-.2-.054-.342-.154-.431-.304-.125-.212-.132-10.626-.131-203.76L8.087 0c-.021 0-.038 13.676-.038 30.391m231.484-28.94c.01.297.037.559.06.582.076.076.045 1.146-.035 1.195-.042.026-.056.081-.031.121.056.091.109 4.334.055 4.421-.022.035-.037.283-.035.551.006.66.003.639.09.639.051 0 .076-1.347.073-4.025-.003-3.173-.024-4.024-.099-4.024-.069 0-.09.149-.078.54m.123 8.04c0 .188.015.265.033.171a1.09 1.09 0 0 0 0-.342c-.018-.094-.033-.017-.033.171m-.103.589c-.041.338.01 1.045.075 1.067.056.018.083-.166.083-.548 0-.45-.12-.843-.158-.519m.031 2.295c-.05.564-.075 1.04-.056 1.058.131.131.186-.231.167-1.101l-.021-.98-.09 1.023m-.024 2.199c-.159.092-.118 1.144.044 1.144.084 0 .107-.134.107-.608 0-.334-.008-.606-.019-.605s-.07.032-.132.069M52.999 112.49v96.394h.779.778l.019.614c.035 1.131.189.973.266-.272l.019-.304.588-.022.588-.023v-35.684-35.684h3.797 3.796v-1.659-1.659l-.512-.049c-.282-.027-1.99-.049-3.797-.049h-3.284l.019-57.485.019-57.485 63.934.005 65.451.005 1.519.001v34.49 34.49l.398.077.398.078.02 22.912.019 22.912h-39.521l-39.921.049-.398.048v.938c0 1.012-.008 1.034-.273.749l-.176-.19h-5.242-5.243l-.015-.436c-.008-.241-.007-.582.004-.76l.018-.322H85.832 74.617l.044.732c.07 1.172-.584 1.048 5.675 1.074l5.313.022v.756.756h14.807 14.806v34.543 34.543l.437.048.583.062c.126.013.151.086.172.508.047.906.19.902.284-.009l.053-.502.393-.047c.217-.026.555-.048.752-.048l.359-.001.021-1.12.021-1.12.57-.024c1.114-.048 1.491.032 1.648.35.116.237.199.295.579.406.244.071.503.183.576.249.182.165.14.183 1.043-.431l.811-.55.765-.038.766-.038.038-.721.038-.722.569-.094c.377-.062.946-.078 1.68-.048.775.031 1.126.019 1.163-.039s-.107-.084-.465-.084c-1.342 0-2.825-.043-2.865-.082-.024-.025-.066-.264-.092-.532-.074-.736.231-.677-3.53-.677h-3.332v-11.162-11.162h24.677 24.678v11.161 11.162l-4.537.019-4.537.02-.038.569-.038.57-.592.048c-.902.073-.884.153.061.267l.531.064.038.722.038.721h6.606 6.606l-.009-.73-.009-.73.753-.091a10.43 10.43 0 0 1 1.726-.038c.694.038.988.028 1.025-.033s-.069-.087-.349-.088c-1.088-.004-2.96-.073-3.022-.111-.038-.024-.093-.25-.122-.503-.048-.424-.073-.472-.333-.636l-.282-.178-.049-.747c-.027-.411-.05-5.402-.05-11.092v-10.346h18.792 18.793v11.162 11.162h-.74a12.8 12.8 0 0 0-1.136.049l-.396.047-.022.54-.022.541-.873.079c-.93.083-.764.168.391.198l.428.011.045.274a6.23 6.23 0 0 1 .046.785l.001.513h2.847 2.848l.019-34.15.019-34.149h10.402 10.403l.021.739.022.738 1.497.021 1.497.02.019 34.72.019 34.719h1.708 1.709v-1.659-1.659l.923-.05c1.193-.064 8.581-.064 11.802.001l2.499.049-.02 7.392-.02 7.391h-7.472c-4.11 0-7.526-.021-7.592-.046-.098-.038-.12-.179-.12-.759v-.714h-.755-.755l-.048-.322c-.026-.178-.037-1.964-.023-3.97l.024-3.646-1.177.007c-3.465.022-5.983 2.158-7.614 6.46l-.4 1.054-.933.021c-.836.019-.931.035-.909.152s.215.136 1.943.184c1.055.029 2.113.093 2.353.142.812.166 1.494.213 3.187.217l1.69.005v25.816 25.817h7.992l9.301.05 1.31.049v10.77 10.77l-9.283.019-9.282.02-.021 1.499-.02 1.5h18.794 18.794v-.749-.749l.545-.067c.55-.068.832-.257.383-.257-.123 0-.382-.022-.575-.049l-.353-.048v-.485c0-.453.013-.49.199-.561l.198-.075-.032-4.953c-.03-4.514-.045-4.98-.166-5.257-.192-.437-.284-2.307-.258-5.239l.021-2.43.661.023a9.82 9.82 0 0 1 1.063.094c.221.039.898.14 1.503.225 1.79.251 2.026.301 3.417.734 2.25.7 2.337.74 3.924 1.784a35.92 35.92 0 0 0 1.553.975c.625.349 1.359 1.04 1.856 1.746.22.313.696.894 1.058 1.291a10.17 10.17 0 0 1 1.02 1.329 63.82 63.82 0 0 0 .893 1.442c1.448 2.271 2.36 5.038 2.44 7.404.05 1.479.051 1.48.268 1.765.367.479.574.348.257-.162-.157-.252-.173-.381-.194-1.566-.039-2.199-1.041-5.303-2.378-7.368a50.28 50.28 0 0 1-.866-1.393c-.208-.351-.712-1.012-1.12-1.468s-.8-.922-.87-1.034c-.582-.928-1.659-1.929-2.78-2.586-.369-.216-.967-.59-1.328-.831-1.439-.959-2.255-1.288-5.137-2.072-.735-.2-4.101-.667-4.839-.671l-.434-.003-.021-.93c-.018-.766-.042-.93-.135-.93-.204 0-.168 9.357.037 9.871.147.366.152.557.152 5.308v4.928l-7.894-.017-7.953-.054c-.033-.021-.06-6.775-.06-15.01v-14.973h-.588-.589l-.022-.555c-.03-.729-.19-.709-.244.03l-.038.525-.759.038-.759.038-.038 2.658c-.035 2.469-.048 2.657-.171 2.651-.073-.003-3.481-.012-7.574-.019l-7.441-.013V243.66v-22.172h7.593 7.593v3.949 3.948l.512.012.762.019.249.007.03.56c.051.937.204.923.319-.029l.064-.531.532-.009.531-.009.019-12.868.019-12.869.923-.05c1.212-.065 120.864-.064 124.343.001l2.676.05v43.42 43.42h-45.558-45.558v1.518 1.517l3.199.02 3.199.02.009 1.075c.011 1.278-.079 1.151.861 1.212l.767.051.057.957c.065 1.088.09 14.073.033 16.573-.037 1.585-.032 1.653.122 1.86l.16.216 1.244.023c1.626.031 2.133-.054 3.523-.593l1.86-.718c4.233-1.626 8.016-5.257 10.29-9.874 1.127-2.29 1.401-3.09 1.75-5.124l.303-1.727c.035-.164.068-.169 1.154-.19.951-.017 1.121-.039 1.141-.141.02-.107-.169-.127-1.556-.171-1.547-.049-2.453-.121-3.439-.274-.271-.042-1.416-.079-2.543-.083-2.843-.008-6.462-.128-6.872-.228-.615-.151-5.391-.21-5.391-.067 0 .104.304.131 2.373.209 1.305.05 2.543.127 2.752.171.22.047 2.217.107 4.746.144 3.92.056 4.444.078 5.125.215.608.123 1.302.217 2.025.276.158.013.168-.077-.237 2.282-.58 3.382-2.92 7.59-5.788 10.409-2.124 2.088-3.651 3.006-7.275 4.374-2.427.915-4.909 1.146-5.229.485-.109-.225-.148-17.984-.041-18.704l.048-.322h.75.751v-1.177-1.177h16.704 16.705l.019 15.357.019 15.357 7.954.019 7.954.019v-1.519-1.519h-6.454-6.455v-13.857-13.857h22.4 22.4l-.02 13.838-.019 13.838-5.467.038-5.467.038-.022.589-.022.588-.623.012c-.343.007-.686.007-.763 0a.54.54 0 0 0-.261.056c-.083.046.095.084.557.118l.869.065c.186.015.19.027.211.745l.022.731.349.048c.193.026 2.669.048 5.503.048h5.152l-.019 39.464-.019 39.465h-40.584-40.585l-.038-43.242-.038-43.242-1.678-.021-1.679-.02-.053 1.099c-.03.604-.048 1.723-.04 2.488l.013 1.389-.516-.028c-.284-.015-1.211-.003-2.059.028l-1.543.055-.001.58c-.002.916-.004.92-.596.929-1.176.018-1.421.108-.504.185.459.038.88.066.935.06.118-.011.087 1.181-.049 1.874-.045.229-.154 1.099-.242 1.932s-.178 1.543-.199 1.577-.065 1.481-.098 3.215c-.054 2.832-.073 3.162-.189 3.246s-.133.419-.181 3.409c-.063 3.973-.007 3.748-.941 3.735-1.046-.016-3.243-.464-4.693-.957-3.613-1.23-8.192-4.637-9.447-7.032-.247-.471-.668-1.222-.936-1.669-1.373-2.293-1.89-3.748-2.264-6.372-.106-.743-.242-1.566-.303-1.829-.206-.9-.199-.91.797-1.148.56-.134.822-.143 3.013-.107 1.886.031 2.387.019 2.342-.054s-.248-.083-.749-.054c-.38.022-1.375.014-2.21-.017-1.681-.063-2.384-.006-3.093.25l-.476.171.017.453c.009.249.051.607.095.795s.144.854.224 1.481c.314 2.46.826 3.959 2.104 6.159.24.412.668 1.173.952 1.69 2.041 3.715 7.716 7.442 12.668 8.318l1.803.323.702.128v1.315c0 1.264.006 1.315.152 1.315.132 0 .153-.052.156-.399.011-1.292.14-2.771.267-3.056.121-.271.138-.628.162-3.303.029-3.209.042-3.427.215-3.57.093-.078.111-.422.112-2.077 0-2.058.097-4.109.229-4.831.042-.23.127-1.045.189-1.811s.132-1.424.155-1.462c.049-.077 2.768-.092 3.546-.019l.512.049v37.176l-.05 39.055-.05 1.88-20.43-.002-20.831-.049-.401-.047.019-39.036.02-39.037 8.333-.019 8.333-.02v-1.658-1.658l-1.265-.05c-1.614-.064-37.331-.049-38.294.016l-.722.048-.021.733-.022.733-.89.061-.889.061.7.061c1.101.097 1.074.075 1.1.911l.022.705 10.289.044 10.288.056-.019 26.741-.019 26.727-9.662.019-9.662.02-.021 1.299-.02 1.299 2.04.037c1.962.035 2.046.043 2.204.2l.163.164h7.479 7.479v10.82 10.82l-6.814-.009-8.144-.057-1.329-.048-.062-.465-.062-.465-.525-.052c-.667-.066-.63.038-.649-1.787-.008-.857-.045-1.567-.08-1.576s-.064.468-.064 1.063l-.019 1.678-.019.597-.727-.032c-.525-.023-.745-.062-.796-.142-.042-.067-.07 13.71-.071 35.129l-.001 35.239-2.6.054c-1.431.029-5.112.05-8.182.045-9.497-.014-9.415-.015-9.415.112 0 .091.176.115.968.133l.968.021.051.646c.144 1.812.539 3.595 1.161 5.239l.703 1.86c.863 2.287 1.898 3.816 4.042 5.971 2.731 2.743 4.096 3.52 9.323 5.3.69.235 3.298.682 4.153.713l.375.013.09-.456c.111-.557.209-3.606.12-3.744-.036-.056-.084.619-.112 1.557-.042 1.442-.127 2.328-.233 2.434-.018.017-.385-.043-.817-.132a37.17 37.17 0 0 0-1.787-.311c-1.444-.213-5.314-1.586-7.13-2.53-2.469-1.285-5.721-4.63-6.944-7.145-.749-1.54-1.958-4.848-2.155-5.899-.273-1.456-.495-2.894-.497-3.219l-.001-.234 8.844-.046 9.092-.159c.139-.064.535-.124.894-.138l.646-.024.02.532c.036.927.242.977.244.06.002-.568.076-.63.756-.63h.46v-33.029-33.03l.817-.004 74.411-.007 73.595-.003V211.192 16.096l-5.144.02-5.144.019-.038.721-.038.722-.456.049c-.25.027-16.89.055-36.978.062l-36.661.068c-.077.03 16.307.054 36.408.052l36.966.079.417.081.038 3.22c.035 2.989.048 3.222.171 3.246s.133-.142.133-2.633c0-1.849.025-2.674.083-2.71.046-.029 1.686-.026 3.645.005l3.561.056-.019 90.708-.019 90.708-72.703.012c-39.987.006-72.865-.006-73.064-.027l-.36-.038.019-90.71.019-90.71 4.252-.003 4.335.023c.057.017.101.858.138 2.659.053 2.554.082 2.83.288 2.703.033-.021.06-1.54.06-3.378v-3.34l-.186-.172c-.165-.154-.189-.247-.209-.813l-.022-.64-97.552-.019-97.551-.019v96.393m197.229-94.822c-.534.036-.757.094-.674.178s1.165-.026 1.366-.142c.156-.091.151-.092-.692-.036m1.056.081c.076.075 52.354.087 52.55.012.084-.032-11.718-.061-26.227-.064s-26.354.02-26.323.052m-17.021 1.384l1.728.001v33.03 33.03h-5.876-5.876l-.034-4.765c-.026-3.602-.058-4.82-.13-4.992-.188-.445-.226-1.259-.232-4.974-.007-4.105-.044-5.087-.193-5.087-.141 0-.185.262-.187 1.111l-.001.77-.436.051c-4.595.539-7.564 1.697-10.991 4.286-1.042.788-2.838 2.504-3.477 3.322-1.517 1.944-1.907 2.639-2.742 4.897l-.619 1.622c-.072.167-.251.645-.398 1.063l-.268.759-.034 1.69-.034 1.689h.806c.665 0 .805-.02.805-.114 0-.062-.059-.117-.132-.12s-.219-.015-.323-.024-.335-.023-.513-.031l-.323-.014.045-1.424c.053-1.711.071-1.801.64-3.246l.838-2.202c.463-1.263 1.214-2.744 1.72-3.391l.737-.967c2.466-3.322 7.726-6.415 12.143-7.142 1.896-.312 2.488-.377 2.523-.275.016.045.041 1.705.056 3.688.025 3.299.039 3.636.168 3.949s.144.703.184 5.178l.043 4.836.171.159c.128.119.171.244.171.498v.339h-.565c-.516 0-.748.079-.616.211.028.027.288.063.578.08.578.032.646.1.59.592l-.025.218-10.422.019-10.421.019v-1.139-1.139h-6.524c-3.588 0-6.578-.021-6.644-.046-.113-.044-.201-65.907-.088-66.02.025-.025 16.67-.023 44.178.005m14.005 7.568c-.116.115-.06 6.936.057 6.936.18 0 .202-.472.179-3.79-.022-3.009-.046-3.336-.236-3.146m129.751.116c-.124.509-.002 6.704.133 6.73.17.033.173-6.819.002-6.876-.051-.016-.112.049-.135.146M248.216 39.208c0 3.31.023 3.694.214 3.504.135-.135.056-6.908-.081-6.934-.125-.025-.133.179-.133 3.43m129.802-3.274c-.123.503 0 6.699.133 6.724.125.024.133-.18.133-3.435 0-3.005-.015-3.46-.112-3.46-.062 0-.132.077-.154.171M248.216 48.319c0 3.311.023 3.695.214 3.505.135-.136.056-6.908-.081-6.935-.125-.024-.133.18-.133 3.43m129.802-3.273c-.123.503 0 6.698.133 6.724.125.024.133-.18.133-3.435 0-3.005-.015-3.46-.112-3.46-.062 0-.132.077-.154.171M248.215 56.581c-.001 1.434-.022 2.885-.048 3.225-.054.706.008 1.166.157 1.166.247 0 .272-6.924.025-6.971-.125-.024-.133.139-.134 2.58m129.811-2.475c-.072.19-.051 6.664.023 6.781.208.328.235-.067.235-3.45 0-2.899-.017-3.451-.106-3.451-.058 0-.126.054-.152.12M248.19 64.588c-.028.822-.05 2.381-.05 3.463v1.967l.171-.024.17-.024v-3.416c0-3.062-.012-3.418-.12-3.439s-.127.163-.171 1.473m129.828-1.319c-.123.503 0 6.699.133 6.724.125.024.133-.18.133-3.435 0-3.005-.015-3.46-.112-3.46-.062 0-.132.077-.154.171m-129.954 9.157c0 .132.101.146 1.372.197 2.167.087 5.627-.023 5.597-.177-.04-.205-6.969-.224-6.969-.02m9.126-.008c.023.12.183.138 1.657.183 2.546.079 5.327-.004 5.297-.157-.021-.108-.389-.123-3.502-.14-3.285-.019-3.477-.013-3.452.114m9.111 0c.023.12.182.138 1.619.184 2.503.08 5.365-.005 5.336-.157-.021-.109-.387-.124-3.502-.141-3.285-.019-3.477-.013-3.453.114m9.065-.065c-.142.23.199.255 3.563.258 3.427.004 3.509-.001 3.429-.208-.051-.134-6.91-.183-6.992-.05m9.158.065c.023.12.182.138 1.62.184 2.502.08 5.365-.005 5.335-.157-.021-.109-.387-.124-3.502-.141-3.285-.019-3.477-.013-3.453.114m9.112 0c.023.12.182.138 1.619.184 2.503.08 5.365-.005 5.336-.157-.021-.109-.387-.124-3.502-.141-3.286-.019-3.477-.013-3.453.114m9.065-.065c-.143.232.196.256 3.564.259 3.425.003 3.508-.002 3.428-.209-.051-.134-6.91-.183-6.992-.05m9.158.065c.023.12.182.138 1.619.184 2.503.08 5.365-.005 5.336-.157-.021-.109-.387-.124-3.502-.141-3.285-.019-3.477-.013-3.453.114m9.112 0c.023.12.182.138 1.619.184 2.503.08 5.365-.005 5.336-.157-.021-.109-.388-.124-3.502-.141-3.286-.019-3.477-.013-3.453.114m9.111 0c.024.12.182.138 1.62.184 2.502.08 5.365-.005 5.335-.157-.021-.109-.387-.124-3.502-.141-3.285-.019-3.477-.013-3.453.114m9.112 0c.023.12.182.138 1.619.184 2.503.08 5.365-.005 5.336-.157-.021-.109-.387-.124-3.502-.141-3.286-.019-3.477-.013-3.453.114m9.112 0c.023.12.181.138 1.619.184 2.503.08 5.365-.005 5.335-.157-.02-.109-.387-.124-3.501-.141-3.286-.019-3.477-.013-3.453.114m9.111 0c.023.12.183.138 1.658.183 2.545.079 5.326-.004 5.297-.157-.021-.108-.389-.123-3.502-.14-3.285-.019-3.477-.013-3.453.114m9.112 0c.023.12.182.138 1.619.184 2.503.08 5.365-.005 5.336-.157-.021-.109-.387-.124-3.502-.141-3.286-.019-3.477-.013-3.453.114m9.439-.08c-.806.106-.217.241 1.078.247.861.004 1.129-.054.974-.21-.057-.056-1.681-.085-2.052-.037M207.213 86.396c-.311.104-.027.24.5.24.427 0 .568-.024.545-.095-.029-.088-.866-.205-1.045-.145m2.234.039c-.062.163.034.304.146.213.082-.066.551-.067.805-.002.06.016.122-.032.138-.105.025-.114-.03-.132-.388-.132-.229 0-.47-.021-.536-.046s-.138.002-.165.072m2.281-.036c-.151.151-.002.223.381.183.27-.027.455-.011.525.048.123.101.222.004.159-.158-.038-.097-.976-.162-1.065-.073m2.275.036c-.065.17.034.305.152.206.085-.071.515-.068.799.005.06.016.122-.032.138-.105.025-.114-.03-.132-.388-.132-.229 0-.47-.021-.536-.046s-.138.002-.165.072m2.289-.044c-.162.162-.022.248.326.202.222-.03.432-.016.527.035.168.09.324-.023.195-.141-.08-.073-.988-.156-1.048-.096m2.267.044c-.061.158.037.314.136.216.042-.042.271-.057.523-.034.381.034.448.022.448-.084 0-.1-.081-.124-.411-.124-.227 0-.466-.021-.531-.046-.071-.027-.138.002-.165.072m2.287-.042c-.17.169-.008.243.534.243.48 0 .571-.019.55-.118-.024-.116-.982-.227-1.084-.125m3.362 1.609c.013.084.048.157.076.163.22.042 1.909.058 6.449.062l5.258.004v22.931 22.931l-1.063.016-1.496.019-.433.003-.026-.304a50.18 50.18 0 0 0-.319-2.392c-.039-.23-.094-1.289-.122-2.354-.042-1.572-.074-1.972-.172-2.126s-.131-.598-.181-2.505c-.042-1.585-.095-2.436-.168-2.696-.166-.593-.19-.929-.211-3.021-.02-1.95-.02-1.958-.195-2.072-.096-.063-.161-.139-.144-.169.09-.156-.145-2.103-.254-2.103-.097 0-.11.166-.088 1.147l.026 1.146-.595.054c-2.956.268-6.026 1.343-8.404 2.945-1.975 1.33-3.357 2.524-4.067 3.516a104.87 104.87 0 0 1-1.332 1.784c-1.632 2.145-2.784 5.103-3.118 8.011a21.02 21.02 0 0 1-.459 2.516c-.028.106-.724.212-.941.143-.143-.046-.156-.11-.156-.766v-.716l-1.12-.014-2.449-.019-1.329-.005-.021.778-.022.778h-9.101-9.1l-.055-.759-.054-.759h-.214a1.14 1.14 0 0 1-.333-.047c-.109-.041-.12-2.136-.12-22.968V88.231l1.12-.003 7.308-.013c6.731-.011 6.758-.012 6.758-.208 0-.072.014-.145.032-.162.14-.14 20.812.016 20.835.157m7.153 29.063c.121 3.436.157 4.048.264 4.423.085.301.14 1.062.195 2.722.058 1.755.105 2.379.195 2.62s.132.82.178 2.517c.033 1.211.095 2.289.137 2.396s.133.67.201 1.253.175 1.23.236 1.438.119.568.13.798l.019.417-9.7.019-9.7.02v-.173c0-.095.069-.422.153-.727s.207-1.022.272-1.593c.297-2.616 1.607-6.229 2.816-7.766a99.3 99.3 0 0 0 1.232-1.625c1.715-2.305 4.738-4.46 8.131-5.795 1.356-.533 5.231-1.231 5.241-.944m-134.702 18.01v.602l-10.776-.014-10.836-.075c-.034-.033-.075-.298-.091-.588l-.03-.528h10.866 10.867v.603m10.972 1.523v.57l-10.776.021c-6.659.013-10.803-.006-10.847-.05s-.049-.296-.018-.61l.054-.539 10.794.02 10.793.019v.569m99.506.152v.759h.76.759v19.211 19.21h-45.178-45.179v-19.21-19.211h35.308 35.307v-.759-.759h9.112 9.111v.759m-16.296-.254c-.028.11-.03.888-.004 1.727.069 2.279.368 3.4 1.323 4.955.252.411.706 1.192 1.009 1.735 1.889 3.389 4.226 5.399 8.199 7.053 2.278.947 3.356 1.18 5.485 1.184l.664.001.003.513c.006 1.27.103 1.849.289 1.734.173-.107.072-17.471-.102-17.471-.151 0-.152.057-.171 7.422l-.02 7.422h-.778c-2.368 0-5.281-.821-7.494-2.111-2.775-1.618-4.306-3.152-5.699-5.709-.307-.564-.711-1.265-.898-1.557-1.086-1.699-1.41-2.884-1.497-5.467-.028-.835-.066-1.544-.085-1.575-.07-.118-.175-.05-.224.144m-68.518 65.864c.573.259 1.215 1.104 1.215 1.599 0 .355-1.773.543-2.796.297-.502-.121-.519-.167-.315-.853.262-.88.296-.929.684-.976.187-.022.408-.081.491-.131.211-.124.328-.114.721.064m63.364.147l-2.985.057c.238.01.454.052.479.094s.283.075.57.075.544-.034.569-.075c.061-.098 1.047-.1 1.144-.003.047.046.32.047.756.001.91-.096 1.658-.093 1.758.007.056.056.216.058.528.004.5-.086 5.545-.061 6.122.03.252.04.361.031.361-.029 0-.117 1.11-.118 1.182-.001.036.058.234.069.631.034.673-.06 1.172-.059 2.04.006.376.027.664.016.721-.03s.3-.06.551-.041l.974.072c.285.022.61.013.721-.019.467-.132-.661-.171-5.53-.19l-6.112-.026a420.09 420.09 0 0 0-4.48.034m-54.821.075c-2.572.075-1.05.126 2.847.095l5.182-.019c.052.01.599-.008 1.215-.04 1.057-.055 1.12-.051 1.12.081s.007.13.095.012c.079-.105.271-.131 1.12-.154.564-.015-1.521-.024-4.632-.02l-6.947.045m12.699-.028c.052.022.095.08.095.13 0 .065.147.074.55.033 1.484-.15 1.662-.155 1.84-.06.126.067.323.079.66.04.564-.066 1.323-.065 2.098.001.317.028.593.017.645-.024s.314-.055.585-.034.767.037 1.101.034l2.271.012c.388.006.611-.021.63-.077.021-.063-1.356-.087-5.27-.091-2.915-.002-5.257.014-5.205.036m11.541-.004c-.124.125.064.183.589.183.308 0 .581-.034.607-.075.029-.048-.119-.077-.394-.077-.243-.001-.51-.02-.595-.043s-.177-.017-.207.012m21.247.022c-.136.055-.136.063-.012.11.201.078 1.13.059 1.26-.024.08-.053-.02-.075-.342-.076-.251-.001-.524-.017-.608-.036s-.217-.007-.298.026m1.507.026c.212.118 1.902.162 1.994.051.074-.089-.082-.105-1.002-.105-.599 0-1.045.024-.992.054m2.442-.007c.023.037.107.067.188.067s.148-.03.148-.067-.085-.066-.189-.066-.17.03-.147.066m.535.045c.08.058.356.097.684.097.715 0 .83-.147.127-.163l-.73-.022c-.192-.008-.2.001-.081.088m22.124-.064c-.167.048-.173.061-.05.108.211.081 1.174.064 1.227-.022.029-.047-.094-.077-.318-.077a3.74 3.74 0 0 1-.517-.032.85.85 0 0 0-.342.023m-73.899.063a1.09 1.09 0 0 0 .342 0c.094-.018.017-.033-.171-.033s-.265.015-.171.033m12.191.975c-.151.267-.389 1.33-.475 2.117-.365 3.329-1.785 6.243-4.221 8.662-1.319 1.31-2.239 1.917-1.894 1.251.281-.543.978-2.619 1.287-3.833.425-1.664.453-1.735.668-1.684.504.12 1.827.286 2.115.265.546-.039.174-.175-1.192-.436-1.124-.215-1.68-.282-4.815-.579-.647-.062-1.519-.162-1.936-.223s-1.319-.165-2.002-.232-1.38-.171-1.547-.23c-.581-.205-.748-.085-.938.673-.054.218-.147.567-.206.776l-.108.379-.057-.768-.058-.769-.473-.049c-.26-.026-.786-.13-1.168-.229s-.714-.151-.737-.114c-.048.078 1.97 1.056 2.18 1.056.077 0 .141.026.143.057l.11 2.411c.025.586.093 1.142.165 1.367.103.318.131.962.169 3.986.046 3.541.05 3.607.199 3.607.142 0 .153-.058.173-.918l.021-.917 1.042-.238 1.991-.438c1.12-.237 2.027-.57 3.091-1.138.427-.227.79-.414.808-.414.132 0-.801 1.488-1.293 2.065-.333.389-.71.861-.838 1.048-.381.56-1.203 1.266-3.695 3.172-2.544 1.946-6.139 3.128-9.515 3.13-1.14.001-1.348.044-1.121.232.158.13 2.857.048 3.793-.116 2.727-.478 5.002-1.468 7.038-3.061 3.219-2.519 3.379-2.661 3.989-3.546.172-.251.554-.729.848-1.063s.675-.881.849-1.215c.486-.936.588-1.081.89-1.265 1.616-.985 3.617-3.099 4.661-4.924 1.136-1.984 1.643-3.47 1.881-5.504a40.47 40.47 0 0 1 .199-1.419c.136-.835.128-1.195-.021-.932m2.196.016c-.113.273-.049 2.69.086 3.246.84 3.482 1.501 4.609 4.437 7.566 2.314 2.332 2.333 2.346 3.705 2.902.456.184 1.264.543 1.796.798 1.111.533 1.322.59 2.412.656a15.71 15.71 0 0 1 1.556.189l1.11.187c.406.054.447.176.447 1.347 0 .533.015.6.133.577.149-.029.249-15.873.101-15.965-.316-.195-.31-.326-.31 6.887v6.836l-.451-.047c-.248-.026-.7-.098-1.006-.16s-1.02-.146-1.589-.185c-1.118-.077-1.462-.178-2.67-.781-.325-.162-1.007-.466-1.517-.676-1.38-.567-1.467-.632-3.385-2.531-2.563-2.537-3.034-3.246-3.913-5.892-.561-1.686-.662-2.224-.711-3.777-.039-1.219-.096-1.507-.231-1.177m44.754.295c-.026.194-.048.675-.048 1.07 0 1.769-.694 3.751-2.297 6.563-.86 1.508-2.438 3.252-3.854 4.258-.972.691-5.076 2.754-5.77 2.901l-2.442.515c-.069.014-.114-.165-.155-.625-.032-.355-.094-.793-.138-.973-.15-.618-.223-2.184-.229-4.912-.004-1.503-.04-2.904-.081-3.113-.194-.992-.227-1.324-.279-2.841-.054-1.593-.146-2.058-.293-1.474-.088.352.089 3.842.206 4.055.079.144.111 1.033.146 4.058l.095 3.954c.118.192.227 1.235.273 2.613.047 1.413.056 1.48.201 1.48s.152-.05.152-.909v-.909l1.101-.251c2.158-.491 2.337-.562 5.357-2.125 2.199-1.137 4.3-2.982 5.584-4.902.814-1.217 2.16-4.037 2.435-5.103.283-1.099.422-3.682.197-3.682-.076 0-.128.113-.161.352m3.014-.231c-.238.619.166 3.48.701 4.966.84 2.336 3.651 6.233 5.264 7.298 2.542 1.679 5.69 2.885 8.41 3.22l.391.048.05.334c.028.184.044.685.036 1.114-.014.719-.004.78.128.78.138 0 .145-.144.182-3.872.036-3.47.053-3.902.172-4.157.198-.425.166-8.28-.034-8.318-.117-.023-.129.288-.152 4.023-.022 3.598-.039 4.073-.151 4.278-.107.195-.134.621-.182 2.828l-.055 2.599h-.213c-1.552 0-3.994-.763-6.371-1.991-3.023-1.561-3.141-1.671-5.406-4.995-1.745-2.56-2.525-5.015-2.564-8.067-.003-.228-.132-.282-.206-.088m-65.824 1.503c-.129.057-.453.299-.72.538s-.588.486-.712.55-.535.396-.913.737-.887.733-1.131.873l-.445.254-.465-.129c-.634-.177-2.058-.259-2.011-.117.022.067.335.148.903.234.477.072 1.036.185 1.241.251.562.181 1.575.164 1.695-.028.151-.242.521-.257 1.311-.053.397.103.943.199 1.215.213l.493.026.038-.881c.027-.623.071-.92.151-1.017s.114-.327.114-.827l.001-.692-.266-.018a1.27 1.27 0 0 0-.499.086m112.169 2.221c-.117.117-.049.331.105.331.118 0 .151-.041.133-.165-.026-.171-.148-.256-.238-.166m-121.037 1.523c-.07.07-.049.945.028 1.124l.065.152.009-.152c.058-1.008.035-1.261-.102-1.124m10.591.065c.183.065 1.136.202 2.117.304l5.489.603c.45.063.954.114 1.12.114.339 0 .342.004.193.291-.059.114-.265.828-.459 1.587-.68 2.67-1.326 4.16-2.034 4.692-.998.75-2.674 1.415-4.422 1.753l-1.643.338c-.36.081-.687.147-.728.147s-.095-.924-.128-2.335c-.03-1.284-.083-2.489-.118-2.677l-.152-.782c-.231-1.149-.102-2.673.341-4.058.038-.118.025-.119.424.023m110.552.672c.078.905.011 5.96-.088 6.64l-.092.635-2.78-.037c-2.249-.03-2.859-.061-3.197-.16-.23-.067-.859-.156-1.397-.198-1.194-.092-1.111.027-.728-1.041.907-2.526 2.285-4.405 3.871-5.278.941-.517 2.437-.967 3.259-.979.275-.004.585-.035.69-.069.368-.12.414-.071.462.487m-180.948-.238c0 .139.269.177 1.765.246a16.56 16.56 0 0 1 1.633.157c.424.072 1.651.138 3.398.183 1.677.044 3.026.115 3.492.185.442.067 1.332.117 2.126.121 1.972.01 4.433.127 4.775.228l.294.087-.042.358c-.068.575-1.159 4.919-1.422 5.661-.533 1.504-1.169 2.668-1.935 3.535-.277.314-.634.76-.795.992-.923 1.337-3.215 3.374-4.671 4.153a40.02 40.02 0 0 0-1.709.97c-1.791 1.097-3.446 1.652-5.884 1.972a24.81 24.81 0 0 0-1.612.268c-1.189.253-1.159.273-1.319-.869-.05-.356-.12-.629-.155-.607-.115.071-.07.686.086 1.182.083.265.151.541.152.614.001.185.56.178 1.434-.016a21.48 21.48 0 0 1 1.612-.271c2.393-.309 3.788-.787 5.876-2.013.543-.319 1.32-.758 1.725-.975 1.3-.697 3.651-2.86 4.92-4.526a32.04 32.04 0 0 1 .945-1.177c.931-1.085 1.722-3.01 2.399-5.842l.613-2.416.24-.854h1.166c1.094 0 1.166-.009 1.166-.144s-.091-.148-1.196-.196c-.657-.029-1.435-.103-1.727-.165-.342-.072-1.331-.136-2.772-.179-2.829-.083-3.822-.138-4.252-.232-.188-.041-1.64-.107-3.227-.146-1.943-.048-3.108-.109-3.568-.188-1.075-.183-3.531-.25-3.531-.096m59.884 1.441c-.077.79-.078 1.39-.001 1.527.057.101.081-.142.089-.893.011-1.078-.021-1.313-.088-.634m-61.954.31c-.079.196-.068 1.054.016 1.186.115.182.161-.197.097-.794-.038-.347-.077-.483-.113-.392m62.001 1.797c0 .23.015.324.032.209a1.72 1.72 0 0 0 0-.418c-.017-.115-.032-.021-.032.209m-.049.514c-.054.086 0 4.344.055 4.4.026.026.048-.967.048-2.206 0-2.11-.011-2.343-.103-2.194m-61.96.568c.02.767.027.805.111.595.096-.241.062-1.145-.044-1.145-.051 0-.076.201-.067.55m-.025 2.297c-.007.44.014.569.096.569s.102-.125.088-.569c-.023-.755-.172-.755-.184 0m.049 1.647c-.051.313-.012 3.506.042 3.478.087-.045.106-3.413.019-3.466-.032-.02-.059-.025-.061-.012m61.935.048c-.035.056-.04.574-.01 1.152s.03 1.09.001 1.138c-.081.131-.078 1.102.004 1.102.04 0 .08-.58.093-1.355.028-1.619.003-2.177-.088-2.037m-61.952 4.549c-.066.126-.051 1.052.02 1.159.089.136.092.117.115-.59.016-.487-.044-.741-.135-.569m61.885.001c-.062.126-.014 1.046.055 1.064.043.011.08-.223.089-.551.012-.492-.048-.707-.144-.513m-61.884 2.246c-.083.205-.068 1.174.017 1.227.119.073.158-.263.096-.834-.038-.348-.077-.484-.113-.393m61.877.026c-.101.101-.054 1.066.057 1.158.155.129.175.037.138-.62-.032-.552-.071-.661-.195-.538m-1.265 92.242v89.56h-4.358c-3.904 0-4.363.012-4.404.12-.025.066-.046.322-.046.569v.45h-5.084-5.084l-.022-.513-.023-.512-1.063-.057c-.584-.031-5.436-.048-10.782-.038l-9.719.019-.022.55-.022.551h-5.302-5.302l-.052-.521-.051-.52-.623-.049c-.342-.026-2.118-.048-3.945-.049h-3.322v-88.463-88.462l-1.499.023-1.5.023-.019 145.159-.019 145.159 93.28.012 93.376.019c.074.006.094-.753.094-3.561v-3.569l-.569-.038-.57-.038-.079-.949-.079-.949-.058.835-.075.949c-.018.126-1.212.121-1.548-.006-.092-.035-1.134-.116-2.315-.18-2.201-.118-2.399-.134-3.249-.273-.271-.044-2.424-.109-4.783-.144-3.268-.049-4.453-.092-4.974-.181-.376-.064-1.127-.132-1.67-.151-.775-.026-.985-.056-.978-.138.004-.057.114-.497.242-.977s.426-1.742.662-2.805c.731-3.3 1.203-4.426 2.686-6.407 1.153-1.54 1.14-1.527 3.766-3.618 3.059-2.436 4.977-3.485 7.42-4.056 1.083-.253 1.341-.291 2.331-.343.63-.033.876-.073.901-.148.063-.191-2.359-.071-3.351.167-2.226.533-4.412 1.695-6.732 3.577-.438.356-1.121.891-1.518 1.191-3.292 2.482-4.925 5.235-5.961 10.05-.384 1.781-.758 3.331-.835 3.455-.027.044-.433.076-.954.076-.755 0-.906.019-.906.114 0 .087.095.114.398.115 1.449.005 3.492.103 4.234.203.638.086 2.017.135 5.125.181 2.338.035 4.423.099 4.632.142.786.161 1.807.241 3.758.293l2.012.053v2.05 2.05h-18.204-18.204l-.019-54.631-.019-54.632-40.984-.019-40.983-.019v-41.334-41.333l.399-.048c.219-.026 21.916-.048 48.215-.048l47.817-.001v-1.659-1.659l-.923-.049c-.507-.028-22.204-.05-48.215-.05h-47.293v-47.039-47.038h-1.518-1.519v89.559m142.673-87.173c0 .143-.236.133 2.771.123 2.678-.008 4.561.086 5.201.26.259.07 1.14.146 2.316.201l1.927.111c.048.043-.445 2.541-.677 3.42-.628 2.391-2.164 4.756-4.249 6.542-1.213 1.04-5.552 3.03-6.984 3.204-1.47.178-1.777.119-1.873-.363-.098-.493-.217-.387-.217.194v.512h1.215c1.767 0 2.076-.1 5.389-1.759 1.971-.987 2.021-1.018 2.694-1.652 2.935-2.762 3.965-4.548 4.714-8.168l.372-1.784c.058-.261-.075-.24 1.581-.255 1.061-.01 1.158-.023 1.158-.148s-.211-.142-3.512-.226c-2.197-.056-3.626-.123-3.816-.179-.527-.154-8.01-.186-8.01-.033m-1.721 2.287c.039.737.187.799.189.08.002-.453-.021-.577-.107-.577s-.103.103-.082.497m.148 1.211c0 .209.015.285.033.17s.017-.286-.001-.38-.033.001-.032.21m-.052.536c-.084.214-.086 1.093-.003 1.116.039.01.081-.232.094-.539.026-.618-.003-.801-.091-.577m.048 1.78c0 .146.015.206.035.133a.63.63 0 0 0 0-.266c-.02-.073-.035-.013-.035.133m-.056.514c-.107.079-.099 1.081.01 1.081.055 0 .087-.203.092-.57.003-.313-.001-.569-.01-.568s-.05.026-.092.057m.059 1.688c0 .188.015.265.033.171a1.09 1.09 0 0 0 0-.342c-.018-.094-.033-.017-.033.171m-.101.551c-.05.213-.044 1.116.007 1.198s.071.065.072-.086c.001-.109.023-.408.05-.665.034-.327.023-.466-.038-.466-.048 0-.089.008-.091.019m-.023 2.311c-.074.074-.056 1.034.022 1.157.045.071.077-.109.094-.52.024-.594-.004-.749-.116-.637m-.084 4.564c-.036.036.035 1.408.079 1.532.078.217.182-.091.183-.542.002-.683-.013-.671.835-.671 1.911 0 5.488 1.303 7.822 2.849 2.818 1.867 5.595 7.028 5.861 10.894l.024.342-2.392.044c-1.584.029-2.466.075-2.611.135-.251.104-3.41.23-6.083.242-1.652.007-2.297.086-2.035.248.126.078 8.005-.092 8.413-.182.226-.049 1.869-.103 4.062-.133 3.201-.044 3.683-.065 3.683-.164s-.203-.117-1.288-.135c-1.437-.023-1.369.006-1.445-.617-.645-5.237-3.634-9.819-7.745-11.872-2.056-1.027-3.433-1.57-4.655-1.839-.429-.094-2.639-.201-2.708-.131m.086 2.647c-.078.079-.058 1.037.025 1.165s.085.135.095-.646c.006-.49-.023-.616-.12-.519m.044 1.734c.001.167.017.227.035.132s.017-.231-.002-.304-.033.005-.033.172m-.027.532c-.055.091-.034 1.084.024 1.142.078.078.098-.156.06-.687-.021-.292-.058-.497-.084-.455m.107 1.708c0 .23.014.324.032.209a1.72 1.72 0 0 0 0-.418c-.018-.115-.032-.021-.032.209m-.105.584c-.04.374.01 1.126.076 1.148.106.035.113-1.096.006-1.162-.042-.026-.079-.02-.082.014m.103 1.694c0 .188.015.265.033.171a1.09 1.09 0 0 0 0-.342c-.018-.094-.033-.017-.033.171m-.063.615c-.042.067-.062.633-.038 1.06.02.363.148-.134.148-.576 0-.57-.016-.638-.11-.484m.004 2.254c-.103.074-.138 1.056-.039 1.117.122.075.163-.123.138-.669-.014-.317-.051-.483-.099-.448m35.845 34.558c-.337.04-.585.221-.335.243.324.029 1.027-.035 1.108-.101.25-.206.053-.242-.773-.142m-16.328.077c-.068.111.041.144.536.164.458.019.638-.027.638-.163 0-.093-1.116-.093-1.174-.001m2.257.025c.022.064.184.09.5.081.257-.007.467.017.467.055s.052.048.114.024c.34-.131.096-.255-.5-.255-.457 0-.605.024-.581.095m2.292.022c.109.081.249.098.521.062s.389-.022.44.057c.058.089.08.088.143-.009.136-.207.082-.227-.587-.225-.603.002-.651.013-.517.115m2.244-.05c0 .117.203.153.646.117.277-.023.411-.009.381.041s.001.058.07.031c.342-.131.103-.256-.49-.256-.334 0-.607.03-.607.067m2.312.05c.109.081.248.098.521.062s.389-.022.44.057c.057.089.079.088.143-.009.136-.207.082-.227-.588-.225-.602.002-.65.013-.516.115m2.264-.022c.023.064.185.09.5.081.257-.007.467.018.467.055s.051.048.114.024c.34-.131.096-.255-.5-.255-.458 0-.605.024-.581.095m2.258-.024c0 .201 1.163.255 1.201.056.022-.111-.056-.127-.588-.127-.337 0-.613.032-.613.071m65.709 30.755c-.606.245-.445 3.167.298 5.401 1.058 3.182 1.825 4.533 4.265 7.508a43.89 43.89 0 0 1 .893 1.139c1.175 1.569 2.988 2.855 5.334 3.784 3.284 1.3 5.576 1.92 7.973 2.155l.228.022.038 1.139c.036 1.075.046 1.139.19 1.139.151 0 .152-.057.171-10.08l-.121-10.08c-.197 0-.24 1.903-.24 10.609v6.94l-.361-.05c-.198-.028-.634-.099-.968-.158a26.17 26.17 0 0 0-1.184-.177c-1.091-.132-2.954-.711-5.502-1.71-2.557-1.002-4.199-2.158-5.502-3.874l-.923-1.187c-2.328-2.896-3.034-4.235-4.259-8.077l-.315-.987.002-1.574c.001-.866.019-1.592.041-1.614.115-.116 2.04-.312 2.251-.23.255.099 1.081.089 1.166-.014.097-.116-3.191-.139-3.475-.024m4.222-.019c.188.017.375.062.414.101.122.12.998.087 1.105-.043.083-.1-.022-.112-.883-.1-.537.007-.824.026-.636.042m2.032-.002c.095.018.232.017.304-.002s-.005-.033-.172-.033-.226.017-.132.035m.628.063c.123.148 1.144.129 1.194-.022.024-.071-.135-.095-.63-.095-.586 0-.65.013-.564.117m1.896-.061c.188.017.374.062.414.101.122.12.997.087 1.105-.043.083-.1-.022-.112-.883-.1-.538.007-.824.026-.636.042m2.031-.002a1.09 1.09 0 0 0 .342 0c.094-.018.017-.033-.171-.033s-.265.015-.171.033m.57.041c.041.127 1.024.169 1.24.054.156-.084.312-.079 1.497.047.473.05.813-.001.813-.121 0-.047-.671-.075-1.791-.075-1.399 0-1.784.021-1.759.095m3.986-.041a1.09 1.09 0 0 0 .342 0c.094-.018.017-.033-.171-.033s-.265.015-.171.033m.569.041c.048.146.957.163 1.275.025.257-.111.244-.114-.521-.117-.595-.002-.777.02-.754.092m-154.865.715c-.119.119-.03.177.272.177.445-.002.892-.082.892-.161s-1.089-.091-1.164-.016m2.455.006c-.188.016-.376.066-.418.11-.053.057.048.067.342.034a8.81 8.81 0 0 1 .778-.048c.199 0 .361-.035.361-.076 0-.074-.361-.081-1.063-.02m2.164.013c-.209.024-.329.064-.266.087.176.066 1.443-.011 1.443-.088s-.558-.073-1.177.001m2.05.007c-.535.037-.601.052-.304.071.616.039 1.662-.006 1.785-.077s-.374-.071-1.481.006m2.24 0c-.607.044-.583.048.394.061.627.009 1.058-.016 1.087-.061.05-.082-.376-.082-1.481 0m2.278 0c-.712.046-.707.047.356.061.653.009 1.096-.015 1.124-.061.05-.081-.236-.081-1.48 0m2.316-.003c-.605.046-.606.046-.19.081.611.052 1.604-.002 1.553-.084-.046-.074-.353-.073-1.363.003m2.505-.018c-.167.017-.338.067-.379.111-.054.057.068.067.409.033.268-.026.635-.048.817-.048s.33-.034.33-.075c0-.074-.544-.084-1.177-.021m51.709.021c-.638.044-.609.048.432.061.678.009 1.134-.015 1.162-.061.051-.082-.415-.082-1.594 0m2.316 0c-.593.043-.557.048.436.061.68.009 1.082-.014 1.082-.061 0-.081-.432-.081-1.518 0m2.278 0c-.712.046-.707.047.356.061.652.009 1.096-.015 1.124-.061.05-.081-.236-.081-1.48 0m2.277.004c-.483.032-.264.05.874.069 1.828.031 2.848.006 2.992-.072.119-.066-2.866-.063-3.866.003m-55.542 59.147c-.807.086-1.908.463-4.095 1.402-.885.38-3.866 1.922-4.258 2.202-1.425 1.021-5.065 5.221-6.215 7.173-.885 1.501-1.565 3.731-1.775 5.825-.054.532-.076.592-.211.576-.673-.083-2.163-.108-2.163-.036 0 .11.113.138 1.177.286.501.07.968.158 1.039.195s.378.067.683.068c.681 0 2.167.125 2.682.225.208.04 1.08.127 1.936.191s1.813.154 2.126.197 1.389.143 2.392.221a132.77 132.77 0 0 1 6.136.619c1.079.127 1.982.21 2.008.184.094-.094-.112-.17-.817-.3l-1.245-.246c-.288-.061-1.225-.161-2.084-.222s-1.75-.143-1.982-.183-1.195-.127-2.14-.192-1.902-.149-2.126-.189-1.057-.126-1.851-.192-1.784-.17-2.202-.232-1.286-.145-1.929-.186-1.185-.089-1.201-.106c-.087-.087.624-3.502.897-4.31.373-1.106 1.103-2.476 1.752-3.291.199-.25.743-.968 1.208-1.594.979-1.318 3.28-3.705 4.095-4.247 1.299-.864 6.224-3.072 7.559-3.39.72-.17 2.853-.227 3.334-.088.249.072.396.574.425 1.46l.014.418.071-.456c.107-.695.048-1.376-.135-1.559-.259-.259-1.762-.367-3.105-.223m3.145 2.586c-.003.017-.022.117-.043.222-.057.297.057 1.222.123.987.06-.214.036-1.13-.031-1.197-.024-.024-.046-.029-.049-.012m-.015 2.327c-.089.167-.057 1.173.036 1.142.068-.023.099-.203.102-.583.002-.494-.053-.718-.138-.559m.003 2.274c-.065.122-.057 1.051.009 1.155.099.153.146-.078.133-.65-.01-.44-.067-.645-.142-.505m0 2.282c-.087.177-.057 1.172.034 1.141.067-.022.098-.203.099-.583.001-.493-.053-.721-.133-.558m.01 2.229c-.04.162-.031 1.146.012 1.215.087.142.14-.141.123-.666-.012-.373-.095-.711-.135-.549m-.01 2.327c-.087.177-.057 1.172.034 1.141.067-.023.098-.203.099-.583.001-.493-.053-.721-.133-.558M95.899 407.421l.001.398-5.144.02H80.315l-5.296-.02v-.379-.378l9.131-.019 10.44-.02 1.309.001v.397m-85.326.156c-.748.031-.701.168.057.168.334 0 .608-.032.608-.072 0-.109-.072-.12-.665-.096m1.765.017c-.078.126.157.167.662.115a13.82 13.82 0 0 1 2.243-.011c.34.027.55.016.55-.03 0-.095 1.084-.1 1.181-.005.044.042.357.04.794-.006a7.55 7.55 0 0 1 1.139-.036c.848.076 1.442.089 1.442.032 0-.082 1.091-.076 1.181.005.04.037.391.035.793-.004a7.99 7.99 0 0 1 1.139-.03c.86.08 1.443.092 1.443.032 0-.084 1.088-.081 1.181.002.04.037.391.035.793-.004.397-.037.91-.051 1.139-.031 1.045.095 1.443.106 1.443.04 0-.088 1.083-.093 1.181-.005.04.037.391.035.793-.004s.909-.051 1.139-.031c1.045.095 1.443.106 1.443.04 0-.088 1.083-.093 1.18-.005.041.037.392.035.794-.004.397-.037.909-.051 1.139-.03.859.08 1.443.092 1.443.032 0-.084 1.088-.081 1.18.002.04.037.391.035.794-.004.396-.037.909-.051 1.139-.03 1.145.104 1.394.104 1.499-.001.091-.091-2.141-.106-15.347-.106l-15.5.077m31.436-.023c.209.015.431.048.493.074.23.095.952.083 1.139-.019.167-.09.056-.102-.911-.092-.605.006-.93.022-.721.037m2.429.035c1.228.178 1.471.186 1.508.044.032-.122-.046-.132-.964-.122-.892.01-.95.019-.544.078m2.615.019c.146.176 1.144.197 1.144.025 0-.116-.08-.133-.617-.133-.524 0-.603.016-.527.108m2.226-.013c.033.102.972.177 1.186.095.241-.093-.092-.188-.661-.189-.412-.001-.548.024-.525.094m34.226 1.348v.759h16.514 16.515v-.759-.76h40.809 40.809l.023 54.146-.006 54.492-.027.346-2.668-.049c-1.467-.028-33.838-.051-71.935-.051H56.036v-53.682-53.683h3.987 3.986v-.759-.76h10.63H85.27v.76m20.865-.209l-.023.55H95.869c-11.677 0-10.336.092-10.245-.702l.046-.399h10.244 10.243l-.022.551m132.217 66.395c.004.285.032.604.062.708l.054.19.041-.19c.066-.309.007-1.17-.082-1.2-.054-.018-.08.15-.075.492m.065 1.733c-.062.54-.045 1.257.029 1.232.102-.034.133-1.013.039-1.194-.033-.062-.064-.079-.068-.038m-.017 2.368c-.066.114-.056 1.048.012 1.154.099.154.146-.079.13-.652-.012-.45-.065-.636-.142-.502m-.044 2.837c-.009.464.012.609.084.585.12-.041.129-1.134.009-1.174-.052-.017-.085.192-.093.589m.062 1.681c-.037.306-.003 2.067.039 2.025.07-.07.101-1.963.032-2.006-.037-.023-.07-.031-.071-.019m-.058 2.845c.029.751.175.762.173.013-.001-.372-.033-.555-.098-.577-.074-.024-.092.108-.075.564m.059 9.726l-.029 2.905c-.004.041.027.076.069.075.084 0 .109-4.68.029-5.39-.026-.23-.057.855-.069 2.41m-.002 4.134c-.051.338-.016 3.472.038 3.454.088-.029.11-3.388.023-3.442-.032-.02-.059-.025-.061-.012m-.005 4.548c-.043.155-.036 1.118.009 1.202.09.168.144-.109.127-.653-.012-.376-.093-.704-.136-.549m-.012 2.328c-.017.032-.027.279-.024.551.01.717.156.701.169-.019.009-.514-.047-.719-.145-.532m-.019 2.311c-.07.185-.006 1.087.078 1.087.101 0 .142-1.027.044-1.125-.052-.052-.092-.04-.122.038" fill-rule="evenodd"/></svg>