<svg id="svg" xmlns="http://www.w3.org/2000/svg" xmlns:xlink="http://www.w3.org/1999/xlink" width="400" height="106.03448275862068" viewBox="0, 0, 400,106.03448275862068"><g id="svgg"><path id="path0" d="M207.651 29.249 C 206.049 29.636,201.105 32.624,200.306 33.688 C 199.844 34.303,198.778 35.679,197.938 36.746 C 197.098 37.812,196.110 39.237,195.741 39.912 C 195.373 40.587,194.725 41.654,194.301 42.283 C 192.754 44.579,190.645 50.089,189.746 54.186 C 189.215 56.604,189.290 56.777,190.896 56.853 C 192.396 56.924,192.672 56.651,192.672 55.096 C 192.672 53.738,193.919 49.922,194.673 48.969 C 194.794 48.817,194.913 48.425,194.939 48.099 C 194.992 47.421,197.820 41.869,198.690 40.733 C 199.008 40.318,199.498 39.591,199.779 39.116 C 200.060 38.642,200.783 37.706,201.384 37.035 C 201.986 36.365,202.715 35.502,203.005 35.119 C 203.787 34.084,206.456 32.874,207.970 32.870 L 209.152 32.866 209.443 33.728 C 209.603 34.203,209.735 35.172,209.736 35.884 C 209.738 36.595,209.889 37.953,210.073 38.901 C 210.471 40.955,210.313 47.585,209.819 49.561 C 209.655 50.217,209.466 51.444,209.400 52.286 C 209.334 53.129,209.193 54.050,209.087 54.334 C 208.981 54.617,208.779 55.528,208.638 56.358 C 208.498 57.188,208.043 59.008,207.629 60.403 C 207.214 61.798,206.833 63.205,206.783 63.528 C 206.732 63.852,206.478 64.809,206.219 65.655 C 205.565 67.786,206.424 69.433,207.978 69.027 C 208.964 68.769,209.226 68.197,210.364 63.813 C 210.593 62.935,210.866 62.111,210.971 61.981 C 211.263 61.624,213.147 57.135,213.147 56.797 C 213.147 56.418,214.172 54.368,214.447 54.198 C 214.561 54.127,214.655 53.825,214.655 53.527 C 214.655 53.229,215.029 52.337,215.485 51.546 C 215.942 50.755,216.718 49.412,217.209 48.561 C 217.701 47.711,218.103 46.856,218.103 46.661 C 218.103 46.466,218.392 45.887,218.744 45.375 C 219.352 44.491,220.263 42.632,222.424 37.862 C 224.044 34.288,225.822 32.805,226.347 34.591 C 226.669 35.684,226.666 53.038,226.344 53.602 C 226.162 53.920,226.043 55.352,225.987 57.885 C 225.935 60.230,225.713 63.045,225.408 65.220 C 224.863 69.110,224.861 69.098,226.199 69.400 C 227.631 69.722,227.809 69.472,230.185 63.793 C 230.805 62.311,231.725 60.323,232.230 59.375 C 232.735 58.427,233.451 56.787,233.821 55.732 C 234.191 54.677,234.827 53.174,235.234 52.392 C 235.641 51.610,236.307 50.194,236.713 49.246 C 237.830 46.636,239.090 44.310,239.332 44.413 C 239.664 44.554,239.484 51.817,239.116 53.125 C 238.949 53.718,238.747 55.124,238.667 56.250 C 238.587 57.376,238.432 58.535,238.323 58.826 C 237.623 60.687,238.521 69.948,239.586 71.851 C 240.595 73.654,244.840 76.939,246.162 76.939 C 246.362 76.940,246.590 77.043,246.669 77.170 C 246.747 77.296,246.971 77.336,247.166 77.258 C 247.362 77.180,247.764 77.075,248.060 77.024 C 249.518 76.772,249.994 76.621,251.245 76.014 C 253.003 75.160,255.725 72.374,256.693 70.438 C 258.067 67.689,258.924 67.011,259.165 68.481 C 260.483 76.524,263.714 80.203,269.504 80.255 L 272.306 80.280 275.384 78.811 C 279.157 77.011,279.108 77.006,280.384 79.235 C 282.759 83.384,285.052 84.431,288.413 82.899 C 290.471 81.961,291.388 81.131,292.474 79.223 C 293.686 77.092,293.944 76.958,295.240 77.790 C 295.804 78.152,296.366 78.448,296.488 78.448 C 296.609 78.448,296.965 78.650,297.278 78.896 C 297.701 79.228,298.278 79.374,299.516 79.460 C 300.434 79.524,301.400 79.710,301.663 79.874 C 302.074 80.131,302.284 80.124,303.171 79.824 C 305.555 79.019,306.711 78.030,308.518 75.250 C 309.987 72.991,310.743 73.022,311.093 75.356 C 311.220 76.207,311.472 76.621,312.627 77.887 C 313.387 78.720,314.009 79.509,314.009 79.641 C 314.009 80.525,317.458 82.226,318.833 82.019 C 320.814 81.722,322.772 79.853,323.370 77.689 C 323.533 77.099,323.969 75.759,324.340 74.712 C 324.710 73.664,325.068 72.355,325.134 71.802 C 325.237 70.937,326.536 66.428,327.210 64.590 C 327.629 63.450,328.280 63.891,328.739 65.625 C 328.959 66.455,329.475 68.152,329.885 69.397 C 330.296 70.641,330.816 72.358,331.039 73.211 C 332.303 78.028,336.572 85.038,338.634 85.684 C 338.900 85.767,339.553 86.135,340.086 86.501 C 340.620 86.868,341.347 87.324,341.703 87.515 C 342.058 87.706,343.125 88.314,344.073 88.865 C 347.328 90.757,350.862 89.409,350.862 86.276 C 350.862 85.145,350.673 85.040,349.244 85.374 C 343.505 86.715,336.701 80.345,334.478 71.552 C 334.344 71.018,333.963 70.097,333.632 69.504 C 333.302 68.912,332.962 68.087,332.877 67.672 C 332.791 67.258,332.348 65.803,331.892 64.440 C 331.436 63.077,330.996 61.622,330.915 61.207 C 330.260 57.884,329.524 56.963,327.827 57.346 C 326.649 57.612,325.867 58.904,325.863 60.592 C 325.861 61.574,325.041 63.856,324.286 64.978 C 323.815 65.679,323.469 66.546,323.297 67.457 C 323.151 68.227,322.710 69.828,322.316 71.013 C 321.923 72.198,321.534 73.459,321.452 73.815 C 320.977 75.885,319.270 78.448,318.368 78.448 C 317.677 78.448,315.160 75.982,314.470 74.628 C 313.119 71.981,312.598 68.373,313.293 66.487 C 313.468 66.013,313.700 65.199,313.809 64.679 C 313.918 64.159,314.145 63.457,314.314 63.119 C 314.825 62.094,314.743 56.723,314.203 55.835 C 312.900 53.693,310.627 54.791,310.233 57.753 C 310.146 58.402,309.934 59.150,309.761 59.414 C 309.586 59.680,309.520 60.016,309.613 60.165 C 309.705 60.314,309.771 60.779,309.760 61.199 C 309.748 61.618,309.715 63.028,309.685 64.332 C 309.612 67.472,309.151 68.681,306.610 72.386 C 303.540 76.862,301.955 77.606,298.815 76.047 C 295.532 74.418,294.887 73.376,296.069 71.612 C 296.958 70.285,297.304 69.501,297.498 68.371 C 297.565 67.984,297.897 67.109,298.236 66.426 C 299.629 63.618,300.533 59.245,300.406 55.927 C 300.374 55.097,300.463 53.303,300.603 51.940 C 301.666 41.619,299.127 34.374,296.262 39.547 C 292.953 45.520,290.797 50.295,290.411 52.502 C 290.247 53.442,290.005 54.496,289.873 54.844 C 289.740 55.192,289.491 56.451,289.319 57.641 C 289.146 58.832,288.945 60.214,288.871 60.712 C 288.797 61.211,288.851 62.071,288.990 62.624 C 289.130 63.177,289.377 65.049,289.540 66.783 C 289.801 69.563,289.927 70.141,290.601 71.676 C 291.491 73.703,291.454 74.089,290.168 76.194 C 289.737 76.901,289.186 77.818,288.944 78.233 C 287.853 80.105,287.300 80.300,285.567 79.421 C 282.243 77.737,281.006 73.930,282.344 69.504 C 282.451 69.149,282.678 68.130,282.847 67.241 C 283.016 66.352,283.442 64.558,283.793 63.254 C 284.144 61.950,284.497 60.059,284.578 59.052 C 284.659 58.044,284.864 56.444,285.034 55.496 C 285.583 52.427,286.173 48.423,286.313 46.815 C 286.388 45.952,286.589 44.912,286.759 44.505 C 286.983 43.970,287.069 42.843,287.069 40.447 L 287.069 37.130 286.189 36.129 C 284.715 34.456,283.399 34.879,280.480 37.964 C 278.632 39.918,277.915 41.354,276.300 46.336 C 275.566 48.599,275.010 52.611,275.104 54.957 C 275.204 57.438,275.901 62.646,276.261 63.609 C 276.366 63.888,276.568 64.793,276.710 65.621 C 276.853 66.449,277.053 67.226,277.155 67.349 C 277.257 67.472,277.458 68.444,277.601 69.508 C 277.745 70.573,277.941 71.531,278.037 71.638 C 278.613 72.279,276.891 74.538,274.944 75.695 L 273.393 76.616 270.802 76.616 C 268.388 76.616,268.145 76.577,267.241 76.046 C 266.117 75.385,263.793 73.029,263.793 72.551 C 263.793 72.040,262.694 68.762,262.478 68.629 C 262.372 68.563,262.277 68.103,262.268 67.606 C 262.259 67.109,262.138 66.327,261.999 65.868 C 261.826 65.298,261.793 64.202,261.893 62.419 C 261.975 60.982,262.086 58.836,262.141 57.651 C 262.212 56.121,262.498 54.459,263.125 51.923 C 264.346 46.988,264.251 46.121,262.490 46.121 C 261.044 46.121,259.057 50.699,258.529 55.247 C 257.868 60.939,254.641 68.631,251.757 71.386 C 248.087 74.892,243.428 73.566,242.355 68.712 C 242.190 67.962,241.926 66.961,241.771 66.487 C 241.425 65.436,241.453 56.580,241.805 55.513 C 241.929 55.135,242.070 54.055,242.117 53.113 C 242.380 47.836,242.678 43.704,242.876 42.565 C 243.352 39.830,243.127 38.722,242.053 38.508 C 240.160 38.129,238.403 39.703,236.320 43.642 C 235.756 44.709,234.977 46.067,234.589 46.659 C 234.200 47.252,233.776 48.246,233.646 48.868 C 233.516 49.490,233.108 50.654,232.739 51.454 C 232.370 52.255,231.686 53.817,231.218 54.926 C 230.215 57.304,229.753 58.072,229.484 57.803 C 229.172 57.491,229.177 50.660,229.492 46.444 C 230.316 35.390,229.903 31.795,227.694 30.790 C 225.220 29.664,222.364 31.354,220.614 34.977 C 218.617 39.114,216.164 44.346,216.164 44.469 C 216.164 44.545,215.720 45.300,215.178 46.146 C 214.636 46.992,213.986 48.108,213.734 48.626 C 213.259 49.604,213.000 49.783,212.802 49.269 C 212.619 48.790,213.121 43.328,213.468 42.026 C 213.717 41.093,213.737 40.564,213.560 39.543 C 213.402 38.634,213.404 38.065,213.564 37.643 C 214.130 36.154,213.344 32.222,212.173 30.687 C 211.208 29.422,209.363 28.835,207.651 29.249 M63.793 35.570 C 62.350 35.744,59.545 36.556,57.651 37.348 C 56.241 37.938,53.699 40.009,52.729 41.359 C 51.840 42.597,48.769 46.309,47.720 47.414 C 45.943 49.286,44.480 54.116,44.659 57.520 L 44.754 59.340 46.307 60.820 C 47.160 61.634,48.122 62.406,48.445 62.536 C 48.767 62.665,49.612 62.985,50.323 63.247 C 52.251 63.957,52.201 64.334,49.343 70.707 C 48.993 71.487,48.707 72.276,48.707 72.460 C 48.707 72.644,48.543 73.302,48.343 73.922 C 47.988 75.022,47.990 75.070,48.451 75.940 C 48.711 76.431,48.924 77.026,48.924 77.263 C 48.925 77.973,50.994 83.449,51.785 84.834 C 53.362 87.594,58.790 91.395,61.129 91.376 C 62.531 91.365,65.490 90.110,68.750 88.145 C 69.876 87.467,71.593 86.511,72.565 86.023 C 73.537 85.534,74.611 84.867,74.951 84.539 C 75.982 83.546,78.931 81.163,79.555 80.819 C 80.188 80.470,81.261 79.136,82.156 77.586 C 82.464 77.053,83.114 76.212,83.600 75.717 C 84.085 75.223,84.483 74.686,84.483 74.524 C 84.483 74.042,85.964 70.624,86.329 70.266 C 86.779 69.823,87.631 70.759,87.842 71.930 C 87.923 72.374,88.109 72.980,88.257 73.276 C 88.405 73.572,88.591 74.154,88.672 74.569 C 88.752 74.984,88.907 75.517,89.016 75.754 C 89.125 75.991,89.402 76.880,89.631 77.728 C 90.747 81.860,93.310 83.374,97.589 82.431 C 100.421 81.806,100.455 81.780,101.600 79.389 C 102.159 78.219,103.033 76.584,103.542 75.754 C 104.051 74.925,104.684 73.518,104.948 72.629 C 105.212 71.740,105.554 70.867,105.709 70.690 C 106.046 70.303,106.623 69.006,107.437 66.810 C 107.767 65.921,108.397 64.467,108.838 63.578 C 109.279 62.689,109.762 61.646,109.911 61.261 C 110.327 60.186,111.392 60.315,111.840 61.496 C 112.113 62.213,112.556 65.333,112.526 66.325 C 112.514 66.711,112.494 67.293,112.482 67.619 C 112.364 70.600,113.466 76.267,114.496 77.981 C 115.359 79.417,115.763 79.590,117.010 79.055 C 118.643 78.355,118.978 78.611,119.924 81.284 C 120.322 82.409,122.512 84.946,123.548 85.482 C 125.670 86.579,128.463 84.486,129.333 81.147 C 129.689 79.778,130.040 79.208,130.575 79.131 C 131.102 79.056,131.897 79.626,131.897 80.081 C 131.897 80.230,132.029 80.628,132.190 80.963 C 132.352 81.299,132.667 81.954,132.891 82.419 C 134.123 84.981,136.782 84.383,138.362 81.189 C 138.843 80.215,139.517 78.933,139.858 78.341 C 140.200 77.748,140.885 76.054,141.380 74.576 C 141.876 73.098,142.515 71.428,142.800 70.866 C 143.086 70.303,143.319 69.664,143.319 69.448 C 143.319 68.243,146.314 60.866,146.967 60.463 C 147.056 60.408,147.235 63.001,147.365 66.227 C 147.612 72.375,147.830 73.756,148.869 75.769 C 150.055 78.065,152.298 77.699,153.754 74.972 C 154.094 74.335,154.547 73.619,154.762 73.380 C 155.504 72.555,156.244 70.890,156.464 69.553 C 157.092 65.726,158.117 62.823,158.841 62.823 C 159.403 62.823,160.560 67.182,160.561 69.306 C 160.562 71.904,161.739 77.629,162.624 79.341 C 163.027 80.122,165.215 82.058,166.299 82.594 C 168.663 83.764,170.216 81.151,168.211 79.376 C 167.737 78.957,167.098 78.389,166.791 78.114 C 165.772 77.202,164.601 73.295,164.526 70.551 C 164.470 68.537,163.688 63.325,163.346 62.685 C 163.241 62.490,163.090 61.774,163.010 61.094 C 162.903 60.177,162.615 59.443,161.894 58.243 L 160.923 56.627 159.658 56.759 C 157.498 56.985,156.681 57.678,156.681 59.287 C 156.681 59.639,156.385 60.513,156.022 61.231 C 155.660 61.949,154.984 63.765,154.520 65.266 C 153.369 68.994,152.232 71.336,151.573 71.336 C 151.177 71.336,151.077 71.217,151.074 70.744 C 151.072 70.418,150.932 69.569,150.762 68.858 C 150.513 67.817,150.493 66.955,150.657 64.440 C 150.769 62.721,150.905 59.984,150.958 58.358 C 151.012 56.732,151.157 55.211,151.282 54.978 C 151.747 54.109,151.272 50.749,150.588 50.064 C 149.510 48.987,147.906 50.404,146.757 53.448 C 146.336 54.562,146.077 55.148,144.705 58.080 C 144.401 58.731,143.782 60.282,143.330 61.527 C 142.878 62.772,142.329 64.058,142.109 64.384 C 141.476 65.327,140.975 66.528,140.153 69.073 C 139.733 70.377,138.812 72.753,138.108 74.353 C 137.404 75.954,136.674 77.627,136.484 78.072 C 135.857 79.549,134.823 79.543,134.232 78.060 C 133.430 76.051,133.925 65.932,135.036 61.624 C 135.206 60.964,135.345 59.594,135.345 58.580 C 135.345 56.186,135.507 55.388,135.992 55.388 C 136.760 55.388,137.488 53.588,136.991 52.919 C 136.521 52.287,134.886 52.265,133.155 52.868 C 127.132 54.964,123.543 56.959,123.254 58.370 C 123.176 58.755,122.961 59.236,122.777 59.439 C 122.173 60.106,120.690 63.604,120.690 64.360 C 120.690 64.767,120.536 65.461,120.347 65.901 C 120.159 66.342,119.733 67.769,119.401 69.073 C 118.589 72.266,117.395 74.784,116.694 74.784 C 115.945 74.784,115.791 73.899,115.643 68.750 C 115.481 63.073,115.016 60.193,113.917 58.051 C 112.929 56.126,110.226 56.294,109.374 58.333 C 108.749 59.828,106.681 60.535,106.681 59.254 C 106.681 59.038,106.584 58.802,106.466 58.728 C 106.155 58.537,106.200 57.709,106.561 56.984 C 106.731 56.639,107.028 55.151,107.219 53.677 C 107.411 52.203,107.617 50.916,107.678 50.819 C 108.343 49.742,108.880 42.184,108.371 41.066 C 107.725 39.649,105.194 40.857,105.153 42.602 C 105.115 44.274,104.968 45.624,104.643 47.306 C 104.459 48.254,104.206 50.630,104.081 52.586 C 103.955 54.542,103.814 56.433,103.767 56.789 C 103.720 57.144,103.585 59.181,103.468 61.315 C 103.351 63.448,103.108 65.824,102.928 66.595 C 102.748 67.365,102.598 68.362,102.594 68.809 C 102.584 69.875,101.962 71.613,101.006 73.244 C 100.583 73.965,100.118 74.971,99.973 75.478 C 98.873 79.318,94.682 80.465,93.098 77.360 C 92.623 76.430,91.379 72.586,91.379 72.050 C 91.379 71.880,90.991 70.600,90.517 69.207 C 90.043 67.814,89.655 66.507,89.655 66.304 C 89.655 66.101,89.360 64.944,88.998 63.732 C 87.836 59.837,88.148 59.461,92.501 59.507 C 96.223 59.547,99.138 58.260,99.138 56.578 C 99.138 55.183,97.595 54.738,95.447 55.513 C 94.807 55.744,93.640 55.865,91.810 55.890 L 89.116 55.927 88.999 54.957 C 88.934 54.423,88.755 53.758,88.601 53.478 C 88.296 52.923,88.350 52.350,88.910 50.216 C 89.112 49.445,89.305 48.353,89.338 47.788 C 89.371 47.223,89.515 46.274,89.658 45.679 C 90.194 43.445,89.542 42.026,87.981 42.026 C 86.888 42.026,86.276 42.772,86.103 44.314 C 86.024 45.011,85.866 45.873,85.750 46.228 C 85.429 47.216,84.923 51.830,84.918 53.813 C 84.916 54.784,84.840 55.624,84.749 55.680 C 84.502 55.832,80.592 54.849,79.849 54.447 C 78.816 53.889,77.035 53.980,76.391 54.624 C 74.933 56.082,76.676 58.266,79.634 58.687 C 80.108 58.755,80.690 58.855,80.927 58.911 C 81.164 58.966,82.182 59.177,83.190 59.379 C 86.375 60.018,86.444 60.249,84.973 65.302 C 83.849 69.163,80.109 76.509,79.268 76.509 C 79.172 76.509,78.642 77.091,78.090 77.802 C 77.538 78.513,76.976 79.095,76.842 79.095 C 76.708 79.095,76.035 79.570,75.348 80.152 C 74.661 80.733,72.934 81.824,71.512 82.576 C 70.090 83.328,68.703 84.165,68.429 84.436 C 67.268 85.586,62.822 87.712,61.574 87.714 C 59.578 87.717,56.931 86.090,55.969 84.267 C 55.687 83.734,54.907 82.328,54.235 81.142 C 52.093 77.361,51.568 74.969,52.343 72.510 C 52.566 71.805,53.011 70.356,53.333 69.289 C 54.677 64.840,54.603 65.009,55.450 64.457 C 55.890 64.171,56.250 63.776,56.250 63.579 C 56.250 63.203,57.104 62.283,57.449 62.287 C 58.949 62.302,62.284 59.535,62.284 58.276 C 62.284 56.208,59.640 56.646,56.691 59.204 C 53.710 61.791,47.629 59.803,47.629 56.243 C 47.629 54.023,49.465 49.955,51.419 47.845 C 51.912 47.311,52.914 46.148,53.644 45.259 C 56.268 42.064,57.716 40.773,58.998 40.486 C 59.631 40.345,60.199 40.148,60.260 40.050 C 60.320 39.951,60.534 39.870,60.735 39.870 C 60.935 39.869,61.576 39.627,62.159 39.331 C 63.293 38.756,64.588 38.653,66.371 38.997 C 68.454 39.399,69.229 38.656,69.018 36.458 L 68.911 35.345 67.052 35.373 C 66.030 35.389,64.564 35.477,63.793 35.570 M264.736 37.165 C 263.921 37.573,262.822 38.034,262.294 38.189 C 259.885 38.895,260.252 42.241,262.739 42.241 C 265.717 42.241,269.092 38.088,267.193 36.758 C 266.539 36.299,266.425 36.318,264.736 37.165 M284.349 41.454 C 284.335 42.508,284.170 43.857,283.981 44.471 C 283.198 47.015,282.923 48.526,282.781 51.078 C 282.698 52.559,282.513 53.984,282.371 54.243 C 282.228 54.502,281.972 55.714,281.802 56.937 C 281.258 60.848,280.157 65.517,279.778 65.517 C 279.303 65.517,278.340 59.912,278.315 57.004 C 278.225 46.352,280.486 39.184,283.836 39.497 C 284.369 39.547,284.375 39.570,284.349 41.454 M298.017 45.582 C 298.052 46.530,297.931 48.761,297.747 50.539 C 297.563 52.317,297.413 54.648,297.413 55.718 C 297.414 56.789,297.268 58.195,297.089 58.843 C 296.911 59.491,296.623 60.749,296.450 61.638 C 295.781 65.073,294.317 68.557,293.476 68.713 C 292.374 68.916,291.593 60.727,292.339 56.789 C 292.760 54.563,293.487 51.865,293.855 51.159 C 294.033 50.818,294.179 50.415,294.180 50.265 C 294.182 49.886,296.071 45.087,296.512 44.340 C 297.281 43.038,297.942 43.583,298.017 45.582 M131.856 57.945 C 131.894 58.468,131.729 59.525,131.485 60.329 C 131.215 61.219,130.991 62.762,130.903 64.345 C 130.784 66.476,130.632 67.287,130.018 69.070 C 129.483 70.626,129.262 71.672,129.220 72.842 C 129.171 74.226,129.061 74.632,128.462 75.636 C 128.077 76.282,127.241 77.850,126.603 79.121 C 125.303 81.714,125.179 81.848,124.495 81.399 C 123.711 80.886,121.767 77.918,121.767 77.235 C 121.767 76.903,121.609 76.216,121.415 75.709 C 121.089 74.856,121.089 74.693,121.415 73.532 C 121.609 72.842,121.767 71.866,121.767 71.362 C 121.767 70.858,121.885 70.234,122.029 69.975 C 122.433 69.248,123.270 66.549,123.273 65.962 C 123.278 65.075,124.110 63.654,125.455 62.237 C 126.161 61.493,126.883 60.588,127.059 60.226 C 128.366 57.541,131.713 55.950,131.856 57.945 " stroke="none" fill="#000000" fill-rule="evenodd"></path></g></svg>