<?xml version="1.0" encoding="UTF-8" standalone="no"?>
<svg
   id="svg"
   version="1.1"
   width="200"
   height="100"
   viewBox="0 0 200 100.00001"
   sodipodi:docname="image2vector (11).svg"
   inkscape:version="1.2.2 (732a01da63, 2022-12-09)"
   xmlns:inkscape="http://www.inkscape.org/namespaces/inkscape"
   xmlns:sodipodi="http://sodipodi.sourceforge.net/DTD/sodipodi-0.dtd"
   xmlns="http://www.w3.org/2000/svg"
   xmlns:svg="http://www.w3.org/2000/svg">
  <defs
     id="defs188" />
  <sodipodi:namedview
     id="namedview186"
     pagecolor="#ffffff"
     bordercolor="#000000"
     borderopacity="0.25"
     inkscape:showpageshadow="2"
     inkscape:pageopacity="0.0"
     inkscape:pagecheckerboard="0"
     inkscape:deskcolor="#d1d1d1"
     showgrid="false"
     inkscape:zoom="3.9679547"
     inkscape:cx="142.51675"
     inkscape:cy="74.723635"
     inkscape:window-width="1904"
     inkscape:window-height="1008"
     inkscape:window-x="-1341"
     inkscape:window-y="-1440"
     inkscape:window-maximized="0"
     inkscape:current-layer="svg" />
  <g
     id="svgg"
     transform="translate(-25.075891,-0.50403802)"
     style="display:inline">
    <path
       id="path0"
       d="m 177.90313,10.15122 c -0.026,0.026 -27.954,0.06 -62.062,0.076 -59.894995,0.028 -62.067995,0.043 -63.596995,0.434 -3.764,0.962 -6.749,3.646 -8.261,7.426 l -0.517,1.294 -0.059,30.265 c -0.052,27.199 -0.023,30.401 0.288,31.608 1.059,4.107 4.633,7.634 8.724,8.61 1.547,0.369 139.970995,0.312 142.071995,-0.059 6.538,-1.153 9.438,-5.612 9.528,-14.652 0.096,-9.639 -0.117,-10.14 -4.492,-10.554 -17.957,-1.699 -18.096,-27.362 -0.156,-28.921 2.43,-0.211 3.306,-0.616 4.107,-1.902 0.678,-1.089 0.762,-12.5 0.11,-14.927 -1.184,-4.407 -5.109,-7.886 -9.637,-8.542 -1.01,-0.146 -15.912,-0.291 -16.048,-0.156 m -13.924,10.832 c 1.363,1.363 0.718,4.979 -0.889,4.979 -2.016,0 -2.615,-4.462 -0.712,-5.304 0.866,-0.383 0.9,-0.376 1.601,0.325 m -44.994,10.685 c 0.412,0.172 0.748,0.268 0.748,0.213 0,-0.055 0.342,0.043 0.759,0.217 0.418,0.175 0.807,0.321 0.864,0.324 0.707,0.047 3.462,2.17 2.816,2.17 -0.097,0 -0.078,0.121 0.042,0.269 0.12,0.149 0.577,1.144 1.015,2.212 0.438,1.068 0.877,2.026 0.977,2.13 0.1,0.103 0.13,0.322 0.068,0.485 -0.063,0.164 0.009,0.298 0.16,0.298 0.152,0 0.217,0.057 0.147,0.128 -0.071,0.071 0.097,0.678 0.373,1.349 2.525,6.138 2.473,5.959 1.679,5.744 -0.326,-0.088 -0.739,-0.182 -0.917,-0.208 -0.178,-0.027 -0.597,-0.159 -0.931,-0.295 -0.334,-0.135 -0.722,-0.251 -0.863,-0.257 -0.141,-0.006 -1.158,-0.376 -2.261,-0.822 -2.525,-1.021 -2.303,-0.616 -4.046,-7.365 -0.199,-0.772 -0.467,-1.688 -0.596,-2.037 -0.129,-0.349 -0.253,-0.785 -0.275,-0.971 -0.054,-0.46 -0.709,-3.142 -0.869,-3.559 -0.161,-0.42 0.148,-0.427 1.11,-0.025 m 45.193,0.119 c 0.639,0.639 0.628,3.575 -0.016,4.394 -0.998,1.269 -2.612,0.476 -2.883,-1.417 -0.362,-2.53 1.467,-4.408 2.899,-2.977 m -122.059995,0.971 c 0.002,0.475 0.046,0.643 0.098,0.375 0.052,-0.268 0.05,-0.657 -0.004,-0.863 -0.054,-0.206 -0.097,0.013 -0.094,0.488 m 0.025,6.365 c 0,1.246 0.036,1.755 0.079,1.132 0.044,-0.623 0.044,-1.642 0,-2.265 -0.043,-0.623 -0.079,-0.113 -0.079,1.133 m 74.158995,0.586 c 1.194,0.705 1.007,1.493 -0.721,3.04 -0.49,0.438 -1.14399,1.039 -1.45499,1.336 -0.311,0.296 -0.948,0.871 -1.416,1.276 -0.904,0.783 -3.763,3.353 -5.561,5.001 l -1.083,0.992 0.882,0.796 c 0.484,0.438 1.157,1.008 1.493,1.266 0.337,0.259 0.661,0.522 0.721,0.586 0.059,0.063 0.69,0.598 1.402,1.189 0.712,0.591 1.343,1.13 1.402,1.198 0.06,0.068 0.474,0.399 0.922,0.735 0.447,0.336 1.224,0.989 1.726,1.45 0.50199,0.462 1.22199,1.054 1.60099,1.315 1.377,0.952 1.032,2.597 -0.581,2.767 -1.12399,0.119 -1.04999,0.169 -6.68799,-4.544 -0.534,-0.446 -1.602,-1.332 -2.373,-1.968 -1.519,-1.253 -2.058,-1.708 -3.1,-2.617 -0.372,-0.324 -0.742,-0.591 -0.823,-0.593 -0.351,-0.008 -1.062,-1.321 -0.933,-1.725 0.125,-0.395 2.844,-3.238 2.974,-3.109 0.032,0.032 0.929,-0.761 1.994,-1.762 1.066,-1.001 2.002,-1.82 2.081,-1.821 0.079,0 0.176,-0.074 0.216,-0.163 0.068,-0.154 3.053,-2.857 4.772,-4.32 0.91799,-0.782 1.62199,-0.872 2.54799,-0.325 m 24.718,0.122 c 0.257,0.145 0.84,0.602 1.297,1.018 0.659,0.599 3.021,2.697 4.736,4.207 0.135,0.118 1.106,1 2.158,1.96 1.053,0.959 2.412,2.173 3.022,2.697 1.218,1.046 1.668,1.766 1.478,2.363 -0.108,0.34 -6.62,5.958 -10.353,8.932 -0.712,0.567 -1.463,1.224 -1.669,1.459 -1.269,1.451 -4.254,-0.202 -3.017,-1.669 0.427,-0.507 6.649,-5.789 9.146,-7.765 1.517,-1.2 1.593,-1.463 0.662,-2.272 -0.444,-0.385 -1.632,-1.447 -2.641,-2.36 -1.009,-0.913 -2.853,-2.565 -4.099,-3.672 -1.246,-1.107 -2.298,-2.093 -2.338,-2.191 -0.039,-0.099 -0.197,-0.179 -0.351,-0.179 -0.452,0 -0.843,-1.175 -0.564,-1.696 0.533,-0.994 1.611,-1.349 2.533,-0.832 m 23.06,2.842 c 0.52,0.52 0.669,1.377 0.593,3.422 -0.095,2.569 -3.094,1.806 -3.261,-0.83 -0.172,-2.697 1.215,-4.045 2.668,-2.592 m -121.966995,1.843 c 0,0.416 0.045,0.586 0.099,0.378 0.054,-0.208 0.054,-0.548 0,-0.755 -0.054,-0.208 -0.099,-0.038 -0.099,0.377 m 0.012,2.05 c 0.002,0.593 0.044,0.81 0.093,0.482 0.05,-0.328 0.048,-0.813 -0.003,-1.078 -0.051,-0.266 -0.092,0.003 -0.09,0.596 m 85.546995,1.308 c 3.001,0.7 3.421,0.827 4.71,1.427 1.711,0.796 3.101,2.26 3.101,3.265 0,0.045 -0.537,-0.1 -1.194,-0.321 -1.431,-0.483 -3.124,-0.742 -3.114,-0.476 0.004,0.105 0.195,0.579 0.425,1.054 0.229,0.474 0.42,0.987 0.424,1.14 0.004,0.152 0.16,0.511 0.348,0.798 0.188,0.286 0.367,0.647 0.399,0.801 0.072,0.351 0.164,0.593 1.339,3.517 0.524,1.306 1.138,2.762 1.365,3.237 0.227,0.474 0.766,1.736 1.198,2.804 0.433,1.068 0.876,2.034 0.985,2.147 0.109,0.113 0.198,0.381 0.198,0.596 0,0.216 0.118,0.58 0.262,0.81 0.352,0.564 0.097,0.761 -0.632,0.489 -0.527,-0.197 -3.658,-1.189 -3.945,-1.251 -0.059,-0.013 -0.253,-0.08 -0.431,-0.149 -0.178,-0.069 -1.176,-0.388 -2.216,-0.709 -3.155,-0.973 -4.363,-2.14 -5.125,-4.953 -0.257,-0.949 -0.609,-2.212 -0.781,-2.805 -0.173,-0.593 -0.404,-1.498 -0.515,-2.01 -0.111,-0.512 -0.258,-1.024 -0.328,-1.136 -0.07,-0.113 -0.173,-0.47 -0.23,-0.795 -0.056,-0.324 -0.187,-0.881 -0.291,-1.237 -0.728,-2.493 -0.87,-3.206 -0.87,-4.363 0,-2.098 1.508,-2.675 4.918,-1.88 m -33.839995,0.196 c 0.84,0.435 1.172,1.442 0.783,2.374 -0.501,1.198 -1.077,1.277 -8.259,1.128 -3.897,-0.08 -6.357,-0.051 -6.435,0.075 -0.07,0.113 -0.224,0.205 -0.343,0.205 -0.118,0 -0.158,-0.093 -0.088,-0.206 0.079,-0.129 -5.272,-0.204 -14.44,-0.202 -15.787,0.003 -15.471,0.026 -16.046,-1.174 -0.243,-0.507 -0.244,-0.722 -0.005,-1.293 0.158,-0.377 0.27,-0.738 0.25,-0.804 -0.021,-0.065 0.317,-0.142 0.749,-0.171 0.433,-0.03 0.807,-0.073 0.831,-0.097 0.266,-0.266 42.484,-0.103 43.003,0.165 m 70.355995,5.411 c 0.527,0.561 0.716,2.929 0.33,4.143 -0.344,1.086 -2.523,1.071 -2.791,-0.019 -0.87,-3.549 0.633,-6.07 2.461,-4.124 m -81.138995,5.327 c 1.284,0.669 1.336,2.373 0.09,2.94 -0.383,0.175 -5.177,0.244 -16.824,0.244 h -16.289 l -0.529,-0.53 c -0.893,-0.892 -0.389,-2.573 0.823,-2.746 1.726,-0.245 32.247,-0.16 32.729,0.092 m 81.328995,5.694 c 1.642,2.087 -0.473,6.173 -2.261,4.368 -0.783,-0.791 -0.87,-3.922 -0.126,-4.525 0.753,-0.609 1.84,-0.538 2.387,0.157 m -0.512,10.435 c 0.954,0 1.348,3.547 0.512,4.61 -0.478,0.607 -1.389,0.755 -2.149,0.349 -0.757,-0.406 -0.959,-2.051 -0.519,-4.24 0.096,-0.481 1.05,-0.973 1.568,-0.81 0.158,0.05 0.423,0.091 0.588,0.091"
       stroke="none"
       fill="#fcfcfc"
       fill-rule="evenodd"
       style="display:inline" />
  </g>
</svg>
